<svg xmlns="http://www.w3.org/2000/svg" xmlns:xlink="http://www.w3.org/1999/xlink" viewBox="0 0 347.89 451.97"><defs><style>.cls-1{fill:#c3dde3;}.cls-2{fill:url(#linear-gradient);}.cls-3{fill:url(#linear-gradient-2);}.cls-4{fill:url(#New_Gradient_Swatch_copy);}.cls-5{fill:#1d1d1b;}.cls-6{fill:#9496a1;}.cls-7{fill:url(#New_Gradient_Swatch_copy-2);}</style><linearGradient id="linear-gradient" x1="341.96" y1="326.21" x2="193.14" y2="326.21" gradientUnits="userSpaceOnUse"><stop offset="0" stop-color="#9496a1"/><stop offset="0.01" stop-color="#9b9da7"/><stop offset="0.08" stop-color="#c6c7cd"/><stop offset="0.15" stop-color="#e5e6e8"/><stop offset="0.2" stop-color="#f8f8f9"/><stop offset="0.24" stop-color="#fff"/><stop offset="0.29" stop-color="#fafafa"/><stop offset="0.36" stop-color="#ebebec"/><stop offset="0.43" stop-color="#d2d2d5"/><stop offset="0.5" stop-color="#afafb5"/><stop offset="0.58" stop-color="#82828c"/><stop offset="0.64" stop-color="#5f5f6b"/></linearGradient><linearGradient id="linear-gradient-2" x1="203.16" y1="116.78" x2="113.71" y2="206.24" gradientUnits="userSpaceOnUse"><stop offset="0.08" stop-color="#9496a1"/><stop offset="0.1" stop-color="#a3a4ae"/><stop offset="0.17" stop-color="#d4d5da"/><stop offset="0.23" stop-color="#f3f4f5"/><stop offset="0.26" stop-color="#fff"/><stop offset="0.31" stop-color="#fafafa"/><stop offset="0.37" stop-color="#ebebec"/><stop offset="0.44" stop-color="#d2d2d5"/><stop offset="0.51" stop-color="#afafb5"/><stop offset="0.58" stop-color="#82828c"/><stop offset="0.64" stop-color="#5f5f6b"/></linearGradient><radialGradient id="New_Gradient_Swatch_copy" cx="266.98" cy="268.22" r="65.84" gradientUnits="userSpaceOnUse"><stop offset="0.81" stop-color="#c3dde3"/><stop offset="0.84" stop-color="#b7d0dc"/><stop offset="0.89" stop-color="#97aeca"/><stop offset="0.92" stop-color="#849abf"/></radialGradient><radialGradient id="New_Gradient_Swatch_copy-2" cx="53.28" cy="52.99" r="52.58" xlink:href="#New_Gradient_Swatch_copy"/></defs><g id="Layer_2" data-name="Layer 2"><g id="Слой_1" data-name="Слой 1"><path class="cls-1" d="M219.79,190.78H318a5.43,5.43,0,0,1,5.43,5.43v27.62a0,0,0,0,1,0,0H213.31a0,0,0,0,1,0,0V197.26A6.49,6.49,0,0,1,219.79,190.78Z"/><path d="M324.4,224.84H212.29V203.92a14.17,14.17,0,0,1,14.16-14.16H312.4a12,12,0,0,1,12,12Zm-110.08-2H322.37V201.76a10,10,0,0,0-10-10H226.45a12.14,12.14,0,0,0-12.13,12.13Z"/><path class="cls-2" d="M346.87,443.82s-22.73,7.06-76.75,7.14C216.86,451,192,444,192,444l1.06-24,20.27-66.54-.18-127.37a22.84,22.84,0,0,1,20.66-22.78c10.34-1,23.84-1.89,38.84-1.89,18.72,0,48.17,5.52,50.87,22.29l.13,110.18,0,20.17,23.12,65.72Z"/><path d="M269.25,452c-52.2,0-77.25-6.89-77.5-7l-.78-.22,1.14-25.05,20.23-66.4-.18-127.21a23.78,23.78,0,0,1,21.57-23.8c13.1-1.25,26.2-1.89,38.94-1.89,16.66,0,48.93,4.83,51.87,23.14l.17,130.33,23.12,65.9.06,24.74-.72.22c-.22.07-23.49,7.11-77.05,7.19Zm-76.18-8.71c4.59,1.14,29.66,6.83,77,6.69,48.05-.07,71.49-5.75,75.75-6.9L345.81,420,322.69,354.1l-.16-130.35c-2.72-16.8-33.8-21.28-49.86-21.28-12.67,0-25.71.64-38.74,1.89a21.75,21.75,0,0,0-19.75,21.77l.19,127.52-.05.15-20.23,66.41Z"/><rect x="213.31" y="328.69" width="110.34" height="13.57"/><ellipse cx="317.2" cy="388.8" rx="6.11" ry="22.81" transform="translate(-74.34 74.99) rotate(-12.08)"/><ellipse cx="221.78" cy="388.8" rx="22.81" ry="6.11" transform="translate(-204.82 524.31) rotate(-77.92)"/><polygon class="cls-3" points="307.33 227.66 228.74 306.25 181.17 258.68 171.81 249.33 171.65 248.29 168.03 225.27 76.03 133.56 68.86 132.63 68.3 132.54 60.44 124.69 20.21 84.69 84.69 20.23 124.89 60.23 132.75 68.09 132.85 68.66 134.43 77.57 226.9 170.03 249.23 170.7 250.38 170.74 259.74 180.09 307.33 227.66"/><path d="M228.74,307.69l-57.87-57.88-3.79-24.05L75.56,134.52l-7.74-1-8.1-8.1L18.78,84.69,84.69,18.8l49,48.8,1.68,9.48,92,92,23.49.71,9.64,9.64,48.3,48.28Zm-56-58.84,56,56,77.16-77.16L250,171.73l-23.49-.7-.28-.29L133.49,78.06l-1.68-9.48L124.18,61,84.69,21.66l-63,63,47.12,46.9.23,0,7.5,1,.25.24L169,224.79Z"/><polygon points="132.85 68.66 68.86 132.63 68.3 132.54 60.44 124.69 124.89 60.23 132.75 68.09 132.85 68.66"/><polygon points="259.74 180.09 181.17 258.68 171.81 249.33 171.65 248.29 249.23 170.7 250.38 170.74 259.74 180.09"/><circle class="cls-4" cx="264.05" cy="268.39" r="62.67"/><path class="cls-5" d="M264,332.07a63.43,63.43,0,1,1,2.67-.05C265.79,332.05,264.9,332.07,264,332.07Zm.1-125.33c-.87,0-1.74,0-2.61,0a61.8,61.8,0,1,0,2.61,0Z"/><circle class="cls-6" cx="219.07" cy="284.29" r="3.82"/><path d="M219.07,289.12a4.83,4.83,0,1,1,4.84-4.83A4.84,4.84,0,0,1,219.07,289.12Zm0-7.64a2.81,2.81,0,1,0,2.81,2.81A2.81,2.81,0,0,0,219.07,281.48Z"/><circle class="cls-6" cx="296.71" cy="302.79" r="3.82"/><path d="M296.71,307.62a4.83,4.83,0,1,1,4.83-4.83A4.84,4.84,0,0,1,296.71,307.62Zm0-7.64a2.81,2.81,0,1,0,2.8,2.81A2.81,2.81,0,0,0,296.71,300Z"/><circle class="cls-6" cx="277.45" cy="223.83" r="3.82"/><path d="M277.45,228.66a4.84,4.84,0,1,1,4.83-4.83A4.84,4.84,0,0,1,277.45,228.66Zm0-7.64a2.81,2.81,0,1,0,2.81,2.81A2.8,2.8,0,0,0,277.45,221Z"/><path d="M264.05,326.2a57.81,57.81,0,1,1,57.81-57.81A57.87,57.87,0,0,1,264.05,326.2Zm0-113.59a55.79,55.79,0,1,0,55.78,55.78A55.85,55.85,0,0,0,264.05,212.61Z"/><circle class="cls-7" cx="51.48" cy="51.48" r="50.47"/><path d="M51.48,103A51.48,51.48,0,1,1,103,51.48,51.53,51.53,0,0,1,51.48,103ZM51.48,2a49.46,49.46,0,1,0,49.46,49.45A49.5,49.5,0,0,0,51.48,2Z"/><circle class="cls-6" cx="23.92" cy="27.67" r="3.63"/><path d="M23.92,32.31a4.64,4.64,0,1,1,4.64-4.64A4.64,4.64,0,0,1,23.92,32.31Zm0-7.26a2.62,2.62,0,1,0,2.62,2.62A2.62,2.62,0,0,0,23.92,25.05Z"/><circle class="cls-6" cx="41.38" cy="86.49" r="3.63"/><path d="M41.38,91.13A4.64,4.64,0,1,1,46,86.49,4.64,4.64,0,0,1,41.38,91.13Zm0-7.26A2.62,2.62,0,1,0,44,86.49,2.62,2.62,0,0,0,41.38,83.87Z"/><circle class="cls-6" cx="86.03" cy="41.13" r="3.63"/><path d="M86,45.77a4.64,4.64,0,1,1,4.64-4.64A4.64,4.64,0,0,1,86,45.77Zm0-7.25a2.62,2.62,0,1,0,2.62,2.61A2.61,2.61,0,0,0,86,38.52Z"/><path d="M51.48,97.44a46,46,0,1,1,46-46A46,46,0,0,1,51.48,97.44Zm0-89.9A43.94,43.94,0,1,0,95.42,51.48,44,44,0,0,0,51.48,7.54Z"/></g></g></svg>