<svg xmlns="http://www.w3.org/2000/svg" xmlns:xlink="http://www.w3.org/1999/xlink" viewBox="0 0 387.46 240.75"><defs><style>.cls-1{isolation:isolate;}.cls-2{fill:url(#New_Gradient_Swatch);}.cls-3{fill:#c3dde3;}.cls-4{fill:url(#linear-gradient);}.cls-5{fill:url(#linear-gradient-2);}.cls-6{fill:url(#linear-gradient-3);}.cls-7{fill:#9496a1;}.cls-8{fill:url(#radial-gradient);}.cls-9{mix-blend-mode:multiply;}</style><linearGradient id="New_Gradient_Swatch" x1="161.22" y1="168.11" x2="100.93" y2="85.58" gradientUnits="userSpaceOnUse"><stop offset="0" stop-color="#9496a1"/><stop offset="0.24" stop-color="#fff"/><stop offset="0.29" stop-color="#fafafa"/><stop offset="0.36" stop-color="#ebebec"/><stop offset="0.43" stop-color="#d2d2d5"/><stop offset="0.5" stop-color="#afafb5"/><stop offset="0.58" stop-color="#82828c"/><stop offset="0.64" stop-color="#5f5f6b"/></linearGradient><linearGradient id="linear-gradient" x1="381.75" y1="54.61" x2="305.99" y2="54.61" gradientUnits="userSpaceOnUse"><stop offset="0" stop-color="#9496a1"/><stop offset="0.16" stop-color="#fff"/><stop offset="0.23" stop-color="#fafafa"/><stop offset="0.31" stop-color="#ebebec"/><stop offset="0.4" stop-color="#d2d2d5"/><stop offset="0.5" stop-color="#afafb5"/><stop offset="0.6" stop-color="#82828c"/><stop offset="0.66" stop-color="#5f5f6b"/></linearGradient><linearGradient id="linear-gradient-2" x1="265.75" y1="101.14" x2="265.75" y2="0.1" gradientUnits="userSpaceOnUse"><stop offset="0" stop-color="#9496a1"/><stop offset="0.2" stop-color="#fff"/><stop offset="0.27" stop-color="#fafafa"/><stop offset="0.34" stop-color="#ebebec"/><stop offset="0.43" stop-color="#d2d2d5"/><stop offset="0.52" stop-color="#afafb5"/><stop offset="0.61" stop-color="#82828c"/><stop offset="0.68" stop-color="#5f5f6b"/></linearGradient><linearGradient id="linear-gradient-3" x1="390.14" y1="100.15" x2="305.53" y2="100.66" gradientUnits="userSpaceOnUse"><stop offset="0.06" stop-color="#9496a1"/><stop offset="0.09" stop-color="#a3a4ae"/><stop offset="0.17" stop-color="#d4d5da"/><stop offset="0.23" stop-color="#f3f4f5"/><stop offset="0.26" stop-color="#fff"/><stop offset="0.33" stop-color="#fbfbfb"/><stop offset="0.4" stop-color="#efeff0"/><stop offset="0.47" stop-color="#dadadd"/><stop offset="0.54" stop-color="#bdbdc2"/><stop offset="0.61" stop-color="#9898a0"/><stop offset="0.68" stop-color="#6b6b76"/><stop offset="0.7" stop-color="#5f5f6b"/></linearGradient><radialGradient id="radial-gradient" cx="203.32" cy="60.04" fx="214.12224020745344" r="46.32" gradientUnits="userSpaceOnUse"><stop offset="0.57" stop-color="#c3dde3"/><stop offset="0.65" stop-color="#b7d0dc"/><stop offset="0.79" stop-color="#97aeca"/><stop offset="0.86" stop-color="#849abf"/></radialGradient></defs><g class="cls-1"><g id="Layer_2" data-name="Layer 2"><g id="Слой_1" data-name="Слой 1"><polygon class="cls-2" points="264.16 82.7 225.07 110.52 214.99 111.66 109.63 186.71 103.98 197.87 45.78 239.34 1.41 177.03 59.53 135.64 72.08 133.96 177.43 58.93 182.37 48.54 221.17 20.91 264.16 82.7"/><path d="M45.54,240.75,0,176.79l59.15-42.12L71.7,133,176.62,58.26l4.95-10.39,39.84-28.38L265.56,83l-40.11,28.54-10.08,1.15L110.42,187.39l-5.65,11.16-.2.14ZM2.82,177.27,46,237.93l57.17-40.74L108.84,186l.2-.14,105.58-75.2,10.08-1.15,38.05-27.08L220.92,22.33,183.17,49.22,178.23,59.6l-.22.16L72.47,134.93l-12.56,1.68Z"/><rect x="71.35" y="131.54" width="11.62" height="76.7" transform="translate(-84.02 75.88) rotate(-35.32)"/><rect x="202.37" y="39.46" width="8.97" height="75.11" transform="translate(-6.45 133.76) rotate(-35.32)"/><path d="M288.19,113.55h0a3.6,3.6,0,0,1,0,5.1l-1.05,1.06a3.61,3.61,0,0,1-5.12,0L261.45,99.14a3.62,3.62,0,0,1,0-5.12l3.61-3.6,1.13,1.13L287,70.72l22,22Z"/><path d="M303.71,16.53h0a3.62,3.62,0,0,1-3.62-3.61V11.43a3.62,3.62,0,0,1,3.61-3.62h29.11a3.62,3.62,0,0,1,3.61,3.62v5.1h-1.6V46h-31.1Z"/><ellipse class="cls-3" cx="347.27" cy="37.03" rx="39.17" ry="36.02"/><path d="M347.27,74.06c-22.15,0-40.18-16.61-40.18-37s18-37,40.18-37,40.19,16.61,40.19,37S369.43,74.06,347.27,74.06Zm0-72c-21,0-38.15,15.7-38.15,35s17.11,35,38.15,35,38.16-15.71,38.16-35S368.31,2,347.27,2Z"/><path class="cls-4" d="M384.79,43.62v.81l-1.22,59h-.12c.08-1,.12-2,.12-3a36.66,36.66,0,1,0-73.32,0c0,1,0,2,.12,3h-.12l-1.22-59a37.88,37.88,0,1,1,75.76-.81Z"/><path class="cls-5" d="M322.76,16.35s-9.92,17.47-11.5,38.25c-.87,11.58-1,39-1,39H208.73s7.11-2,7.17-39c.06-38.25-7.17-38.25-7.17-38.25Z"/><path class="cls-6" d="M383.57,100.42c0,1,0,2-.12,3a36.67,36.67,0,0,1-73.08,0c-.08-1-.12-2-.12-3a36.66,36.66,0,1,1,73.32,0Z"/><path d="M346.9,138.09a37.88,37.88,0,0,1-37.54-34.54c-.08-1-.13-2.07-.13-3.13a37.68,37.68,0,1,1,75.36,0c0,1.06,0,2.1-.13,3.12A37.88,37.88,0,0,1,346.9,138.09Zm0-73.33a35.69,35.69,0,0,0-35.64,35.66c0,1,0,2,.12,3a35.65,35.65,0,0,0,71.06,0c.08-1,.12-1.95.12-3A35.7,35.7,0,0,0,346.9,64.76Z"/><path d="M384.46,103.54l-2-.1.1-4.24,2,0c0,.4,0,.82,0,1.24C384.59,101.48,384.54,102.52,384.46,103.54Z"/><path class="cls-7" d="M326.73,82.47c0,.08,0,.16,0,.23a2.8,2.8,0,0,1-5.59,0c0-.07,0-.15,0-.23a2.81,2.81,0,0,1,5.61,0Z"/><path d="M323.93,86.28a3.83,3.83,0,0,1-3.8-3.49c0-.11,0-.21,0-.32a3.82,3.82,0,0,1,7.63,0c0,.11,0,.22,0,.32A3.84,3.84,0,0,1,323.93,86.28Zm0-5.6a1.79,1.79,0,0,0-1.79,1.79,1.83,1.83,0,0,0,1.79,1.79,1.8,1.8,0,0,0,1.78-1.64v-.15A1.79,1.79,0,0,0,323.93,80.68Z"/><path class="cls-7" d="M369.85,82.47c0,.08,0,.16,0,.23a2.8,2.8,0,0,1-5.59,0c0-.07,0-.15,0-.23a2.81,2.81,0,0,1,5.61,0Z"/><path d="M367,86.28a3.84,3.84,0,0,1-3.8-3.49c0-.11,0-.21,0-.32a3.82,3.82,0,0,1,7.63,0c0,.11,0,.21,0,.31A3.84,3.84,0,0,1,367,86.28Zm0-5.6a1.79,1.79,0,0,0-1.78,1.79A1.82,1.82,0,0,0,367,84.26a1.8,1.8,0,0,0,1.79-1.64v-.15A1.79,1.79,0,0,0,367,80.68Z"/><path class="cls-7" d="M326.73,120.83c0,.08,0,.16,0,.24a2.81,2.81,0,0,1-5.59,0c0-.08,0-.16,0-.24a2.81,2.81,0,0,1,5.61,0Z"/><path d="M323.93,124.65a3.83,3.83,0,0,1-3.8-3.5c0-.11,0-.21,0-.32a3.82,3.82,0,0,1,7.63,0c0,.11,0,.22,0,.33A3.85,3.85,0,0,1,323.93,124.65Zm0-5.6a1.79,1.79,0,0,0-1.79,1.78,1.83,1.83,0,0,0,1.79,1.79,1.8,1.8,0,0,0,1.78-1.64v-.15A1.78,1.78,0,0,0,323.93,119.05Z"/><path class="cls-7" d="M369.85,120.83c0,.08,0,.16,0,.24a2.81,2.81,0,0,1-5.59,0c0-.08,0-.16,0-.24a2.81,2.81,0,0,1,5.61,0Z"/><path d="M367,124.65a3.85,3.85,0,0,1-3.8-3.5c0-.11,0-.21,0-.32a3.82,3.82,0,0,1,7.63,0c0,.11,0,.21,0,.32A3.85,3.85,0,0,1,367,124.65Zm0-5.6a1.78,1.78,0,0,0-1.78,1.78,1.82,1.82,0,0,0,1.78,1.79,1.8,1.8,0,0,0,1.79-1.64v-.15A1.79,1.79,0,0,0,367,119.05Z"/><path class="cls-8" d="M215.9,54.6c-.06,37.08-7.17,39-7.17,39h-9.41A12.28,12.28,0,0,1,187,81.37V28.64a12.3,12.3,0,0,1,12.3-12.29h9.41S216,16.35,215.9,54.6Z"/><path d="M208.87,94.65h-9.55A13.31,13.31,0,0,1,186,81.37V28.64a13.32,13.32,0,0,1,13.31-13.31h9.41a3,3,0,0,1,2.05,1.09c2.82,2.82,6.18,11.74,6.13,38.18h0c-.06,36.79-7.1,39.79-7.91,40Zm-.23-77.3h-9.32A11.29,11.29,0,0,0,188,28.64V81.37a11.28,11.28,0,0,0,11.28,11.26h9.2c.64-.43,6.32-5.11,6.37-38h0C215,19.07,208.7,17.36,208.64,17.35Z"/><path d="M309.24,100.5c0-.13,0-.83-.05-2l-.09-3.87H201.27l7.19-2s6.37-3.17,6.43-38.06c.06-35.53-6.19-37.24-6.25-37.25l.09-2h111.5A38.89,38.89,0,0,1,385.8,43.62v.81l-1.23,54.82h-2a35.65,35.65,0,0,0-71.28,1.16Zm-98.05-7.87h98.86a37.7,37.7,0,0,1,72.73-3.86l1-45.15a36.88,36.88,0,0,0-62.44-26.55l-.3.29H211.57C214.19,21,217,30.58,216.91,54.6,216.87,79.84,213.54,89.18,211.19,92.63Z"/><polygon points="310.25 94.65 310.08 94.65 310.08 92.63 310.25 94.65"/><rect x="295.7" y="16.35" width="8.79" height="77.3"/><g class="cls-9"><path class="cls-7" d="M346.4,119.05a17.8,17.8,0,0,1-17.64-16.24q-.06-.72-.06-1.47a17.71,17.71,0,1,1,35.42,0q0,.75-.06,1.47A17.82,17.82,0,0,1,346.4,119.05Zm0-33.4a15.71,15.71,0,0,0-15.68,15.69c0,.44,0,.88.06,1.3a15.68,15.68,0,0,0,31.26,0c0-.42,0-.86,0-1.3A15.71,15.71,0,0,0,346.4,85.65Z"/></g><path d="M346.4,120.19a19,19,0,0,1-18.78-17.29q-.06-.77-.06-1.56a18.85,18.85,0,1,1,37.7,0c0,.53,0,1-.07,1.56A19,19,0,0,1,346.4,120.19Zm0-35.68a16.85,16.85,0,0,0-16.82,16.83c0,.48,0,.94.06,1.4a16.83,16.83,0,0,0,33.54,0c0-.46.05-.92.05-1.4A16.85,16.85,0,0,0,346.4,84.51Z"/></g></g></g></svg>