<svg xmlns="http://www.w3.org/2000/svg" viewBox="0 0 151.98 117.32"><defs><style>.cls-1{fill:#fff;}.cls-2{fill:#010101;}</style></defs><g id="Layer_2" data-name="Layer 2"><g id="Слой_1" data-name="Слой 1"><path class="cls-1" d="M128.86,61.89c.15-1.35.26-2.71.32-4.09s.07-2.75,0-4.11l-10-1.85a46.41,46.41,0,0,0-.91-6.16l9-4.8c-.35-1.31-.76-2.61-1.21-3.91s-1-2.57-1.5-3.82l-9.93,2.18a44.49,44.49,0,0,0-3.32-5.63l6.5-8c-.82-1.06-1.68-2.11-2.59-3.13s-1.85-2-2.82-2.92l-8.35,5.94a41.84,41.84,0,0,0-4.89-3.7L102.26,8c-1.16-.66-2.35-1.29-3.56-1.88S96.25,5,95,4.46l-5.53,8.73a43,43,0,0,0-6.23-1.57L82.33,1.25C81,1.1,79.68,1,78.33.92s-2.68-.07-4,0l-1.8,10.25a42.63,42.63,0,0,0-6,.92L61.82,2.84c-1.28.36-2.56.77-3.83,1.24s-2.51,1-3.72,1.53l2.12,10.18a42.5,42.5,0,0,0-5.49,3.4l-7.81-6.67c-1,.84-2.06,1.73-3.06,2.66s-1.94,1.9-2.85,2.89L43,26.62a43.61,43.61,0,0,0-3.61,5L29.68,28.5c-.66,1.18-1.27,2.4-1.85,3.65s-1.1,2.51-1.57,3.78l8.52,5.65A45.07,45.07,0,0,0,33.25,48l-10.12.94c-.16,1.35-.27,2.72-.33,4.1s-.07,2.74,0,4.1l10,1.85a44.73,44.73,0,0,0,.9,6.17l-9,4.79c.35,1.31.76,2.62,1.21,3.92s1,2.57,1.5,3.81l9.93-2.17a45.15,45.15,0,0,0,3.33,5.62l-6.51,8c.82,1.07,1.69,2.11,2.6,3.13s1.85,2,2.81,2.92l8.35-5.93a44.3,44.3,0,0,0,4.9,3.7l-3.06,9.92c1.15.67,2.34,1.3,3.56,1.89s2.45,1.12,3.69,1.61l5.52-8.73a41.89,41.89,0,0,0,6.24,1.57l.91,10.37c1.32.16,2.66.27,4,.33s2.69.07,4,0l1.81-10.25a41.43,41.43,0,0,0,6-.92L90.17,108c1.28-.37,2.55-.78,3.82-1.25s2.51-1,3.72-1.53L95.59,95a43,43,0,0,0,5.49-3.41l7.81,6.67c1-.84,2.07-1.73,3.06-2.66s1.94-1.89,2.85-2.89L109,84.18a44.85,44.85,0,0,0,3.61-5l9.69,3.13c.65-1.18,1.27-2.39,1.84-3.64s1.1-2.51,1.57-3.78l-8.52-5.66a44.94,44.94,0,0,0,1.53-6.38Z"/><path class="cls-2" d="M76,110.8c-.8,0-1.6,0-2.39,0-1.34-.06-2.71-.17-4.06-.34l-.69-.08L68,99.92a42.1,42.1,0,0,1-5.09-1.28l-5.55,8.76-.64-.25c-1.27-.5-2.54-1.05-3.74-1.64s-2.43-1.23-3.62-1.91l-.6-.35,3.07-10a47.33,47.33,0,0,1-3.94-3l-8.38,6-.5-.48c-1-1-2-2-2.86-3s-1.79-2.08-2.63-3.18L33,89.08l6.53-8a46.2,46.2,0,0,1-2.71-4.6l-10,2.18L26.61,78c-.55-1.25-1.06-2.55-1.52-3.87s-.87-2.64-1.23-4l-.19-.68,9-4.82a47.77,47.77,0,0,1-.72-5L22,57.84l0-.7c0-1.39,0-2.8,0-4.17s.18-2.8.34-4.16l.08-.7,10.16-.94A44.53,44.53,0,0,1,33.78,42l-8.56-5.68.25-.66c.48-1.28,1-2.57,1.6-3.83s1.21-2.5,1.87-3.71l.34-.61L39,30.61a46.48,46.48,0,0,1,2.91-4L36.09,18l.47-.52c.93-1,1.9-2,2.9-2.93s2-1.84,3.11-2.7l.54-.43,7.83,6.69a44.53,44.53,0,0,1,4.49-2.78L53.3,5.1l.63-.28c1.25-.57,2.52-1.1,3.78-1.56S60.27,2.37,61.59,2l.66-.19L67,11.07a45.33,45.33,0,0,1,4.85-.74L73.61.05l.68,0c1.36,0,2.73,0,4.08,0s2.7.18,4.06.34l.68.09L84,10.88a46.2,46.2,0,0,1,5.09,1.28L94.67,3.4l.64.25c1.27.5,2.53,1.05,3.75,1.64s2.43,1.23,3.61,1.92l.6.34-3.07,10a45.12,45.12,0,0,1,3.94,3l8.38-6,.5.49c1,.94,2,1.94,2.86,3s1.8,2.09,2.64,3.18l.42.55-6.53,8a44.94,44.94,0,0,1,2.71,4.59l10-2.18.28.64c.55,1.27,1.06,2.58,1.52,3.87s.87,2.64,1.23,4l.18.68-9,4.81a48,48,0,0,1,.73,5L130,53l0,.71c0,1.39,0,2.79,0,4.17s-.17,2.77-.33,4.16l-.08.69-10.16,1a48.18,48.18,0,0,1-1.25,5.21l8.55,5.68-.25.66c-.48,1.3-1,2.59-1.59,3.84s-1.21,2.49-1.88,3.7l-.33.61L113,80.2a44.31,44.31,0,0,1-2.91,4l5.82,8.59-.47.51c-.93,1-1.91,2-2.9,2.93s-2,1.84-3.1,2.7l-.54.44L101,92.71a44,44,0,0,1-4.49,2.77l2.13,10.22-.62.28c-1.25.57-2.52,1.1-3.78,1.56s-2.57.89-3.88,1.26l-.67.19L85,99.73a40.94,40.94,0,0,1-4.84.74l-1.82,10.29-.68,0-1.68,0m-5.57-2c1.09.11,2.18.2,3.25.24s2.17.07,3.26,0l1.8-10.21.65,0a41.17,41.17,0,0,0,5.9-.91l.64-.14,4.66,9.19c1.06-.32,2.1-.66,3.1-1s2-.79,3-1.23L94.63,94.55l.58-.31a43.31,43.31,0,0,0,5.38-3.33l.54-.39,7.77,6.64c.85-.71,1.68-1.44,2.48-2.18s1.57-1.53,2.33-2.33l-5.77-8.52.42-.51a42,42,0,0,0,3.54-4.92l.35-.56,9.65,3.12c.53-1,1-2,1.48-3s.9-2,1.3-3.07l-8.49-5.63.21-.64a45.3,45.3,0,0,0,1.5-6.26L118,62l10.08-.94c.12-1.11.2-2.23.24-3.33s.07-2.22,0-3.34l-10-1.84,0-.67a44.61,44.61,0,0,0-.88-6l-.15-.65,9-4.78c-.31-1.07-.64-2.14-1-3.18s-.76-2.08-1.2-3.11l-9.89,2.16-.3-.59a43.64,43.64,0,0,0-3.25-5.52l-.38-.54,6.48-8c-.68-.87-1.4-1.71-2.13-2.53s-1.5-1.62-2.27-2.39L104,22.68l-.5-.43a43.17,43.17,0,0,0-4.8-3.63l-.55-.36,3-9.88c-1-.54-1.93-1.05-2.91-1.52s-2-.92-3-1.33l-5.5,8.7L89.22,14a41.09,41.09,0,0,0-6.11-1.54l-.65-.11L81.55,2c-1.09-.12-2.18-.2-3.26-.25S76.12,1.73,75,1.74L73.23,12l-.65.05a42.39,42.39,0,0,0-5.9.91l-.63.15-4.67-9.2c-1.05.32-2.09.67-3.1,1s-2,.78-3,1.22l2.11,10.14-.58.3a43,43,0,0,0-5.39,3.34l-.53.39-7.78-6.65c-.85.71-1.68,1.44-2.47,2.18S39,17.36,38.27,18.16l5.78,8.52-.43.5a43.77,43.77,0,0,0-3.54,4.92l-.35.56-9.65-3.12c-.52,1-1,2-1.48,3s-.9,2-1.3,3.06l8.49,5.64-.2.63a44.93,44.93,0,0,0-1.51,6.26l-.1.66-10.09.94c-.11,1.1-.19,2.22-.24,3.33s-.06,2.23,0,3.35l10,1.84,0,.66a45,45,0,0,0,.89,6l.14.65-9,4.78c.3,1.07.64,2.13,1,3.17s.77,2.1,1.2,3.11l9.9-2.16.29.6a44.31,44.31,0,0,0,3.26,5.51l.38.54-6.49,8c.69.88,1.41,1.72,2.13,2.53s1.49,1.62,2.28,2.4L48,88.12l.49.44a41.89,41.89,0,0,0,4.8,3.62l.55.36-3,9.88c1,.55,1.94,1,2.91,1.52s2,.92,3,1.33l5.5-8.69.62.21a40.88,40.88,0,0,0,6.12,1.53l.64.12Z"/><path class="cls-2" d="M76,93.6a36.38,36.38,0,0,1-14.52-3,37,37,0,0,1-11.85-8.19,38,38,0,0,1-8-12.14,39.2,39.2,0,0,1,0-29.74,38.07,38.07,0,0,1,8-12.14A37.15,37.15,0,0,1,61.47,20.2a36.64,36.64,0,0,1,29,0,37.15,37.15,0,0,1,11.85,8.19,38.1,38.1,0,0,1,8,12.14,39.2,39.2,0,0,1,0,29.74,38,38,0,0,1-8,12.14A37,37,0,0,1,90.51,90.6,36.34,36.34,0,0,1,76,93.6m0-74.66A34.68,34.68,0,0,0,62.13,21.8a35.47,35.47,0,0,0-11.31,7.82,36.38,36.38,0,0,0-7.63,11.59,37.36,37.36,0,0,0,0,28.38,36.31,36.31,0,0,0,7.63,11.6A35.6,35.6,0,0,0,62.13,89a34.9,34.9,0,0,0,27.72,0,35.6,35.6,0,0,0,11.31-7.81,36.15,36.15,0,0,0,7.63-11.6,37.36,37.36,0,0,0,0-28.38,36.21,36.21,0,0,0-7.63-11.59A35.47,35.47,0,0,0,89.85,21.8,34.68,34.68,0,0,0,76,18.94"/><path class="cls-2" d="M100,55.4C100,69,89.25,80,76,80S52,69,52,55.4,62.73,30.81,76,30.81s24,11,24,24.59"/><path class="cls-1" d="M75.12,83.76l-.71-3.21h0c.19,0,4.61-1.26,5.74-8.22C81.35,64.89,78.9,61.16,75.5,56A62.44,62.44,0,0,1,70,46.38c-2.48-5.64-2.8-10.31-1-13.88a10.89,10.89,0,0,1,7.22-5.37l.56,3.25h0a7.72,7.72,0,0,0-5,3.69c-1.33,2.62-1,6.31,1.07,11a59.54,59.54,0,0,0,5.2,9.13c3.52,5.35,6.57,10,5.14,18.71C81.8,82.1,75.4,83.7,75.12,83.76"/><polyline class="cls-1" points="151.18 52.51 133.5 43.62 133.5 55.24"/><path class="cls-2" d="M133.5,56.06a.81.81,0,0,1-.8-.82V43.62a.83.83,0,0,1,.38-.7.8.8,0,0,1,.78,0l17.67,8.9a.82.82,0,0,1,.37,1.1.81.81,0,0,1-1.08.38l-16.51-8.32v10.3a.82.82,0,0,1-.81.82"/><polyline class="cls-1" points="0.96 107.67 19.93 116.49 19.93 104.88"/><path class="cls-2" d="M19.93,117.32a.76.76,0,0,1-.33-.08l-19-8.82a.84.84,0,0,1-.4-1.09.8.8,0,0,1,1.07-.41l17.83,8.29V104.87a.82.82,0,0,1,.81-.82.81.81,0,0,1,.8.82v11.62a.87.87,0,0,1-.36.7.9.9,0,0,1-.44.13"/><polygon class="cls-1" points="150.39 85.52 0.81 107.33 1.4 74.82 150.99 53 150.39 85.52"/><path class="cls-2" d="M.81,108.16A.83.83,0,0,1,.27,108a.83.83,0,0,1-.27-.63L.6,74.8a.82.82,0,0,1,.69-.8L150.88,52.19a.76.76,0,0,1,.65.2.82.82,0,0,1,.26.63l-.59,32.51a.83.83,0,0,1-.69.81L.92,108.15H.81M2.19,75.53l-.56,30.85,148-21.58L150.17,54Z"/><path class="cls-2" d="M18.65,91.13a7.13,7.13,0,0,1-1.43,4.37,5.81,5.81,0,0,1-3.74,2,4,4,0,0,1-3.89-1.2,7.4,7.4,0,0,1-1.35-4.89v-2.7a9.11,9.11,0,0,1,1.4-5.3A5.54,5.54,0,0,1,13.52,81a4.11,4.11,0,0,1,3.71.89,6,6,0,0,1,1.44,4l-3,.46a4.19,4.19,0,0,0-.48-2.27,1.66,1.66,0,0,0-1.64-.39,2.16,2.16,0,0,0-1.72,1.17,7.39,7.39,0,0,0-.53,3.07v3a6.89,6.89,0,0,0,.5,3.2,1.53,1.53,0,0,0,1.71.63,2.24,2.24,0,0,0,1.64-.87,4.81,4.81,0,0,0,.51-2.33Z"/><path class="cls-2" d="M31,88a8.86,8.86,0,0,1-1.42,5.22,5.72,5.72,0,0,1-3.95,2.38,4.2,4.2,0,0,1-4-1.16,6.84,6.84,0,0,1-1.45-4.73V87a9.28,9.28,0,0,1,1.42-5.37,5.67,5.67,0,0,1,4-2.46,4.11,4.11,0,0,1,3.93,1.22A7.25,7.25,0,0,1,31,85.28Zm-3-2.23a6.31,6.31,0,0,0-.58-3.13,1.59,1.59,0,0,0-1.78-.78,2.3,2.3,0,0,0-1.78,1.28,7.37,7.37,0,0,0-.6,3.19V89.2a5.8,5.8,0,0,0,.59,3,1.68,1.68,0,0,0,1.81.72,2.31,2.31,0,0,0,1.75-1.24A6.73,6.73,0,0,0,28,88.58Z"/><polygon class="cls-2" points="40.92 86.55 36.22 87.26 36.22 93.79 33.2 94.25 33.2 78.24 41.48 76.98 41.48 79.67 36.22 80.47 36.22 84.58 40.92 83.86 40.92 86.55"/><polygon class="cls-2" points="50.92 85.02 46.23 85.74 46.23 92.27 43.21 92.73 43.21 76.72 51.48 75.46 51.48 78.15 46.23 78.95 46.23 83.05 50.92 82.34 50.92 85.02"/><polygon class="cls-2" points="60.93 83.1 56.23 83.82 56.23 88.06 61.79 87.22 61.79 89.9 53.21 91.21 53.21 75.19 61.77 73.89 61.77 76.58 56.23 77.43 56.23 81.21 60.93 80.5 60.93 83.1"/><polygon class="cls-2" points="71.25 81.53 66.55 82.25 66.55 86.49 72.11 85.64 72.11 88.33 63.53 89.64 63.53 73.62 72.09 72.32 72.09 75.01 66.55 75.86 66.55 79.64 71.25 78.92 71.25 81.53"/><polygon class="cls-2" points="84.3 86.47 81.28 86.93 76.87 77.1 76.87 87.6 73.85 88.06 73.85 72.05 76.87 71.59 81.29 81.43 81.29 70.92 84.3 70.46 84.3 86.47"/><path class="cls-2" d="M97.25,77.94a8.83,8.83,0,0,1-1.42,5.22,5.72,5.72,0,0,1-4,2.38,4.18,4.18,0,0,1-3.95-1.17,6.77,6.77,0,0,1-1.46-4.72V76.91a9.23,9.23,0,0,1,1.42-5.36,5.69,5.69,0,0,1,4-2.46,4.11,4.11,0,0,1,3.93,1.22,7.19,7.19,0,0,1,1.46,4.89Zm-3-2.23a6.44,6.44,0,0,0-.57-3.13,1.62,1.62,0,0,0-1.79-.79,2.33,2.33,0,0,0-1.78,1.29,7.24,7.24,0,0,0-.59,3.19v2.85a5.75,5.75,0,0,0,.58,3,1.67,1.67,0,0,0,1.81.73,2.34,2.34,0,0,0,1.76-1.25,6.8,6.8,0,0,0,.58-3.1Z"/><polygon class="cls-2" points="103.36 67.56 106.18 78.71 109 66.7 112.94 66.1 112.94 82.11 109.91 82.57 109.91 78.24 110.19 71.52 107.2 82.99 105.15 83.3 102.16 72.75 102.44 79.38 102.44 83.71 99.42 84.17 99.42 68.16 103.36 67.56"/><polygon class="cls-2" points="118.52 81.26 115.5 81.72 115.5 65.71 118.52 65.25 118.52 81.26"/><path class="cls-2" d="M131.19,74a7.22,7.22,0,0,1-1.44,4.37,5.73,5.73,0,0,1-3.74,2,4,4,0,0,1-3.88-1.19,7.45,7.45,0,0,1-1.35-4.9V71.56a9.08,9.08,0,0,1,1.39-5.3,5.57,5.57,0,0,1,3.88-2.38,4.1,4.1,0,0,1,3.72.9,6,6,0,0,1,1.44,4l-3,.46a4.13,4.13,0,0,0-.49-2.26,1.65,1.65,0,0,0-1.64-.4,2.19,2.19,0,0,0-1.71,1.17,7.26,7.26,0,0,0-.53,3.07v3a7,7,0,0,0,.49,3.2,1.56,1.56,0,0,0,1.71.63,2.22,2.22,0,0,0,1.64-.87,4.68,4.68,0,0,0,.52-2.33Z"/><path class="cls-2" d="M140.18,74.69l-4.11.62-.81,3.4-3.19.49,4.67-16.73,2.77-.42,4.7,15.3-3.23.49Zm-3.46-2.17,2.8-.43-1.4-5.49Z"/></g></g></svg>