<svg xmlns="http://www.w3.org/2000/svg" viewBox="0 0 70.67 70.67"><defs><style>.cls-1{fill:#6e9baa;}</style></defs><g id="Layer_2" data-name="Layer 2"><g id="Слой_1" data-name="Слой 1"><g id="_37708479-6FB1-4D51-9F38-CE0E506BCFBD" data-name="37708479-6FB1-4D51-9F38-CE0E506BCFBD"><rect class="cls-1" width="3.37" height="3.37"/><rect class="cls-1" y="3.37" width="3.37" height="3.37"/><rect class="cls-1" x="3.37" width="3.37" height="3.37"/><rect class="cls-1" y="6.73" width="3.37" height="3.37"/><rect class="cls-1" x="6.73" width="3.37" height="3.37"/><rect class="cls-1" y="10.1" width="3.37" height="3.37"/><rect class="cls-1" x="10.1" width="3.37" height="3.37"/><rect class="cls-1" y="13.46" width="3.37" height="3.37"/><rect class="cls-1" x="13.46" width="3.37" height="3.37"/><rect class="cls-1" y="16.83" width="3.37" height="3.37"/><rect class="cls-1" x="16.83" width="3.37" height="3.37"/><rect class="cls-1" y="20.19" width="3.37" height="3.37"/><rect class="cls-1" x="20.19" width="3.37" height="3.37"/><rect class="cls-1" x="3.37" y="20.19" width="3.37" height="3.37"/><rect class="cls-1" x="20.19" y="3.37" width="3.37" height="3.37"/><rect class="cls-1" x="6.73" y="20.19" width="3.37" height="3.37"/><rect class="cls-1" x="20.19" y="6.73" width="3.37" height="3.37"/><rect class="cls-1" x="10.1" y="20.19" width="3.37" height="3.37"/><rect class="cls-1" x="20.19" y="10.1" width="3.37" height="3.37"/><rect class="cls-1" x="13.46" y="20.19" width="3.37" height="3.37"/><rect class="cls-1" x="20.19" y="13.46" width="3.37" height="3.37"/><rect class="cls-1" x="16.83" y="20.19" width="3.37" height="3.37"/><rect class="cls-1" x="20.19" y="16.83" width="3.37" height="3.37"/><rect class="cls-1" x="20.19" y="20.19" width="3.37" height="3.37"/></g><g id="C361E679-F689-4131-9AA5-372E47F9AD68"><rect class="cls-1" y="26.92" width="3.37" height="3.37"/><rect class="cls-1" y="30.29" width="3.37" height="3.37"/><rect class="cls-1" x="3.37" y="26.92" width="3.37" height="3.37"/><rect class="cls-1" x="3.37" y="30.29" width="3.37" height="3.37"/><rect class="cls-1" x="6.73" y="26.92" width="3.37" height="3.37"/><rect class="cls-1" x="3.37" y="33.65" width="3.37" height="3.37"/><rect class="cls-1" x="10.1" y="26.92" width="3.37" height="3.37"/><rect class="cls-1" x="3.37" y="37.02" width="3.37" height="3.37"/><rect class="cls-1" y="37.02" width="3.37" height="3.37"/><rect class="cls-1" x="3.37" y="40.39" width="3.37" height="3.37"/><rect class="cls-1" x="6.73" y="40.39" width="3.37" height="3.37"/><rect class="cls-1" x="10.1" y="40.39" width="3.37" height="3.37"/><rect class="cls-1" x="10.1" y="37.02" width="3.37" height="3.37"/></g><g id="_661AD252-65AA-4E47-88BF-783C4D112C94" data-name="661AD252-65AA-4E47-88BF-783C4D112C94"><rect class="cls-1" y="47.12" width="3.37" height="3.37"/><rect class="cls-1" y="50.48" width="3.37" height="3.37"/><rect class="cls-1" x="3.37" y="47.12" width="3.37" height="3.37"/><rect class="cls-1" y="53.85" width="3.37" height="3.37"/><rect class="cls-1" x="6.73" y="47.12" width="3.37" height="3.37"/><rect class="cls-1" y="57.21" width="3.37" height="3.37"/><rect class="cls-1" x="10.1" y="47.12" width="3.37" height="3.37"/><rect class="cls-1" y="60.58" width="3.37" height="3.37"/><rect class="cls-1" x="13.46" y="47.12" width="3.37" height="3.37"/><rect class="cls-1" y="63.94" width="3.37" height="3.37"/><rect class="cls-1" x="16.83" y="47.12" width="3.37" height="3.37"/><rect class="cls-1" y="67.31" width="3.37" height="3.37"/><rect class="cls-1" x="20.19" y="47.12" width="3.37" height="3.37"/><rect class="cls-1" x="3.37" y="67.31" width="3.37" height="3.37"/><rect class="cls-1" x="20.19" y="50.48" width="3.37" height="3.37"/><rect class="cls-1" x="6.73" y="67.31" width="3.37" height="3.37"/><rect class="cls-1" x="20.19" y="53.85" width="3.37" height="3.37"/><rect class="cls-1" x="10.1" y="67.31" width="3.37" height="3.37"/><rect class="cls-1" x="20.19" y="57.21" width="3.37" height="3.37"/><rect class="cls-1" x="13.46" y="67.31" width="3.37" height="3.37"/><rect class="cls-1" x="20.19" y="60.58" width="3.37" height="3.37"/><rect class="cls-1" x="16.83" y="67.31" width="3.37" height="3.37"/><rect class="cls-1" x="20.19" y="63.94" width="3.37" height="3.37"/><rect class="cls-1" x="20.19" y="67.31" width="3.37" height="3.37"/></g><g id="_789C3A71-4E2A-47E5-AFAE-965D5EA4EE83" data-name="789C3A71-4E2A-47E5-AFAE-965D5EA4EE83"><rect class="cls-1" x="6.73" y="6.73" width="3.37" height="3.37"/><rect class="cls-1" x="6.73" y="10.1" width="3.37" height="3.37"/><rect class="cls-1" x="10.1" y="6.73" width="3.37" height="3.37"/><rect class="cls-1" x="6.73" y="13.46" width="3.37" height="3.37"/><rect class="cls-1" x="10.1" y="10.1" width="3.37" height="3.37"/><rect class="cls-1" x="13.46" y="6.73" width="3.37" height="3.37"/><rect class="cls-1" x="10.1" y="13.46" width="3.37" height="3.37"/><rect class="cls-1" x="13.46" y="10.1" width="3.37" height="3.37"/><rect class="cls-1" x="13.46" y="13.46" width="3.37" height="3.37"/></g><g id="_125735F2-F84C-4569-989D-5A12D6B485F2" data-name="125735F2-F84C-4569-989D-5A12D6B485F2"><rect class="cls-1" x="6.73" y="53.85" width="3.37" height="3.37"/><rect class="cls-1" x="6.73" y="57.21" width="3.37" height="3.37"/><rect class="cls-1" x="10.1" y="53.85" width="3.37" height="3.37"/><rect class="cls-1" x="6.73" y="60.58" width="3.37" height="3.37"/><rect class="cls-1" x="10.1" y="57.21" width="3.37" height="3.37"/><rect class="cls-1" x="13.46" y="53.85" width="3.37" height="3.37"/><rect class="cls-1" x="10.1" y="60.58" width="3.37" height="3.37"/><rect class="cls-1" x="13.46" y="57.21" width="3.37" height="3.37"/><rect class="cls-1" x="13.46" y="60.58" width="3.37" height="3.37"/></g><g id="_2EBFEAA6-CF71-4462-92EF-4DBB4DC2955F" data-name="2EBFEAA6-CF71-4462-92EF-4DBB4DC2955F"><rect class="cls-1" x="13.46" y="33.65" width="3.37" height="3.37"/></g><g id="_9F9AF6E8-740F-4DEE-8D66-AAE40582BCDA" data-name="9F9AF6E8-740F-4DEE-8D66-AAE40582BCDA"><rect class="cls-1" x="16.83" y="37.02" width="3.37" height="3.37"/><rect class="cls-1" x="16.83" y="40.39" width="3.37" height="3.37"/><rect class="cls-1" x="20.19" y="40.39" width="3.37" height="3.37"/><rect class="cls-1" x="23.56" y="40.39" width="3.37" height="3.37"/><rect class="cls-1" x="23.56" y="37.02" width="3.37" height="3.37"/><rect class="cls-1" x="26.92" y="40.39" width="3.37" height="3.37"/><rect class="cls-1" x="26.92" y="43.75" width="3.37" height="3.37"/><rect class="cls-1" x="30.29" y="43.75" width="3.37" height="3.37"/><rect class="cls-1" x="30.29" y="47.12" width="3.37" height="3.37"/></g><g id="D36F5F8B-E3E1-4347-B28A-69DCE42ADF7A"><rect class="cls-1" x="20.19" y="26.92" width="3.37" height="3.37"/></g><g id="D15DD87D-305B-463E-8E8E-617EB95A1A98"><rect class="cls-1" x="20.19" y="33.65" width="3.37" height="3.37"/></g><g id="_90C00CC1-796E-4A05-9F22-33AF556A51BA" data-name="90C00CC1-796E-4A05-9F22-33AF556A51BA"><rect class="cls-1" x="23.56" y="30.29" width="3.37" height="3.37"/></g><g id="_2A4339DD-1FF4-44F8-BB5D-DC285FADFDD2" data-name="2A4339DD-1FF4-44F8-BB5D-DC285FADFDD2"><rect class="cls-1" x="26.92" width="3.37" height="3.37"/></g><g id="_37A1DAB4-D341-4007-BA7E-AC655C7FF411" data-name="37A1DAB4-D341-4007-BA7E-AC655C7FF411"><rect class="cls-1" x="26.92" y="6.73" width="3.37" height="3.37"/><rect class="cls-1" x="26.92" y="10.1" width="3.37" height="3.37"/><rect class="cls-1" x="30.29" y="6.73" width="3.37" height="3.37"/><rect class="cls-1" x="26.92" y="13.46" width="3.37" height="3.37"/><rect class="cls-1" x="30.29" y="10.1" width="3.37" height="3.37"/></g><g id="_0AD123EE-5755-4231-B110-52C18B2B1001" data-name="0AD123EE-5755-4231-B110-52C18B2B1001"><rect class="cls-1" x="26.92" y="20.19" width="3.37" height="3.37"/></g><g id="FEA685AF-82BA-4057-980D-AD8E52CE9BEA"><rect class="cls-1" x="26.92" y="26.92" width="3.37" height="3.37"/><rect class="cls-1" x="30.29" y="26.92" width="3.37" height="3.37"/><rect class="cls-1" x="30.29" y="30.29" width="3.37" height="3.37"/><rect class="cls-1" x="33.65" y="26.92" width="3.37" height="3.37"/><rect class="cls-1" x="30.29" y="33.65" width="3.37" height="3.37"/></g><g id="E763ED70-B23D-4735-AD74-1103126BA5BE"><rect class="cls-1" x="26.92" y="57.21" width="3.37" height="3.37"/><rect class="cls-1" x="26.92" y="60.58" width="3.37" height="3.37"/><rect class="cls-1" x="26.92" y="63.94" width="3.37" height="3.37"/><rect class="cls-1" x="26.92" y="67.31" width="3.37" height="3.37"/><rect class="cls-1" x="30.29" y="63.94" width="3.37" height="3.37"/><rect class="cls-1" x="30.29" y="67.31" width="3.37" height="3.37"/></g><g id="E3128A53-BF94-4916-AD0E-C19C1D122711"><rect class="cls-1" x="30.29" y="16.83" width="3.37" height="3.37"/><rect class="cls-1" x="33.65" y="16.83" width="3.37" height="3.37"/><rect class="cls-1" x="33.65" y="20.19" width="3.37" height="3.37"/><rect class="cls-1" x="37.02" y="16.83" width="3.37" height="3.37"/></g><g id="C1726725-66BC-4B0F-9508-3340BB9ED878"><rect class="cls-1" x="30.29" y="53.85" width="3.37" height="3.37"/><rect class="cls-1" x="33.65" y="53.85" width="3.37" height="3.37"/><rect class="cls-1" x="33.65" y="50.48" width="3.37" height="3.37"/><rect class="cls-1" x="33.65" y="57.21" width="3.37" height="3.37"/><rect class="cls-1" x="37.02" y="53.85" width="3.37" height="3.37"/><rect class="cls-1" x="37.02" y="50.48" width="3.37" height="3.37"/><rect class="cls-1" x="33.65" y="60.58" width="3.37" height="3.37"/><rect class="cls-1" x="40.39" y="50.48" width="3.37" height="3.37"/><rect class="cls-1" x="37.02" y="60.58" width="3.37" height="3.37"/><rect class="cls-1" x="43.75" y="50.48" width="3.37" height="3.37"/><rect class="cls-1" x="40.39" y="60.58" width="3.37" height="3.37"/><rect class="cls-1" x="40.39" y="57.21" width="3.37" height="3.37"/><rect class="cls-1" x="40.39" y="63.94" width="3.37" height="3.37"/><rect class="cls-1" x="43.75" y="60.58" width="3.37" height="3.37"/><rect class="cls-1" x="43.75" y="57.21" width="3.37" height="3.37"/><rect class="cls-1" x="43.75" y="63.94" width="3.37" height="3.37"/><rect class="cls-1" x="47.12" y="57.21" width="3.37" height="3.37"/><rect class="cls-1" x="43.75" y="67.31" width="3.37" height="3.37"/><rect class="cls-1" x="47.12" y="63.94" width="3.37" height="3.37"/><rect class="cls-1" x="47.12" y="67.31" width="3.37" height="3.37"/><rect class="cls-1" x="50.48" y="63.94" width="3.37" height="3.37"/><rect class="cls-1" x="50.48" y="67.31" width="3.37" height="3.37"/><rect class="cls-1" x="53.85" y="67.31" width="3.37" height="3.37"/></g><g id="_922ADD85-CF95-4C27-8676-70CC1EB029BC" data-name="922ADD85-CF95-4C27-8676-70CC1EB029BC"><rect class="cls-1" x="33.65" width="3.37" height="3.37"/><rect class="cls-1" x="33.65" y="3.37" width="3.37" height="3.37"/><rect class="cls-1" x="37.02" y="3.37" width="3.37" height="3.37"/><rect class="cls-1" x="37.02" y="6.73" width="3.37" height="3.37"/><rect class="cls-1" x="37.02" y="10.1" width="3.37" height="3.37"/><rect class="cls-1" x="40.39" y="10.1" width="3.37" height="3.37"/><rect class="cls-1" x="40.39" y="13.46" width="3.37" height="3.37"/></g><g id="F9B1D029-BCF3-48E7-A430-3C0F1BE56C58"><rect class="cls-1" x="33.65" y="37.02" width="3.37" height="3.37"/></g><g id="_46ED47CD-8BD1-47F2-B1EE-82704EA0282F" data-name="46ED47CD-8BD1-47F2-B1EE-82704EA0282F"><rect class="cls-1" x="37.02" y="23.56" width="3.37" height="3.37"/><rect class="cls-1" x="40.39" y="23.56" width="3.37" height="3.37"/><rect class="cls-1" x="40.39" y="20.19" width="3.37" height="3.37"/></g><g id="D2073961-AD9E-47AF-8468-034BE102E040"><rect class="cls-1" x="37.02" y="30.29" width="3.37" height="3.37"/></g><g id="_5CF2EE20-E96A-4C05-8F56-74C7AD7360E4" data-name="5CF2EE20-E96A-4C05-8F56-74C7AD7360E4"><rect class="cls-1" x="37.02" y="40.39" width="3.37" height="3.37"/><rect class="cls-1" x="37.02" y="43.75" width="3.37" height="3.37"/><rect class="cls-1" x="40.39" y="43.75" width="3.37" height="3.37"/><rect class="cls-1" x="43.75" y="43.75" width="3.37" height="3.37"/></g><g id="_0A6BFC1A-FF22-4D41-A475-968B468A3A95" data-name="0A6BFC1A-FF22-4D41-A475-968B468A3A95"><rect class="cls-1" x="40.39" width="3.37" height="3.37"/></g><g id="B74F66FB-2DE1-4A62-9F32-848EAB82F1B8"><rect class="cls-1" x="40.39" y="37.02" width="3.37" height="3.37"/></g><g id="C418F60A-2631-41ED-A965-E5B12E04355A"><rect class="cls-1" x="43.75" y="26.92" width="3.37" height="3.37"/><rect class="cls-1" x="43.75" y="30.29" width="3.37" height="3.37"/><rect class="cls-1" x="43.75" y="33.65" width="3.37" height="3.37"/><rect class="cls-1" x="47.12" y="30.29" width="3.37" height="3.37"/><rect class="cls-1" x="50.48" y="30.29" width="3.37" height="3.37"/><rect class="cls-1" x="50.48" y="33.65" width="3.37" height="3.37"/><rect class="cls-1" x="53.85" y="30.29" width="3.37" height="3.37"/><rect class="cls-1" x="53.85" y="26.92" width="3.37" height="3.37"/><rect class="cls-1" x="57.21" y="30.29" width="3.37" height="3.37"/><rect class="cls-1" x="57.21" y="26.92" width="3.37" height="3.37"/><rect class="cls-1" x="60.58" y="26.92" width="3.37" height="3.37"/></g><g id="_54201CAE-1161-4DA9-A464-66D0AB657B7C" data-name="54201CAE-1161-4DA9-A464-66D0AB657B7C"><rect class="cls-1" x="47.12" width="3.37" height="3.37"/><rect class="cls-1" x="47.12" y="3.37" width="3.37" height="3.37"/><rect class="cls-1" x="50.48" width="3.37" height="3.37"/><rect class="cls-1" x="47.12" y="6.73" width="3.37" height="3.37"/><rect class="cls-1" x="53.85" width="3.37" height="3.37"/><rect class="cls-1" x="47.12" y="10.1" width="3.37" height="3.37"/><rect class="cls-1" x="57.21" width="3.37" height="3.37"/><rect class="cls-1" x="47.12" y="13.46" width="3.37" height="3.37"/><rect class="cls-1" x="60.58" width="3.37" height="3.37"/><rect class="cls-1" x="47.12" y="16.83" width="3.37" height="3.37"/><rect class="cls-1" x="63.94" width="3.37" height="3.37"/><rect class="cls-1" x="47.12" y="20.19" width="3.37" height="3.37"/><rect class="cls-1" x="67.31" width="3.37" height="3.37"/><rect class="cls-1" x="50.48" y="20.19" width="3.37" height="3.37"/><rect class="cls-1" x="67.31" y="3.37" width="3.37" height="3.37"/><rect class="cls-1" x="53.85" y="20.19" width="3.37" height="3.37"/><rect class="cls-1" x="67.31" y="6.73" width="3.37" height="3.37"/><rect class="cls-1" x="57.21" y="20.19" width="3.37" height="3.37"/><rect class="cls-1" x="67.31" y="10.1" width="3.37" height="3.37"/><rect class="cls-1" x="60.58" y="20.19" width="3.37" height="3.37"/><rect class="cls-1" x="67.31" y="13.46" width="3.37" height="3.37"/><rect class="cls-1" x="63.94" y="20.19" width="3.37" height="3.37"/><rect class="cls-1" x="67.31" y="16.83" width="3.37" height="3.37"/><rect class="cls-1" x="67.31" y="20.19" width="3.37" height="3.37"/></g><g id="C3B25297-E192-4E73-B249-4662A0129403"><rect class="cls-1" x="47.12" y="40.39" width="3.37" height="3.37"/></g><g id="_47743239-3F8E-4FB9-8F9A-88559E504CB5" data-name="47743239-3F8E-4FB9-8F9A-88559E504CB5"><rect class="cls-1" x="50.48" y="47.12" width="3.37" height="3.37"/><rect class="cls-1" x="53.85" y="47.12" width="3.37" height="3.37"/><rect class="cls-1" x="53.85" y="43.75" width="3.37" height="3.37"/><rect class="cls-1" x="53.85" y="40.39" width="3.37" height="3.37"/></g><g id="_3C518760-EF6E-4CAD-BE0C-7A0E809E6723" data-name="3C518760-EF6E-4CAD-BE0C-7A0E809E6723"><rect class="cls-1" x="50.48" y="53.85" width="3.37" height="3.37"/></g><g id="FE978AE5-5474-4129-832A-F802368EE6DB"><rect class="cls-1" x="53.85" y="6.73" width="3.37" height="3.37"/><rect class="cls-1" x="53.85" y="10.1" width="3.37" height="3.37"/><rect class="cls-1" x="57.21" y="6.73" width="3.37" height="3.37"/><rect class="cls-1" x="53.85" y="13.46" width="3.37" height="3.37"/><rect class="cls-1" x="57.21" y="10.1" width="3.37" height="3.37"/><rect class="cls-1" x="60.58" y="6.73" width="3.37" height="3.37"/><rect class="cls-1" x="57.21" y="13.46" width="3.37" height="3.37"/><rect class="cls-1" x="60.58" y="10.1" width="3.37" height="3.37"/><rect class="cls-1" x="60.58" y="13.46" width="3.37" height="3.37"/></g><g id="_2666B012-AF8E-47AC-AE6C-CA89CDE497F7" data-name="2666B012-AF8E-47AC-AE6C-CA89CDE497F7"><rect class="cls-1" x="57.21" y="37.02" width="3.37" height="3.37"/></g><g id="_6FA2C2F7-52E3-46EC-9587-CA9174747524" data-name="6FA2C2F7-52E3-46EC-9587-CA9174747524"><rect class="cls-1" x="57.21" y="50.48" width="3.37" height="3.37"/><rect class="cls-1" x="57.21" y="53.85" width="3.37" height="3.37"/><rect class="cls-1" x="60.58" y="50.48" width="3.37" height="3.37"/><rect class="cls-1" x="57.21" y="57.21" width="3.37" height="3.37"/><rect class="cls-1" x="60.58" y="53.85" width="3.37" height="3.37"/><rect class="cls-1" x="60.58" y="47.12" width="3.37" height="3.37"/><rect class="cls-1" x="63.94" y="50.48" width="3.37" height="3.37"/><rect class="cls-1" x="63.94" y="53.85" width="3.37" height="3.37"/><rect class="cls-1" x="67.31" y="50.48" width="3.37" height="3.37"/><rect class="cls-1" x="63.94" y="57.21" width="3.37" height="3.37"/></g><g id="_9318E1F9-8307-42C3-9249-798CE51B4AEA" data-name="9318E1F9-8307-42C3-9249-798CE51B4AEA"><rect class="cls-1" x="60.58" y="33.65" width="3.37" height="3.37"/><rect class="cls-1" x="63.94" y="33.65" width="3.37" height="3.37"/><rect class="cls-1" x="67.31" y="33.65" width="3.37" height="3.37"/><rect class="cls-1" x="67.31" y="30.29" width="3.37" height="3.37"/><rect class="cls-1" x="67.31" y="37.02" width="3.37" height="3.37"/><rect class="cls-1" x="67.31" y="26.92" width="3.37" height="3.37"/></g><g id="DECCB834-939D-4718-BF98-E67158B1FFF8"><rect class="cls-1" x="60.58" y="67.31" width="3.37" height="3.37"/></g><g id="A366B7E8-028F-4311-9D6B-E7B1CF17262E"><rect class="cls-1" x="67.31" y="63.94" width="3.37" height="3.37"/></g></g></g></svg>