<svg xmlns="http://www.w3.org/2000/svg" viewBox="0 0 1913.03 898.63"><defs><style>.cls-1,.cls-10,.cls-11,.cls-12,.cls-13,.cls-14,.cls-15,.cls-16,.cls-17,.cls-18,.cls-19,.cls-2,.cls-20,.cls-21,.cls-22,.cls-23,.cls-24,.cls-25,.cls-26,.cls-27,.cls-28,.cls-29,.cls-3,.cls-30,.cls-31,.cls-32,.cls-33,.cls-34,.cls-35,.cls-36,.cls-37,.cls-38,.cls-39,.cls-4,.cls-40,.cls-41,.cls-42,.cls-43,.cls-44,.cls-45,.cls-46,.cls-47,.cls-48,.cls-49,.cls-5,.cls-50,.cls-51,.cls-52,.cls-53,.cls-54,.cls-55,.cls-56,.cls-57,.cls-58,.cls-59,.cls-6,.cls-60,.cls-61,.cls-62,.cls-64,.cls-65,.cls-7,.cls-8,.cls-9{fill:none;}.cls-1{stroke:#6e9baa;stroke-width:8px;}.cls-1,.cls-10,.cls-11,.cls-12,.cls-13,.cls-14,.cls-15,.cls-16,.cls-17,.cls-18,.cls-19,.cls-2,.cls-20,.cls-21,.cls-22,.cls-23,.cls-24,.cls-25,.cls-26,.cls-27,.cls-28,.cls-29,.cls-30,.cls-31,.cls-32,.cls-33,.cls-34,.cls-35,.cls-36,.cls-37,.cls-38,.cls-39,.cls-40,.cls-41,.cls-42,.cls-43,.cls-44,.cls-45,.cls-46,.cls-47,.cls-48,.cls-49,.cls-5,.cls-50,.cls-51,.cls-52,.cls-53,.cls-54,.cls-55,.cls-56,.cls-57,.cls-58,.cls-59,.cls-6,.cls-60,.cls-61,.cls-62,.cls-64,.cls-65,.cls-8,.cls-9{stroke-miterlimit:10;}.cls-2{stroke:#709cab;stroke-width:7.89px;}.cls-3{stroke:#719dac;stroke-miterlimit:10;stroke-width:7.77px;}.cls-4{stroke:#739ead;stroke-width:7.66px;}.cls-4,.cls-7{stroke-miterlimit:10;}.cls-5{stroke:#75a0ae;stroke-width:7.54px;}.cls-6{stroke:#77a1af;stroke-width:7.43px;}.cls-7{stroke:#78a2b0;stroke-width:7.31px;}.cls-8{stroke:#7aa3b0;stroke-width:7.2px;}.cls-9{stroke:#7ca4b1;stroke-width:7.08px;}.cls-10{stroke:#7da5b2;stroke-width:6.97px;}.cls-11{stroke:#7fa6b3;stroke-width:6.85px;}.cls-12{stroke:#81a8b4;stroke-width:6.74px;}.cls-13{stroke:#83a9b5;stroke-width:6.62px;}.cls-14{stroke:#84aab6;stroke-width:6.51px;}.cls-15{stroke:#86abb7;stroke-width:6.39px;}.cls-16{stroke:#88acb8;stroke-width:6.28px;}.cls-17{stroke:#8aadb9;stroke-width:6.16px;}.cls-18{stroke:#8bafba;stroke-width:6.05px;}.cls-19{stroke:#8db0bb;stroke-width:5.93px;}.cls-20{stroke:#8fb1bb;stroke-width:5.82px;}.cls-21{stroke:#90b2bc;stroke-width:5.7px;}.cls-22{stroke:#92b3bd;stroke-width:5.59px;}.cls-23{stroke:#94b4be;stroke-width:5.48px;}.cls-24{stroke:#96b5bf;stroke-width:5.36px;}.cls-25{stroke:#97b7c0;stroke-width:5.25px;}.cls-26{stroke:#99b8c1;stroke-width:5.13px;}.cls-27{stroke:#9bb9c2;stroke-width:5.02px;}.cls-28{stroke:#9cbac3;stroke-width:4.9px;}.cls-29{stroke:#9ebbc4;stroke-width:4.79px;}.cls-30{stroke:#a0bcc5;stroke-width:4.67px;}.cls-31{stroke:#a2bdc6;stroke-width:4.56px;}.cls-32{stroke:#a3bfc6;stroke-width:4.44px;}.cls-33{stroke:#a5c0c7;stroke-width:4.33px;}.cls-34{stroke:#a7c1c8;stroke-width:4.21px;}.cls-35{stroke:#a9c2c9;stroke-width:4.1px;}.cls-36{stroke:#aac3ca;stroke-width:3.98px;}.cls-37{stroke:#acc4cb;stroke-width:3.87px;}.cls-38{stroke:#aec5cc;stroke-width:3.75px;}.cls-39{stroke:#afc7cd;stroke-width:3.64px;}.cls-40{stroke:#b1c8ce;stroke-width:3.52px;}.cls-41{stroke:#b3c9cf;stroke-width:3.41px;}.cls-42{stroke:#b5cad0;stroke-width:3.3px;}.cls-43{stroke:#b6cbd1;stroke-width:3.18px;}.cls-44{stroke:#b8ccd1;stroke-width:3.07px;}.cls-45{stroke:#bacdd2;stroke-width:2.95px;}.cls-46{stroke:#bbcfd3;stroke-width:2.84px;}.cls-47{stroke:#bdd0d4;stroke-width:2.72px;}.cls-48{stroke:#bfd1d5;stroke-width:2.61px;}.cls-49{stroke:#c1d2d6;stroke-width:2.49px;}.cls-50{stroke:#c2d3d7;stroke-width:2.38px;}.cls-51{stroke:#c4d4d8;stroke-width:2.26px;}.cls-52{stroke:#c6d6d9;stroke-width:2.15px;}.cls-53{stroke:#c8d7da;stroke-width:2.03px;}.cls-54{stroke:#c9d8db;stroke-width:1.92px;}.cls-55{stroke:#cbd9dc;stroke-width:1.8px;}.cls-56{stroke:#cddadc;stroke-width:1.69px;}.cls-57{stroke:#cedbdd;stroke-width:1.57px;}.cls-58{stroke:#d0dcde;stroke-width:1.46px;}.cls-59{stroke:#d2dedf;stroke-width:1.34px;}.cls-60{stroke:#d4dfe0;stroke-width:1.23px;}.cls-61{stroke:#d5e0e1;stroke-width:1.11px;}.cls-62{stroke:#d7e1e2;}.cls-63{fill:#fff;}.cls-64,.cls-65{stroke:#fff;}.cls-64{stroke-width:6px;}.cls-65{stroke-width:4px;}</style></defs><g id="Layer_2" data-name="Layer 2"><g id="Слой_1" data-name="Слой 1"><line class="cls-1" x1="1912.76" y1="894.63" y2="894.63"/><line class="cls-2" x1="1912.76" y1="882.52" x2="0.08" y2="882.52"/><line class="cls-3" x1="1912.77" y1="870.41" x2="0.15" y2="870.41"/><line class="cls-4" x1="1912.77" y1="858.3" x2="0.23" y2="858.3"/><line class="cls-5" x1="1912.78" y1="846.2" x2="0.31" y2="846.2"/><line class="cls-6" x1="1912.78" y1="834.09" x2="0.38" y2="834.09"/><line class="cls-7" x1="1912.79" y1="821.98" x2="0.46" y2="821.98"/><line class="cls-8" x1="1912.79" y1="809.87" x2="0.54" y2="809.87"/><line class="cls-9" x1="1912.8" y1="797.76" x2="0.61" y2="797.76"/><line class="cls-10" x1="1912.8" y1="785.66" x2="0.69" y2="785.66"/><line class="cls-11" x1="1912.8" y1="773.55" x2="0.77" y2="773.55"/><line class="cls-12" x1="1912.81" y1="761.44" x2="0.84" y2="761.44"/><line class="cls-13" x1="1912.81" y1="749.33" x2="0.92" y2="749.33"/><line class="cls-14" x1="1912.82" y1="737.22" x2="1" y2="737.22"/><line class="cls-15" x1="1912.82" y1="725.12" x2="1.07" y2="725.12"/><line class="cls-16" x1="1912.83" y1="713.01" x2="1.15" y2="713.01"/><line class="cls-17" x1="1912.83" y1="700.9" x2="1.23" y2="700.9"/><line class="cls-18" x1="1912.84" y1="688.79" x2="1.3" y2="688.79"/><line class="cls-19" x1="1912.84" y1="676.68" x2="1.38" y2="676.68"/><line class="cls-20" x1="1912.84" y1="664.58" x2="1.46" y2="664.58"/><line class="cls-21" x1="1912.85" y1="652.47" x2="1.53" y2="652.47"/><line class="cls-22" x1="1912.85" y1="640.36" x2="1.61" y2="640.36"/><line class="cls-23" x1="1912.86" y1="628.25" x2="1.69" y2="628.25"/><line class="cls-24" x1="1912.86" y1="616.14" x2="1.76" y2="616.14"/><line class="cls-25" x1="1912.87" y1="604.04" x2="1.84" y2="604.04"/><line class="cls-26" x1="1912.87" y1="591.93" x2="1.92" y2="591.93"/><line class="cls-27" x1="1912.88" y1="579.82" x2="1.99" y2="579.82"/><line class="cls-28" x1="1912.88" y1="567.71" x2="2.07" y2="567.71"/><line class="cls-29" x1="1912.88" y1="555.6" x2="2.15" y2="555.6"/><line class="cls-30" x1="1912.89" y1="543.5" x2="2.22" y2="543.5"/><line class="cls-31" x1="1912.89" y1="531.39" x2="2.3" y2="531.39"/><line class="cls-32" x1="1912.9" y1="519.28" x2="2.38" y2="519.28"/><line class="cls-33" x1="1912.9" y1="507.17" x2="2.45" y2="507.17"/><line class="cls-34" x1="1912.91" y1="495.06" x2="2.53" y2="495.06"/><line class="cls-35" x1="1912.91" y1="482.96" x2="2.61" y2="482.96"/><line class="cls-36" x1="1912.92" y1="470.85" x2="2.68" y2="470.85"/><line class="cls-37" x1="1912.92" y1="458.74" x2="2.76" y2="458.74"/><line class="cls-38" x1="1912.92" y1="446.63" x2="2.84" y2="446.63"/><line class="cls-39" x1="1912.93" y1="434.52" x2="2.91" y2="434.52"/><line class="cls-40" x1="1912.93" y1="422.42" x2="2.99" y2="422.42"/><line class="cls-41" x1="1912.94" y1="410.31" x2="3.07" y2="410.31"/><line class="cls-42" x1="1912.94" y1="398.2" x2="3.14" y2="398.2"/><line class="cls-43" x1="1912.95" y1="386.09" x2="3.22" y2="386.09"/><line class="cls-44" x1="1912.95" y1="373.98" x2="3.3" y2="373.98"/><line class="cls-45" x1="1912.96" y1="361.88" x2="3.37" y2="361.88"/><line class="cls-46" x1="1912.96" y1="349.77" x2="3.45" y2="349.77"/><line class="cls-47" x1="1912.96" y1="337.66" x2="3.53" y2="337.66"/><line class="cls-48" x1="1912.97" y1="325.55" x2="3.6" y2="325.55"/><line class="cls-49" x1="1912.97" y1="313.44" x2="3.68" y2="313.44"/><line class="cls-50" x1="1912.98" y1="301.34" x2="3.76" y2="301.34"/><line class="cls-51" x1="1912.98" y1="289.23" x2="3.84" y2="289.23"/><line class="cls-52" x1="1912.99" y1="277.12" x2="3.91" y2="277.12"/><line class="cls-53" x1="1912.99" y1="265.01" x2="3.99" y2="265.01"/><line class="cls-54" x1="1912.99" y1="252.9" x2="4.07" y2="252.9"/><line class="cls-55" x1="1913" y1="240.8" x2="4.14" y2="240.8"/><line class="cls-56" x1="1913" y1="228.69" x2="4.22" y2="228.69"/><line class="cls-57" x1="1913.01" y1="216.58" x2="4.3" y2="216.58"/><line class="cls-58" x1="1913.01" y1="204.47" x2="4.37" y2="204.47"/><line class="cls-59" x1="1913.02" y1="192.36" x2="4.45" y2="192.36"/><line class="cls-60" x1="1913.02" y1="180.26" x2="4.53" y2="180.26"/><line class="cls-61" x1="1913.03" y1="168.15" x2="4.6" y2="168.15"/><line class="cls-62" x1="1913.03" y1="156.04" x2="4.68" y2="156.04"/><path class="cls-63" d="M49.09,95.25c-.41-.09-.82-.19-1.23-.31a14.42,14.42,0,0,1-9-7.7A18,18,0,0,1,38,85c-1.51-4.64-.8-9.31,2.09-12.74a12.21,12.21,0,0,1,12.7-3.84,9.92,9.92,0,0,1,6.1,5.19,12.45,12.45,0,0,1,.68,1.67,9.06,9.06,0,0,1-1.45,8.81,8.56,8.56,0,0,1-8.91,2.72,7.23,7.23,0,0,1-5-8.94,2,2,0,0,1,1.33-1.38,2.06,2.06,0,0,1,1.18,0,2,2,0,0,1,1.37,1.33,2,2,0,0,1,0,1.18,3.11,3.11,0,0,0,0,1.84,3.17,3.17,0,0,0,2.15,2.09,4.53,4.53,0,0,0,2.63,0A4.44,4.44,0,0,0,55,81.46a5,5,0,0,0,.71-4.94,10,10,0,0,0-.47-1.15,5.86,5.86,0,0,0-3.59-3.08,8.19,8.19,0,0,0-4.78.08,8.08,8.08,0,0,0-3.69,2.48c-2,2.33-2.44,5.41-1.35,8.82a16.72,16.72,0,0,0,.73,1.81A10.25,10.25,0,0,0,49,91c.32.09.63.17,1,.23A11.72,11.72,0,0,0,56,91,12.49,12.49,0,0,0,61,87.9a13.2,13.2,0,0,0,3.64-12.07l-.11-.53h0a20,20,0,0,0-.71-2.75,40.25,40.25,0,0,0-4.53-9.25h0a30.67,30.67,0,0,1-3.72-7.54c-2.85-8.76.17-15,.67-15.92.09-.2.18-.4.28-.6a9.76,9.76,0,0,1,5-4.6l.72-.27a9.83,9.83,0,0,1,6.82.28A8.33,8.33,0,0,1,73.57,45.4a7,7,0,0,1-4.17,3.89h0l-.14.05a6.55,6.55,0,0,1-7-1.52,5.9,5.9,0,0,1-1.35-2.28,6,6,0,0,1,.16-4.16h0a2,2,0,1,1,3.75,1.55,2,2,0,0,0,.39,2.1,2.09,2.09,0,0,0,1.14.61A3.46,3.46,0,0,0,68,45.48l.09,0h0a2.88,2.88,0,0,0,1.73-1.57,4.23,4.23,0,0,0-2.32-5.48,5.77,5.77,0,0,0-4-.17l-.42.16a5.7,5.7,0,0,0-3.13,3.12v0l-.08.16v0h0c-.11.2-2.85,5.25-.41,12.78a26.58,26.58,0,0,0,3.24,6.55h0a44,44,0,0,1,5,10.19,24.13,24.13,0,0,1,.84,3.26l.1.5a17.24,17.24,0,0,1-4.74,15.77,16.66,16.66,0,0,1-6.56,4.06,15.9,15.9,0,0,1-8.2.41"/><path class="cls-63" d="M100,47.6c-.06-.41-.13-.83-.22-1.25a14.42,14.42,0,0,0-7.08-9.45,17.9,17.9,0,0,0-2.21-1.07C86,34,81.3,34.4,77.69,37.06A12.18,12.18,0,0,0,73,49.47a9.92,9.92,0,0,0,4.76,6.43,12.06,12.06,0,0,0,1.62.79,9,9,0,0,0,8.89-.85,8.47,8.47,0,0,0,2.89-3.72,8.55,8.55,0,0,0,.43-5,7.25,7.25,0,0,0-4.4-5.2A7.17,7.17,0,0,0,83,41.58a2,2,0,0,0-1.46,1.23,2,2,0,0,0-.1,1.18,2,2,0,0,0,1.23,1.45,2,2,0,0,0,1.18.1,3.14,3.14,0,0,1,1.83.16A3.21,3.21,0,0,1,87.62,48a4.57,4.57,0,0,1-.22,2.62,4.46,4.46,0,0,1-1.52,2,5,5,0,0,1-5,.38,8.78,8.78,0,0,1-1.11-.55A5.87,5.87,0,0,1,77,48.61a8.11,8.11,0,0,1,.41-4.76,8,8,0,0,1,2.72-3.52c2.45-1.8,5.56-2.08,8.88-.76a14.25,14.25,0,0,1,1.76.86,10.19,10.19,0,0,1,5.12,6.77c.07.33.13.64.17,1a11.77,11.77,0,0,1-.72,6.08A12.36,12.36,0,0,1,91.92,59,13.2,13.2,0,0,1,79.63,61.8l-.52-.15h0a20.8,20.8,0,0,1-2.7-.9,40.14,40.14,0,0,1-8.92-5.14h0a31.29,31.29,0,0,0-7.27-4.22c-8.55-3.42-15-.83-15.93-.39l-.62.23a9.75,9.75,0,0,0-4.92,4.68c-.12.23-.22.47-.32.71a9.79,9.79,0,0,0-.18,6.81A8.27,8.27,0,0,0,43,68.48a8.17,8.17,0,0,0,5.63.19,7,7,0,0,0,4.17-3.9h0l.05-.13a6.56,6.56,0,0,0-1.05-7.08,6,6,0,0,0-6.34-1.61h0a2,2,0,1,0,1.3,3.84,2,2,0,0,1,1.36,0,2.14,2.14,0,0,1,.71.5,2,2,0,0,1,.53,1.17,3.43,3.43,0,0,1-.27,1.62l0,.09h0a2.9,2.9,0,0,1-1.7,1.62,4.16,4.16,0,0,1-2.85-.1,4.27,4.27,0,0,1-2.46-2.58,5.85,5.85,0,0,1,.11-4c.05-.13.12-.27.19-.41A5.68,5.68,0,0,1,45.7,54.8h0l.17-.07h0c.21-.09,5.43-2.49,12.78.45A26.49,26.49,0,0,1,65,58.84h0a43.76,43.76,0,0,0,9.83,5.67,25.43,25.43,0,0,0,3.2,1.06l.49.14a17.27,17.27,0,0,0,16-3.68,16.5,16.5,0,0,0,4.49-6.27,15.85,15.85,0,0,0,1-8.16"/><path class="cls-63" d="M52.11,45.92a1.82,1.82,0,0,0,0-.32,23.56,23.56,0,0,0-1.24-3.75,12.54,12.54,0,0,0-4.05-5.5,4.36,4.36,0,0,0-2.44-.76,4.27,4.27,0,0,0-4.21,4.21,4.33,4.33,0,0,0,.76,2.44,12.48,12.48,0,0,0,5.5,4,23.91,23.91,0,0,0,3.75,1.24,1.73,1.73,0,0,0,.32,0,1.67,1.67,0,0,0,1.64-1.64m-7.75-7.1A1,1,0,0,1,45,39h0a7.19,7.19,0,0,1,2.12,2.51,16.32,16.32,0,0,1,.9,1.9,16.29,16.29,0,0,1-2-1,7.32,7.32,0,0,1-2.43-2.07,1,1,0,0,1-.21-.62.93.93,0,0,1,.3-.68,1,1,0,0,1,.68-.31"/><path class="cls-63" d="M115.4,41.83H83.53a1.7,1.7,0,1,0,0,3.39H115.4a1.7,1.7,0,1,0,0-3.39"/><path class="cls-63" d="M45.81,77.06a1.7,1.7,0,0,0-1.69,1.7v33.39a1.7,1.7,0,1,0,3.39,0V78.76a1.7,1.7,0,0,0-1.7-1.7"/><path class="cls-63" d="M77.22,70.08,76,71.28a1.7,1.7,0,0,1,0,2.43,1.73,1.73,0,0,1-2.43,0,1.73,1.73,0,0,1,0-2.43,1.73,1.73,0,0,1,2.43,0l1.2-1.2,1.2-1.2a5.11,5.11,0,1,0,0,7.23,5.11,5.11,0,0,0,0-7.23Z"/><path class="cls-63" d="M1849.79,95.66c.42-.09.83-.19,1.24-.31a14.47,14.47,0,0,0,9-7.7,18.53,18.53,0,0,0,.91-2.27c1.51-4.64.81-9.31-2.08-12.74a12.22,12.22,0,0,0-12.7-3.84A10,10,0,0,0,1840,74a12.81,12.81,0,0,0-.67,1.66,9.1,9.1,0,0,0,1.44,8.82,8.58,8.58,0,0,0,8.92,2.72,7.28,7.28,0,0,0,4.89-4.74,7.15,7.15,0,0,0,.07-4.2,2,2,0,0,0-1.32-1.38,2.09,2.09,0,0,0-1.19,0,2,2,0,0,0-1.37,1.33,2,2,0,0,0,0,1.18,3.11,3.11,0,0,1,0,1.84,3.23,3.23,0,0,1-2.16,2.09,4.53,4.53,0,0,1-2.63-.05,4.46,4.46,0,0,1-2-1.37,5,5,0,0,1-.71-4.94,8.44,8.44,0,0,1,.47-1.15,5.84,5.84,0,0,1,3.58-3.08,8.19,8.19,0,0,1,4.78.08,8.11,8.11,0,0,1,3.7,2.48c2,2.33,2.44,5.41,1.34,8.81a14.4,14.4,0,0,1-.73,1.82,10.28,10.28,0,0,1-6.42,5.56c-.31.09-.63.17-1,.23a11.82,11.82,0,0,1-6.12-.3,12.56,12.56,0,0,1-4.94-3.07,13.2,13.2,0,0,1-3.64-12.07l.11-.53h0a20,20,0,0,1,.71-2.75,40.25,40.25,0,0,1,4.53-9.25h0a31.1,31.1,0,0,0,3.73-7.54c2.84-8.76-.18-15-.68-15.92a5.38,5.38,0,0,0-.28-.6,9.71,9.71,0,0,0-5-4.6c-.24-.1-.49-.19-.73-.27a9.8,9.8,0,0,0-6.81.28,8.3,8.3,0,0,0-4.53,10.74,6.93,6.93,0,0,0,4.17,3.9h0l.14,0a6.59,6.59,0,0,0,7-1.52,6.07,6.07,0,0,0,1.18-6.44h0a2,2,0,0,0-3.75,1.55,1.93,1.93,0,0,1,0,1.36,1.76,1.76,0,0,1-.44.74,2,2,0,0,1-1.14.61,3.42,3.42,0,0,1-1.63-.16l-.09,0h0a2.86,2.86,0,0,1-1.73-1.58,4.12,4.12,0,0,1-.09-2.85,4.22,4.22,0,0,1,2.41-2.62,5.78,5.78,0,0,1,4-.17l.43.16a5.65,5.65,0,0,1,3.12,3.12v0l.08.16v0h0c.1.2,2.85,5.25.4,12.78a26.58,26.58,0,0,1-3.24,6.55h0a44,44,0,0,0-5,10.19,25.72,25.72,0,0,0-.84,3.26l-.1.5A17.24,17.24,0,0,0,1835,91.19a16.62,16.62,0,0,0,6.55,4.06,15.9,15.9,0,0,0,8.2.41"/><path class="cls-63" d="M1798.84,48c.06-.41.14-.83.22-1.25a14.44,14.44,0,0,1,7.09-9.45,17.78,17.78,0,0,1,2.2-1.07c4.53-1.82,9.24-1.43,12.85,1.22a12.2,12.2,0,0,1,4.69,12.42,9.93,9.93,0,0,1-4.77,6.43,11,11,0,0,1-1.62.79,9.05,9.05,0,0,1-8.89-.85,8.47,8.47,0,0,1-2.89-3.72,8.55,8.55,0,0,1-.42-5,7.25,7.25,0,0,1,4.4-5.2,7.13,7.13,0,0,1,4.18-.35,2,2,0,0,1,1.47,1.23,2.13,2.13,0,0,1,.1,1.18,2,2,0,0,1-1.23,1.45,2,2,0,0,1-1.18.1,3.18,3.18,0,0,0-3.77,2.45A4.49,4.49,0,0,0,1813,53a5,5,0,0,0,5,.38,8.16,8.16,0,0,0,1.11-.55,5.83,5.83,0,0,0,2.84-3.78,8.19,8.19,0,0,0-.4-4.76,8,8,0,0,0-2.73-3.53c-2.45-1.79-5.55-2.07-8.88-.75a15,15,0,0,0-1.76.86,10.22,10.22,0,0,0-5.12,6.77c-.06.32-.12.64-.17,1a11.88,11.88,0,0,0,.72,6.08,12.38,12.38,0,0,0,3.39,4.72,13.19,13.19,0,0,0,12.29,2.83l.52-.15h0a20.21,20.21,0,0,0,2.69-.9,39.92,39.92,0,0,0,8.92-5.14h0a30.55,30.55,0,0,1,7.27-4.22c8.55-3.42,15-.83,15.92-.39l.62.23a9.77,9.77,0,0,1,4.93,4.68c.11.23.22.47.31.71a9.73,9.73,0,0,1,.19,6.81,8.32,8.32,0,0,1-4.79,5,8.2,8.2,0,0,1-5.64.19,6.93,6.93,0,0,1-4.16-3.9h0l0-.13a6.58,6.58,0,0,1,1-7.08,6.06,6.06,0,0,1,2.18-1.49,6,6,0,0,1,4.16-.12h0a2,2,0,0,1,1.23,1.17,2,2,0,0,1,0,1.4,2.08,2.08,0,0,1-1.17,1.24,2,2,0,0,1-1.4,0,2,2,0,0,0-1.36,0,2.08,2.08,0,0,0-.72.5,2,2,0,0,0-.52,1.17,3.31,3.31,0,0,0,.27,1.62l0,.09h0a2.89,2.89,0,0,0,1.69,1.62,4.19,4.19,0,0,0,2.86-.1,4.23,4.23,0,0,0,2.45-2.58,5.79,5.79,0,0,0-.1-4c-.06-.14-.12-.28-.19-.41a5.71,5.71,0,0,0-3.32-2.91h0l-.17-.07h0c-.21-.09-5.43-2.49-12.78.45a26.49,26.49,0,0,0-6.32,3.68h0a43.81,43.81,0,0,1-9.84,5.67,24.91,24.91,0,0,1-3.2,1.06l-.48.13a17.25,17.25,0,0,1-16.06-3.67,16.58,16.58,0,0,1-4.48-6.27,15.85,15.85,0,0,1-1-8.16"/><path class="cls-63" d="M1846.77,46.33a1.67,1.67,0,0,0,1.65,1.64l.31,0a23.56,23.56,0,0,0,3.75-1.24,12.5,12.5,0,0,0,5.5-4.05,4.34,4.34,0,0,0,.77-2.44,4.29,4.29,0,0,0-4.22-4.21,4.33,4.33,0,0,0-2.43.76,12.64,12.64,0,0,0-4.06,5.5,21.89,21.89,0,0,0-1.23,3.75,1.22,1.22,0,0,0,0,.32m7.75-7.1a1,1,0,0,1,.69.31,1,1,0,0,1,.3.68,1.09,1.09,0,0,1-.21.62,7.26,7.26,0,0,1-2.44,2.07,16.9,16.9,0,0,1-2,1,16.22,16.22,0,0,1,.89-1.9,7.29,7.29,0,0,1,2.12-2.51h0a1.11,1.11,0,0,1,.62-.21"/><path class="cls-63" d="M1783.48,42.24h31.88a1.7,1.7,0,0,1,0,3.39h-31.88a1.7,1.7,0,0,1,0-3.39"/><path class="cls-63" d="M1853.07,77.47a1.7,1.7,0,0,1,1.7,1.7v33.39a1.7,1.7,0,1,1-3.39,0V79.17a1.7,1.7,0,0,1,1.69-1.7"/><path class="cls-63" d="M1821.66,70.49l1.2,1.2a1.72,1.72,0,1,0,2.43,0,1.7,1.7,0,0,0-2.43,0l-1.2-1.2-1.19-1.2a5.12,5.12,0,0,1,7.22,0,5.11,5.11,0,1,1-7.23,0Z"/><rect class="cls-64" x="12.5" y="3" width="1882.98" height="859.97"/><rect class="cls-65" x="27.83" y="15.61" width="1852.32" height="834.76"/></g></g></svg>