<svg xmlns="http://www.w3.org/2000/svg" viewBox="0 0 1913.03 893.31"><defs><style>.cls-1,.cls-10,.cls-11,.cls-12,.cls-13,.cls-14,.cls-15,.cls-16,.cls-17,.cls-18,.cls-19,.cls-2,.cls-20,.cls-21,.cls-22,.cls-23,.cls-24,.cls-25,.cls-26,.cls-27,.cls-28,.cls-29,.cls-3,.cls-30,.cls-31,.cls-32,.cls-33,.cls-34,.cls-35,.cls-36,.cls-37,.cls-38,.cls-39,.cls-4,.cls-40,.cls-41,.cls-42,.cls-43,.cls-44,.cls-45,.cls-46,.cls-47,.cls-48,.cls-49,.cls-5,.cls-50,.cls-51,.cls-52,.cls-53,.cls-54,.cls-55,.cls-56,.cls-57,.cls-58,.cls-59,.cls-6,.cls-60,.cls-61,.cls-62,.cls-64,.cls-65,.cls-7,.cls-8,.cls-9{fill:none;stroke-miterlimit:10;}.cls-1{stroke:#6e9baa;stroke-width:8px;}.cls-2{stroke:#709cab;stroke-width:7.89px;}.cls-3{stroke:#719dac;stroke-width:7.77px;}.cls-4{stroke:#739ead;stroke-width:7.66px;}.cls-5{stroke:#75a0ae;stroke-width:7.54px;}.cls-6{stroke:#77a1af;stroke-width:7.43px;}.cls-7{stroke:#78a2b0;stroke-width:7.31px;}.cls-8{stroke:#7aa3b0;stroke-width:7.2px;}.cls-9{stroke:#7ca4b1;stroke-width:7.08px;}.cls-10{stroke:#7da5b2;stroke-width:6.97px;}.cls-11{stroke:#7fa6b3;stroke-width:6.85px;}.cls-12{stroke:#81a8b4;stroke-width:6.74px;}.cls-13{stroke:#83a9b5;stroke-width:6.62px;}.cls-14{stroke:#84aab6;stroke-width:6.51px;}.cls-15{stroke:#86abb7;stroke-width:6.39px;}.cls-16{stroke:#88acb8;stroke-width:6.28px;}.cls-17{stroke:#8aadb9;stroke-width:6.16px;}.cls-18{stroke:#8bafba;stroke-width:6.05px;}.cls-19{stroke:#8db0bb;stroke-width:5.93px;}.cls-20{stroke:#8fb1bb;stroke-width:5.82px;}.cls-21{stroke:#90b2bc;stroke-width:5.7px;}.cls-22{stroke:#92b3bd;stroke-width:5.59px;}.cls-23{stroke:#94b4be;stroke-width:5.48px;}.cls-24{stroke:#96b5bf;stroke-width:5.36px;}.cls-25{stroke:#97b7c0;stroke-width:5.25px;}.cls-26{stroke:#99b8c1;stroke-width:5.13px;}.cls-27{stroke:#9bb9c2;stroke-width:5.02px;}.cls-28{stroke:#9cbac3;stroke-width:4.9px;}.cls-29{stroke:#9ebbc4;stroke-width:4.79px;}.cls-30{stroke:#a0bcc5;stroke-width:4.67px;}.cls-31{stroke:#a2bdc6;stroke-width:4.56px;}.cls-32{stroke:#a3bfc6;stroke-width:4.44px;}.cls-33{stroke:#a5c0c7;stroke-width:4.33px;}.cls-34{stroke:#a7c1c8;stroke-width:4.21px;}.cls-35{stroke:#a9c2c9;stroke-width:4.1px;}.cls-36{stroke:#aac3ca;stroke-width:3.98px;}.cls-37{stroke:#acc4cb;stroke-width:3.87px;}.cls-38{stroke:#aec5cc;stroke-width:3.75px;}.cls-39{stroke:#afc7cd;stroke-width:3.64px;}.cls-40{stroke:#b1c8ce;stroke-width:3.52px;}.cls-41{stroke:#b3c9cf;stroke-width:3.41px;}.cls-42{stroke:#b5cad0;stroke-width:3.3px;}.cls-43{stroke:#b6cbd1;stroke-width:3.18px;}.cls-44{stroke:#b8ccd1;stroke-width:3.07px;}.cls-45{stroke:#bacdd2;stroke-width:2.95px;}.cls-46{stroke:#bbcfd3;stroke-width:2.84px;}.cls-47{stroke:#bdd0d4;stroke-width:2.72px;}.cls-48{stroke:#bfd1d5;stroke-width:2.61px;}.cls-49{stroke:#c1d2d6;stroke-width:2.49px;}.cls-50{stroke:#c2d3d7;stroke-width:2.38px;}.cls-51{stroke:#c4d4d8;stroke-width:2.26px;}.cls-52{stroke:#c6d6d9;stroke-width:2.15px;}.cls-53{stroke:#c8d7da;stroke-width:2.03px;}.cls-54{stroke:#c9d8db;stroke-width:1.92px;}.cls-55{stroke:#cbd9dc;stroke-width:1.8px;}.cls-56{stroke:#cddadc;stroke-width:1.69px;}.cls-57{stroke:#cedbdd;stroke-width:1.57px;}.cls-58{stroke:#d0dcde;stroke-width:1.46px;}.cls-59{stroke:#d2dedf;stroke-width:1.34px;}.cls-60{stroke:#d4dfe0;stroke-width:1.23px;}.cls-61{stroke:#d5e0e1;stroke-width:1.11px;}.cls-62{stroke:#d7e1e2;}.cls-63{fill:#fff;}.cls-64,.cls-65{stroke:#fff;}.cls-64{stroke-width:6px;}.cls-65{stroke-width:4px;}</style></defs><g id="Layer_2" data-name="Layer 2"><g id="Слой_1" data-name="Слой 1"><line class="cls-1" x1="1912.76" y1="889.31" y2="889.31"/><line class="cls-2" x1="1912.76" y1="877.21" x2="0.08" y2="877.21"/><line class="cls-3" x1="1912.77" y1="865.1" x2="0.15" y2="865.1"/><line class="cls-4" x1="1912.77" y1="852.99" x2="0.23" y2="852.99"/><line class="cls-5" x1="1912.78" y1="840.88" x2="0.31" y2="840.88"/><line class="cls-6" x1="1912.78" y1="828.77" x2="0.38" y2="828.77"/><line class="cls-7" x1="1912.79" y1="816.67" x2="0.46" y2="816.67"/><line class="cls-8" x1="1912.79" y1="804.56" x2="0.54" y2="804.56"/><line class="cls-9" x1="1912.8" y1="792.45" x2="0.61" y2="792.45"/><line class="cls-10" x1="1912.8" y1="780.34" x2="0.69" y2="780.34"/><line class="cls-11" x1="1912.8" y1="768.23" x2="0.77" y2="768.23"/><line class="cls-12" x1="1912.81" y1="756.13" x2="0.84" y2="756.13"/><line class="cls-13" x1="1912.81" y1="744.02" x2="0.92" y2="744.02"/><line class="cls-14" x1="1912.82" y1="731.91" x2="1" y2="731.91"/><line class="cls-15" x1="1912.82" y1="719.8" x2="1.07" y2="719.8"/><line class="cls-16" x1="1912.83" y1="707.69" x2="1.15" y2="707.69"/><line class="cls-17" x1="1912.83" y1="695.59" x2="1.23" y2="695.59"/><line class="cls-18" x1="1912.84" y1="683.48" x2="1.3" y2="683.48"/><line class="cls-19" x1="1912.84" y1="671.37" x2="1.38" y2="671.37"/><line class="cls-20" x1="1912.84" y1="659.26" x2="1.46" y2="659.26"/><line class="cls-21" x1="1912.85" y1="647.15" x2="1.53" y2="647.15"/><line class="cls-22" x1="1912.85" y1="635.05" x2="1.61" y2="635.05"/><line class="cls-23" x1="1912.86" y1="622.94" x2="1.69" y2="622.94"/><line class="cls-24" x1="1912.86" y1="610.83" x2="1.76" y2="610.83"/><line class="cls-25" x1="1912.87" y1="598.72" x2="1.84" y2="598.72"/><line class="cls-26" x1="1912.87" y1="586.61" x2="1.92" y2="586.61"/><line class="cls-27" x1="1912.88" y1="574.51" x2="1.99" y2="574.51"/><line class="cls-28" x1="1912.88" y1="562.4" x2="2.07" y2="562.4"/><line class="cls-29" x1="1912.88" y1="550.29" x2="2.15" y2="550.29"/><line class="cls-30" x1="1912.89" y1="538.18" x2="2.22" y2="538.18"/><line class="cls-31" x1="1912.89" y1="526.07" x2="2.3" y2="526.07"/><line class="cls-32" x1="1912.9" y1="513.97" x2="2.38" y2="513.97"/><line class="cls-33" x1="1912.9" y1="501.86" x2="2.45" y2="501.86"/><line class="cls-34" x1="1912.91" y1="489.75" x2="2.53" y2="489.75"/><line class="cls-35" x1="1912.91" y1="477.64" x2="2.61" y2="477.64"/><line class="cls-36" x1="1912.92" y1="465.53" x2="2.68" y2="465.53"/><line class="cls-37" x1="1912.92" y1="453.43" x2="2.76" y2="453.43"/><line class="cls-38" x1="1912.92" y1="441.32" x2="2.84" y2="441.32"/><line class="cls-39" x1="1912.93" y1="429.21" x2="2.91" y2="429.21"/><line class="cls-40" x1="1912.93" y1="417.1" x2="2.99" y2="417.1"/><line class="cls-41" x1="1912.94" y1="404.99" x2="3.07" y2="404.99"/><line class="cls-42" x1="1912.94" y1="392.89" x2="3.14" y2="392.89"/><line class="cls-43" x1="1912.95" y1="380.78" x2="3.22" y2="380.78"/><line class="cls-44" x1="1912.95" y1="368.67" x2="3.3" y2="368.67"/><line class="cls-45" x1="1912.96" y1="356.56" x2="3.37" y2="356.56"/><line class="cls-46" x1="1912.96" y1="344.45" x2="3.45" y2="344.45"/><line class="cls-47" x1="1912.96" y1="332.35" x2="3.53" y2="332.35"/><line class="cls-48" x1="1912.97" y1="320.24" x2="3.6" y2="320.24"/><line class="cls-49" x1="1912.97" y1="308.13" x2="3.68" y2="308.13"/><line class="cls-50" x1="1912.98" y1="296.02" x2="3.76" y2="296.02"/><line class="cls-51" x1="1912.98" y1="283.91" x2="3.84" y2="283.91"/><line class="cls-52" x1="1912.99" y1="271.81" x2="3.91" y2="271.81"/><line class="cls-53" x1="1912.99" y1="259.7" x2="3.99" y2="259.7"/><line class="cls-54" x1="1912.99" y1="247.59" x2="4.07" y2="247.59"/><line class="cls-55" x1="1913" y1="235.48" x2="4.14" y2="235.48"/><line class="cls-56" x1="1913" y1="223.37" x2="4.22" y2="223.37"/><line class="cls-57" x1="1913.01" y1="211.27" x2="4.3" y2="211.27"/><line class="cls-58" x1="1913.01" y1="199.16" x2="4.37" y2="199.16"/><line class="cls-59" x1="1913.02" y1="187.05" x2="4.45" y2="187.05"/><line class="cls-60" x1="1913.02" y1="174.94" x2="4.53" y2="174.94"/><line class="cls-61" x1="1913.03" y1="162.83" x2="4.6" y2="162.83"/><line class="cls-62" x1="1913.03" y1="150.73" x2="4.68" y2="150.73"/><path class="cls-63" d="M48.1,95.25c-.41-.09-.82-.19-1.23-.31a14.42,14.42,0,0,1-9-7.7A17.92,17.92,0,0,1,37,85a13.06,13.06,0,0,1,2.08-12.74,12.21,12.21,0,0,1,12.7-3.84,9.92,9.92,0,0,1,6.1,5.19,12.45,12.45,0,0,1,.68,1.67,9.06,9.06,0,0,1-1.45,8.81,8.56,8.56,0,0,1-8.91,2.72,7.26,7.26,0,0,1-5-8.94,2,2,0,0,1,1.33-1.38A2,2,0,0,1,47.14,79a3.11,3.11,0,0,0,0,1.84,3.17,3.17,0,0,0,2.15,2.09,4.56,4.56,0,0,0,2.64,0,4.46,4.46,0,0,0,2-1.37,5,5,0,0,0,.71-4.94,8.44,8.44,0,0,0-.47-1.15,5.83,5.83,0,0,0-3.59-3.08,8.15,8.15,0,0,0-8.47,2.56c-2,2.33-2.44,5.41-1.34,8.82a13.44,13.44,0,0,0,.73,1.81A10.22,10.22,0,0,0,48,91c.31.09.63.17.95.23a11.73,11.73,0,0,0,6.12-.3A12.45,12.45,0,0,0,60,87.9a13.18,13.18,0,0,0,3.64-12.07l-.11-.53h0a20,20,0,0,0-.71-2.75,40.25,40.25,0,0,0-4.53-9.25h0a31,31,0,0,1-3.72-7.54c-2.84-8.76.18-15,.67-15.92.09-.2.18-.4.28-.6a9.76,9.76,0,0,1,5-4.6c.24-.1.48-.19.73-.27a9.81,9.81,0,0,1,6.81.28A8.31,8.31,0,0,1,72.58,45.4a7,7,0,0,1-4.17,3.89h0l-.14.05a6.56,6.56,0,0,1-7-1.52,6,6,0,0,1-1.19-6.44h0a2.05,2.05,0,0,1,1.24-1.16,2,2,0,0,1,2.56,1.31,2,2,0,0,1-.06,1.4,2,2,0,0,0,0,1.36,1.89,1.89,0,0,0,.45.74,2,2,0,0,0,1.13.61A3.45,3.45,0,0,0,67,45.48l.09,0h0a2.87,2.87,0,0,0,1.74-1.57A4.25,4.25,0,0,0,66.5,38.4a5.78,5.78,0,0,0-4-.17l-.43.16a5.73,5.73,0,0,0-3.13,3.12v0l-.08.16v0h0c-.1.2-2.85,5.25-.41,12.78a26.94,26.94,0,0,0,3.24,6.55h0a44,44,0,0,1,5,10.19,25.72,25.72,0,0,1,.84,3.26l.1.5a17.27,17.27,0,0,1-4.75,15.77,16.66,16.66,0,0,1-6.56,4.06,15.89,15.89,0,0,1-8.2.41"/><path class="cls-63" d="M99.05,47.6c0-.41-.13-.83-.22-1.25a14.42,14.42,0,0,0-7.08-9.45,18.5,18.5,0,0,0-2.2-1.07C85,34,80.31,34.4,76.7,37.06A12.18,12.18,0,0,0,72,49.47a9.91,9.91,0,0,0,4.77,6.43,11,11,0,0,0,1.62.79,9.05,9.05,0,0,0,8.89-.85,8.55,8.55,0,0,0,3.31-8.71,7.25,7.25,0,0,0-4.4-5.2A7.16,7.16,0,0,0,82,41.58a2,2,0,0,0-1.46,1.23,2,2,0,0,0,1.13,2.63,2,2,0,0,0,1.18.1A3.19,3.19,0,0,1,86.63,48a4.49,4.49,0,0,1-.22,2.62,4.44,4.44,0,0,1-1.51,2,5,5,0,0,1-5,.38,8.89,8.89,0,0,1-1.12-.55A5.85,5.85,0,0,1,76,48.61a8.11,8.11,0,0,1,.4-4.76,8,8,0,0,1,2.72-3.52c2.46-1.8,5.56-2.08,8.89-.76a15,15,0,0,1,1.76.86,10.21,10.21,0,0,1,5.11,6.77c.07.33.13.64.17,1a11.77,11.77,0,0,1-.71,6.08A12.49,12.49,0,0,1,90.93,59,13.2,13.2,0,0,1,78.64,61.8l-.52-.15h0a20.21,20.21,0,0,1-2.69-.9,39.92,39.92,0,0,1-8.92-5.14h0a30.89,30.89,0,0,0-7.27-4.22c-8.55-3.42-15-.83-15.92-.39l-.62.23a9.73,9.73,0,0,0-4.93,4.68c-.12.23-.22.47-.32.71a9.79,9.79,0,0,0-.18,6.81A8.3,8.3,0,0,0,42,68.48a8.17,8.17,0,0,0,5.63.19,6.92,6.92,0,0,0,4.17-3.9h0l.06-.13a6.58,6.58,0,0,0-1-7.08,6.06,6.06,0,0,0-2.18-1.49,6,6,0,0,0-4.16-.12h0a2,2,0,0,0-1.23,1.17,2,2,0,0,0,0,1.4,2.08,2.08,0,0,0,1.17,1.24,2,2,0,0,0,1.4,0,2,2,0,0,1,1.36,0,2,2,0,0,1,.71.5,2,2,0,0,1,.53,1.17,3.43,3.43,0,0,1-.27,1.62l0,.09h0a2.89,2.89,0,0,1-1.69,1.62,4.19,4.19,0,0,1-2.86-.1,4.23,4.23,0,0,1-2.45-2.58,5.79,5.79,0,0,1,.1-4c.06-.13.12-.27.19-.41a5.71,5.71,0,0,1,3.32-2.91h0l.17-.07h0c.21-.09,5.42-2.49,12.78.45A26.45,26.45,0,0,1,64,58.84h0a43.76,43.76,0,0,0,9.83,5.67,26,26,0,0,0,3.2,1.06l.49.14A17.26,17.26,0,0,0,93.6,62a16.5,16.5,0,0,0,4.49-6.27,15.85,15.85,0,0,0,1-8.16"/><path class="cls-63" d="M51.13,45.92a1.22,1.22,0,0,0,0-.32,22.44,22.44,0,0,0-1.24-3.75,12.54,12.54,0,0,0-4.05-5.5,4.33,4.33,0,0,0-2.43-.76,4.27,4.27,0,0,0-4.22,4.21,4.41,4.41,0,0,0,.76,2.44,12.54,12.54,0,0,0,5.5,4,24.28,24.28,0,0,0,3.75,1.24l.32,0a1.62,1.62,0,0,0,1.15-.49,1.67,1.67,0,0,0,.5-1.15m-7.75-7.1A1,1,0,0,1,44,39h0a7.27,7.27,0,0,1,2.11,2.51,14.84,14.84,0,0,1,.9,1.9,15.48,15.48,0,0,1-2-1,7.26,7.26,0,0,1-2.44-2.07,1.09,1.09,0,0,1-.21-.62,1,1,0,0,1,.3-.68,1,1,0,0,1,.69-.31"/><path class="cls-63" d="M114.42,41.83H82.54a1.7,1.7,0,1,0,0,3.39h31.88a1.7,1.7,0,0,0,0-3.39"/><path class="cls-63" d="M44.83,77.06a1.7,1.7,0,0,0-1.7,1.7v33.39a1.7,1.7,0,1,0,3.39,0V78.76a1.7,1.7,0,0,0-1.69-1.7"/><path class="cls-63" d="M76.23,70.08,75,71.28a1.7,1.7,0,0,1,0,2.43,1.65,1.65,0,0,1-1.21.5,1.69,1.69,0,0,1-1.21-.5,1.7,1.7,0,0,1,0-2.43,1.69,1.69,0,0,1,1.21-.5,1.71,1.71,0,0,1,1.22.5l1.19-1.2,1.2-1.2a5.11,5.11,0,1,0,1.5,3.61,5.07,5.07,0,0,0-1.5-3.61Z"/><path class="cls-63" d="M52.14,767.14l-1.23.3a14.43,14.43,0,0,0-9,7.71,17.34,17.34,0,0,0-.91,2.27,13,13,0,0,0,2.08,12.73A12.2,12.2,0,0,0,55.82,794a10,10,0,0,0,6.1-5.19,12.45,12.45,0,0,0,.68-1.67,9.05,9.05,0,0,0-1.45-8.81,8.51,8.51,0,0,0-8.91-2.72,7.25,7.25,0,0,0-5,8.94,2,2,0,0,0,1.33,1.37,2,2,0,0,0,1.18,0,2,2,0,0,0,1.38-1.32,2.09,2.09,0,0,0,0-1.19,3.12,3.12,0,0,1,0-1.84,3.18,3.18,0,0,1,2.15-2.08A4.46,4.46,0,0,1,58,780.93a5,5,0,0,1,.71,4.93,8.44,8.44,0,0,1-.47,1.15,5.89,5.89,0,0,1-3.58,3.09,8.19,8.19,0,0,1-8.48-2.57c-2-2.32-2.44-5.4-1.34-8.81a12.93,12.93,0,0,1,.73-1.81A10.25,10.25,0,0,1,52,771.35c.31-.09.63-.17.95-.24a11.84,11.84,0,0,1,6.12.31A12.32,12.32,0,0,1,64,774.48a13.17,13.17,0,0,1,3.64,12.07l-.1.53v0a20.73,20.73,0,0,1-.71,2.75,40.19,40.19,0,0,1-4.53,9.24h0a30.86,30.86,0,0,0-3.72,7.54c-2.84,8.76.18,15,.67,15.91.09.21.18.41.28.61a9.76,9.76,0,0,0,5,4.6c.24.1.48.18.73.26a9.75,9.75,0,0,0,6.81-.27,8.34,8.34,0,0,0,4.72-5.12,8.22,8.22,0,0,0-.19-5.63,7,7,0,0,0-4.17-3.9h0l-.14,0a6.56,6.56,0,0,0-7,1.52A6,6,0,0,0,64.13,821h0a2,2,0,0,0,1.24,1.15,2,2,0,0,0,1.41-.06,2,2,0,0,0,1.15-1.25,2,2,0,0,0-.06-1.4,2,2,0,0,1-.05-1.35,1.93,1.93,0,0,1,.45-.75,2,2,0,0,1,1.13-.6,3.32,3.32,0,0,1,1.64.15l.09,0h0a2.91,2.91,0,0,1,1.74,1.58,4.15,4.15,0,0,1,.09,2.86A4.24,4.24,0,0,1,70.54,824a5.72,5.72,0,0,1-4,.16L66.1,824A5.77,5.77,0,0,1,63,820.88v0l-.08-.17h0c-.1-.21-2.85-5.25-.41-12.78a27.18,27.18,0,0,1,3.24-6.56h0a44,44,0,0,0,5-10.19,25.85,25.85,0,0,0,.84-3.27l.1-.49a17.26,17.26,0,0,0-4.75-15.77,16.4,16.4,0,0,0-6.55-4.06,15.93,15.93,0,0,0-8.21-.41"/><path class="cls-63" d="M103.09,814.78c0,.42-.13.84-.22,1.25a14.42,14.42,0,0,1-7.08,9.46,18.4,18.4,0,0,1-2.2,1.06c-4.53,1.82-9.24,1.44-12.85-1.22a12.12,12.12,0,0,1-4.09-5.28,12.26,12.26,0,0,1-.6-7.13,9.93,9.93,0,0,1,4.77-6.44,12.09,12.09,0,0,1,1.62-.79,9.08,9.08,0,0,1,8.89.85,8.55,8.55,0,0,1,3.31,8.72,7.24,7.24,0,0,1-4.4,5.19,7.16,7.16,0,0,1-4.19.36,2,2,0,1,1,.85-4,3.16,3.16,0,0,0,3.77-2.44,4.5,4.5,0,0,0-1.73-4.58,5,5,0,0,0-5-.37,8.78,8.78,0,0,0-1.12.54A5.89,5.89,0,0,0,80,813.78a8.2,8.2,0,0,0,.4,4.76,8.07,8.07,0,0,0,2.72,3.52c2.46,1.8,5.56,2.07,8.89.75a14.87,14.87,0,0,0,1.76-.85,10.23,10.23,0,0,0,5.11-6.78c.07-.32.13-.64.17-1a11.82,11.82,0,0,0-.71-6.09A12.49,12.49,0,0,0,95,803.41a13.22,13.22,0,0,0-12.29-2.82l-.52.14h0a21.61,21.61,0,0,0-2.69.89,40.37,40.37,0,0,0-8.92,5.15h0A30.21,30.21,0,0,1,63.26,811c-8.55,3.43-15,.83-15.92.4a6.62,6.62,0,0,1-.62-.24,9.71,9.71,0,0,1-4.93-4.67c-.12-.24-.22-.47-.32-.71a9.82,9.82,0,0,1-.18-6.82,8.32,8.32,0,0,1,4.79-5.05,8.23,8.23,0,0,1,5.63-.19,7,7,0,0,1,4.17,3.9h0l.06.14a6.56,6.56,0,0,1-1,7.07,6,6,0,0,1-6.34,1.62h0a2.06,2.06,0,0,1-1.23-1.17,2,2,0,0,1,0-1.4,2,2,0,0,1,2.57-1.28,2,2,0,0,0,1.36,0,2,2,0,0,0,.71-.49,2,2,0,0,0,.53-1.18,3.44,3.44,0,0,0-.27-1.62l0-.09h0a2.89,2.89,0,0,0-1.69-1.62,4.13,4.13,0,0,0-2.86.1,4.21,4.21,0,0,0-2.45,2.58,5.76,5.76,0,0,0,.1,4c.06.14.12.28.19.42a5.74,5.74,0,0,0,3.32,2.91h0l.17.07h0c.21.09,5.43,2.5,12.78-.45a26.38,26.38,0,0,0,6.31-3.67h0a44,44,0,0,1,9.84-5.68,25.19,25.19,0,0,1,3.19-1l.49-.14a17.26,17.26,0,0,1,16.06,3.68,16.58,16.58,0,0,1,4.48,6.27,15.71,15.71,0,0,1,1,8.15"/><path class="cls-63" d="M55.17,816.46a1.67,1.67,0,0,0-.5-1.14,1.59,1.59,0,0,0-1.15-.5,1.22,1.22,0,0,0-.32,0,22.24,22.24,0,0,0-3.74,1.23,12.53,12.53,0,0,0-5.5,4.06,4.34,4.34,0,0,0-.77,2.43,4.29,4.29,0,0,0,4.22,4.22,4.34,4.34,0,0,0,2.43-.77,12.53,12.53,0,0,0,4.06-5.5,23,23,0,0,0,1.23-3.75,1.12,1.12,0,0,0,0-.32m-7.75,7.1a1,1,0,0,1-1-1,1.14,1.14,0,0,1,.21-.62,7.24,7.24,0,0,1,2.44-2.06,15.48,15.48,0,0,1,2-.95,17,17,0,0,1-.89,1.9A7.6,7.6,0,0,1,48,823.35h0a1.08,1.08,0,0,1-.61.21"/><path class="cls-63" d="M118.46,820.55H86.58a1.7,1.7,0,0,1,0-3.39h31.88a1.7,1.7,0,0,1,0,3.39"/><path class="cls-63" d="M48.87,785.32a1.69,1.69,0,0,1-1.7-1.69v-33.4a1.7,1.7,0,0,1,3.39,0v33.4a1.69,1.69,0,0,1-1.69,1.69"/><path class="cls-63" d="M80.28,792.31l-1.2-1.2a1.72,1.72,0,0,0-2.43-2.43,1.7,1.7,0,0,0,0,2.43,1.73,1.73,0,0,0,2.43,0l1.2,1.2,1.19,1.2a5.11,5.11,0,1,1,1.5-3.62,5.11,5.11,0,0,1-1.5,3.62Z"/><path class="cls-63" d="M1848.81,95.66c.41-.09.82-.19,1.23-.31a14.42,14.42,0,0,0,9-7.7,18.53,18.53,0,0,0,.91-2.27,13.06,13.06,0,0,0-2.08-12.74,12.21,12.21,0,0,0-12.7-3.84A9.92,9.92,0,0,0,1839,74a12.89,12.89,0,0,0-.68,1.66,9.08,9.08,0,0,0,1.45,8.82,8.56,8.56,0,0,0,8.91,2.72,7.26,7.26,0,0,0,5-8.94,2,2,0,0,0-1.33-1.38,2,2,0,0,0-2.58,2.49,3.11,3.11,0,0,1,0,1.84,3.19,3.19,0,0,1-2.15,2.09,4.56,4.56,0,0,1-2.64-.05,4.46,4.46,0,0,1-2-1.37,5,5,0,0,1-.71-4.94,8.44,8.44,0,0,1,.47-1.15,5.83,5.83,0,0,1,3.59-3.08,8.15,8.15,0,0,1,8.47,2.56c2,2.33,2.44,5.41,1.34,8.81a13,13,0,0,1-.73,1.82,10.23,10.23,0,0,1-6.42,5.56c-.31.09-.63.17-1,.23a11.84,11.84,0,0,1-6.12-.3,12.45,12.45,0,0,1-4.93-3.07,13.18,13.18,0,0,1-3.64-12.07l.11-.53h0a20,20,0,0,1,.71-2.75,40.25,40.25,0,0,1,4.53-9.25h0a30.67,30.67,0,0,0,3.72-7.54c2.84-8.76-.18-15-.67-15.92-.09-.2-.18-.4-.28-.6a9.76,9.76,0,0,0-5-4.6c-.24-.1-.48-.19-.73-.27a9.81,9.81,0,0,0-6.81.28,8.29,8.29,0,0,0-4.72,5.12,8.19,8.19,0,0,0,.19,5.62,6.93,6.93,0,0,0,4.17,3.9h0l.14,0a6.58,6.58,0,0,0,7-1.52A5.9,5.9,0,0,0,1837,46a6.09,6.09,0,0,0-.16-4.16h0a2.05,2.05,0,0,0-1.24-1.16,2,2,0,0,0-2.56,1.31,2,2,0,0,0,.06,1.4,2,2,0,0,1-.39,2.1,2.09,2.09,0,0,1-1.14.61,3.45,3.45,0,0,1-1.64-.16l-.09,0h0a2.88,2.88,0,0,1-1.74-1.58,4.24,4.24,0,0,1,2.32-5.47,5.78,5.78,0,0,1,4-.17l.43.16a5.67,5.67,0,0,1,3.13,3.12v0l.08.16v0h0c.1.2,2.85,5.25.41,12.78a26.94,26.94,0,0,1-3.24,6.55h0a44,44,0,0,0-5,10.19,24,24,0,0,0-.83,3.26l-.11.5a17.27,17.27,0,0,0,4.75,15.77,16.66,16.66,0,0,0,6.56,4.06,15.89,15.89,0,0,0,8.2.41"/><path class="cls-63" d="M1797.86,48c.05-.41.13-.83.22-1.25a14.42,14.42,0,0,1,7.08-9.45,18.5,18.5,0,0,1,2.2-1.07c4.53-1.82,9.24-1.43,12.85,1.22a12.2,12.2,0,0,1,4.69,12.42,9.93,9.93,0,0,1-4.77,6.43,11,11,0,0,1-1.62.79,9,9,0,0,1-8.88-.85,8.53,8.53,0,0,1-3.32-8.71,7.25,7.25,0,0,1,4.4-5.2,7.16,7.16,0,0,1,4.19-.35,2,2,0,0,1,1.46,1.23,2,2,0,0,1-1.13,2.63,2,2,0,0,1-1.18.1,3.19,3.19,0,0,0-3.77,2.45,4.49,4.49,0,0,0,.22,2.62A4.44,4.44,0,0,0,1812,53a5,5,0,0,0,5,.38,9.5,9.5,0,0,0,1.11-.55,5.85,5.85,0,0,0,2.83-3.78,8.17,8.17,0,0,0-3.12-8.29c-2.46-1.79-5.56-2.07-8.89-.75a15,15,0,0,0-1.76.86,10.21,10.21,0,0,0-5.11,6.77c-.07.32-.13.64-.17,1a11.77,11.77,0,0,0,.71,6.08,12.49,12.49,0,0,0,3.39,4.72,13.2,13.2,0,0,0,12.29,2.83l.52-.15h0a20.21,20.21,0,0,0,2.69-.9,39.92,39.92,0,0,0,8.92-5.14h0a30.74,30.74,0,0,1,7.27-4.22c8.55-3.42,15-.83,15.92-.39l.63.23a9.75,9.75,0,0,1,4.92,4.68c.12.23.22.47.32.71a9.79,9.79,0,0,1,.18,6.81,8.3,8.3,0,0,1-4.79,5,8.17,8.17,0,0,1-5.63.19,6.92,6.92,0,0,1-4.17-3.9h0L1845,65a6.58,6.58,0,0,1,1-7.08,6.06,6.06,0,0,1,2.18-1.49,6,6,0,0,1,4.16-.12h0a2,2,0,0,1,1.23,1.17,2,2,0,0,1,0,1.4,2.08,2.08,0,0,1-1.17,1.24,2,2,0,0,1-1.4,0,2,2,0,0,0-1.36,0,2,2,0,0,0-.71.5,2,2,0,0,0-.53,1.17,3.43,3.43,0,0,0,.27,1.62l0,.09h0a2.89,2.89,0,0,0,1.69,1.62,4.19,4.19,0,0,0,2.86-.1,4.23,4.23,0,0,0,2.45-2.58,5.79,5.79,0,0,0-.1-4c-.06-.14-.12-.28-.19-.41a5.71,5.71,0,0,0-3.32-2.91h0l-.17-.07h0c-.22-.09-5.43-2.49-12.79.45a26.45,26.45,0,0,0-6.31,3.68h0a43.76,43.76,0,0,1-9.83,5.67,26,26,0,0,1-3.2,1.06l-.49.13a17.24,17.24,0,0,1-16-3.67,16.5,16.5,0,0,1-4.49-6.27,15.85,15.85,0,0,1-1-8.16"/><path class="cls-63" d="M1845.78,46.33a1.67,1.67,0,0,0,.5,1.15,1.62,1.62,0,0,0,1.15.49l.32,0a24.28,24.28,0,0,0,3.75-1.24,12.62,12.62,0,0,0,5.5-4.05,4.41,4.41,0,0,0,.76-2.44,4.27,4.27,0,0,0-4.22-4.21,4.33,4.33,0,0,0-2.43.76,12.54,12.54,0,0,0-4,5.5,22.44,22.44,0,0,0-1.24,3.75,1.87,1.87,0,0,0,0,.32m7.75-7.1a1,1,0,0,1,.69.31,1,1,0,0,1,.3.68,1.09,1.09,0,0,1-.21.62,7.26,7.26,0,0,1-2.44,2.07,15.48,15.48,0,0,1-2,1,14.84,14.84,0,0,1,.9-1.9,7.27,7.27,0,0,1,2.11-2.51h0a1.08,1.08,0,0,1,.61-.21"/><path class="cls-63" d="M1782.49,42.24h31.88a1.7,1.7,0,1,1,0,3.39h-31.88a1.7,1.7,0,0,1,0-3.39"/><path class="cls-63" d="M1852.08,77.47a1.7,1.7,0,0,1,1.7,1.7v33.39a1.7,1.7,0,1,1-3.39,0V79.17a1.7,1.7,0,0,1,1.69-1.7"/><path class="cls-63" d="M1820.68,70.49l1.2,1.2a1.7,1.7,0,0,0,0,2.43,1.71,1.71,0,0,0,2.42,0,1.7,1.7,0,0,0,0-2.43,1.72,1.72,0,0,0-1.21-.51,1.76,1.76,0,0,0-1.22.51l-1.19-1.2-1.2-1.2a5.11,5.11,0,1,1-1.5,3.61,5.07,5.07,0,0,1,1.5-3.61Z"/><path class="cls-63" d="M1852.85,767.55c.41.08.82.19,1.23.3a14.43,14.43,0,0,1,9,7.71,18.94,18.94,0,0,1,.92,2.27,13.07,13.07,0,0,1-2.09,12.73,12.16,12.16,0,0,1-12.7,3.84,9.91,9.91,0,0,1-6.1-5.18,12.45,12.45,0,0,1-.68-1.67,9.05,9.05,0,0,1,1.45-8.81,8.51,8.51,0,0,1,8.91-2.72,7.25,7.25,0,0,1,5,8.94,2,2,0,0,1-1.33,1.37,2,2,0,0,1-1.18,0,2,2,0,0,1-1.4-2.51,3,3,0,0,0,0-1.84,3.16,3.16,0,0,0-2.15-2.08,4.46,4.46,0,0,0-4.68,1.42,5,5,0,0,0-.71,4.93,8.44,8.44,0,0,0,.47,1.15,5.88,5.88,0,0,0,3.59,3.09,8.15,8.15,0,0,0,4.77-.09,8,8,0,0,0,3.7-2.48c2-2.32,2.44-5.4,1.34-8.81a12.93,12.93,0,0,0-.73-1.81,10.21,10.21,0,0,0-6.41-5.56q-.48-.13-1-.24a11.84,11.84,0,0,0-6.12.31,12.32,12.32,0,0,0-4.93,3.06,13.19,13.19,0,0,0-3.64,12.07l.11.53v0a20.73,20.73,0,0,0,.71,2.75,40.19,40.19,0,0,0,4.53,9.24h0a30.33,30.33,0,0,1,3.72,7.54c2.84,8.76-.18,15-.67,15.91-.09.21-.18.41-.28.6a9.78,9.78,0,0,1-5,4.61c-.24.1-.48.18-.73.26a9.8,9.8,0,0,1-6.81-.27,8.31,8.31,0,0,1-4.53-10.75,7,7,0,0,1,4.17-3.9h0l.13,0a6.58,6.58,0,0,1,7,1.53,5.94,5.94,0,0,1,1.35,2.27,6.08,6.08,0,0,1-.16,4.16h0a2,2,0,0,1-2.64,1.09,2,2,0,0,1-1.16-1.25,2,2,0,0,1,.06-1.4,2,2,0,0,0,.05-1.35,2,2,0,0,0-.44-.75,2,2,0,0,0-1.14-.6,3.33,3.33,0,0,0-1.64.15l-.09,0h0a3,3,0,0,0-1.74,1.58,4.25,4.25,0,0,0,2.33,5.48,5.74,5.74,0,0,0,4,.16,3.16,3.16,0,0,0,.43-.16,5.69,5.69,0,0,0,3.13-3.11v0l.08-.17h0c.1-.21,2.85-5.25.41-12.79a26.94,26.94,0,0,0-3.24-6.55h0a43.54,43.54,0,0,1-5-10.19,22.85,22.85,0,0,1-.84-3.27l-.11-.49a17.26,17.26,0,0,1,4.75-15.77,16.43,16.43,0,0,1,6.56-4.06,15.79,15.79,0,0,1,8.2-.41"/><path class="cls-63" d="M1801.9,815.19c.06.42.13.84.22,1.25a14.46,14.46,0,0,0,7.08,9.46,17.82,17.82,0,0,0,2.21,1.06c4.52,1.82,9.23,1.44,12.84-1.22a12.2,12.2,0,0,0,4.69-12.41,9.93,9.93,0,0,0-4.77-6.44,12.6,12.6,0,0,0-1.61-.79,9.07,9.07,0,0,0-8.89.85,8.53,8.53,0,0,0-3.32,8.72,7.26,7.26,0,0,0,8.59,5.55,2,2,0,1,0-.85-4,3.14,3.14,0,0,1-1.83-.15,3.2,3.2,0,0,1-1.94-2.29,4.5,4.5,0,0,1,1.73-4.58,5,5,0,0,1,5-.37,9.37,9.37,0,0,1,1.11.54,5.89,5.89,0,0,1,2.83,3.79,8.15,8.15,0,0,1-3.12,8.28c-2.46,1.8-5.56,2.07-8.89.75a14,14,0,0,1-1.75-.85,10.21,10.21,0,0,1-5.12-6.78c-.07-.32-.13-.64-.17-1a11.82,11.82,0,0,1,.71-6.09,12.49,12.49,0,0,1,3.39-4.72,13.22,13.22,0,0,1,12.29-2.82l.52.14h0a21.61,21.61,0,0,1,2.69.89,40.71,40.71,0,0,1,8.92,5.14h0a30.4,30.4,0,0,0,7.27,4.22c8.55,3.43,15,.83,15.92.4l.63-.24a9.77,9.77,0,0,0,4.92-4.67c.12-.24.22-.47.32-.71a9.82,9.82,0,0,0,.18-6.82,8.31,8.31,0,0,0-10.42-5.24,7,7,0,0,0-4.17,3.9h0l-.06.14a6.56,6.56,0,0,0,1,7.07,6,6,0,0,0,6.34,1.62h0a2,2,0,0,0-1.3-3.84,2,2,0,0,1-1.36,0,2,2,0,0,1-.71-.49,2,2,0,0,1-.53-1.18,3.44,3.44,0,0,1,.27-1.62l0-.09h0a2.89,2.89,0,0,1,1.69-1.62,4.13,4.13,0,0,1,2.86.1,4.21,4.21,0,0,1,2.45,2.58,5.76,5.76,0,0,1-.1,4c-.06.14-.12.28-.19.42a5.74,5.74,0,0,1-3.32,2.91h0l-.17.07h0c-.21.09-5.43,2.5-12.79-.45a26.72,26.72,0,0,1-6.31-3.67h0a44.54,44.54,0,0,0-9.83-5.67,25.31,25.31,0,0,0-3.2-1l-.49-.14a17.24,17.24,0,0,0-16.05,3.68,16.47,16.47,0,0,0-4.49,6.26,15.86,15.86,0,0,0-1,8.16"/><path class="cls-63" d="M1849.83,816.87a1.73,1.73,0,0,0,0,.32,22.44,22.44,0,0,0,1.24,3.75,12.48,12.48,0,0,0,4.05,5.5,4.34,4.34,0,0,0,2.43.77,4.29,4.29,0,0,0,4.22-4.22,4.4,4.4,0,0,0-.76-2.43,12.64,12.64,0,0,0-5.5-4.06,22.5,22.5,0,0,0-3.75-1.23,1.22,1.22,0,0,0-.32,0,1.62,1.62,0,0,0-1.15.49,1.66,1.66,0,0,0-.49,1.15m7.74,7.1a1.08,1.08,0,0,1-.61-.21h0a7.46,7.46,0,0,1-2.11-2.51,15.5,15.5,0,0,1-.9-1.9,15.48,15.48,0,0,1,2,.95,7.24,7.24,0,0,1,2.44,2.06,1.14,1.14,0,0,1,.21.62,1,1,0,0,1-.3.69,1,1,0,0,1-.69.3"/><path class="cls-63" d="M1786.53,821h31.88a1.7,1.7,0,1,0,0-3.39h-31.88a1.7,1.7,0,0,0,0,3.39"/><path class="cls-63" d="M1856.13,785.73a1.69,1.69,0,0,0,1.69-1.69v-33.4a1.7,1.7,0,0,0-3.39,0V784a1.7,1.7,0,0,0,1.7,1.69"/><path class="cls-63" d="M1824.72,792.71l1.2-1.19a1.7,1.7,0,0,1,0-2.43,1.69,1.69,0,0,1,2.42,0,1.74,1.74,0,0,1,.51,1.21,1.7,1.7,0,0,1-.51,1.21,1.68,1.68,0,0,1-1.21.51,1.74,1.74,0,0,1-1.22-.51l-1.19,1.2-1.2,1.2a5.09,5.09,0,1,0-1.5-3.61,5.08,5.08,0,0,0,1.5,3.61Z"/><rect class="cls-64" x="11.51" y="3" width="1882.98" height="859.97"/><rect class="cls-65" x="26.84" y="15.61" width="1852.32" height="834.76"/></g></g></svg>