<svg xmlns="http://www.w3.org/2000/svg" viewBox="0 0 108.18 110.8"><defs><style>.cls-1{fill:#fff;}.cls-2{fill:#010101;}</style></defs><g id="Layer_2" data-name="Layer 2"><g id="Слой_1" data-name="Слой 1"><path class="cls-1" d="M107,61.89c.16-1.35.27-2.71.33-4.09s.07-2.75,0-4.11l-10-1.85a46.41,46.41,0,0,0-.91-6.16l9-4.8c-.35-1.31-.76-2.61-1.21-3.91s-1-2.57-1.5-3.82l-9.93,2.18a45.72,45.72,0,0,0-3.32-5.63l6.5-8c-.82-1.06-1.68-2.11-2.59-3.13s-1.85-2-2.82-2.92l-8.35,5.94a42,42,0,0,0-4.9-3.7L80.35,8C79.2,7.3,78,6.67,76.79,6.08S74.34,5,73.1,4.46l-5.52,8.73a43,43,0,0,0-6.23-1.57L60.43,1.25c-1.32-.15-2.65-.27-4-.33s-2.69-.07-4,0L50.61,11.14a43.07,43.07,0,0,0-6,.92L39.91,2.84c-1.28.36-2.55.77-3.82,1.24s-2.51,1-3.72,1.53l2.12,10.18A41.83,41.83,0,0,0,29,19.19l-7.81-6.67c-1,.84-2.06,1.73-3.06,2.66s-1.94,1.9-2.85,2.89l5.8,8.55a43.69,43.69,0,0,0-3.62,5L7.78,28.5c-.66,1.18-1.27,2.4-1.85,3.65s-1.1,2.51-1.57,3.78l8.52,5.65A45.07,45.07,0,0,0,11.35,48l-10.12.94C1.07,50.26,1,51.63.9,53s-.07,2.74,0,4.1l10,1.85a44.73,44.73,0,0,0,.9,6.17l-9,4.79c.35,1.31.76,2.62,1.21,3.92s1,2.57,1.5,3.81l9.93-2.17a45.15,45.15,0,0,0,3.33,5.62l-6.51,8c.82,1.07,1.68,2.11,2.59,3.13s1.86,2,2.82,2.92L26,89.22a44.3,44.3,0,0,0,4.9,3.7l-3.07,9.92q1.74,1,3.57,1.89c1.22.59,2.45,1.12,3.68,1.61l5.53-8.73a41.77,41.77,0,0,0,6.23,1.57l.92,10.37c1.32.16,2.65.27,4,.33s2.68.07,4,0l1.81-10.25a41.3,41.3,0,0,0,6-.92L68.27,108c1.28-.37,2.55-.78,3.82-1.25s2.51-1,3.72-1.53L73.69,95a43,43,0,0,0,5.49-3.41L87,98.28c1-.84,2.06-1.73,3.06-2.66S92,93.73,92.9,92.73l-5.8-8.55a43.69,43.69,0,0,0,3.62-5l9.68,3.13c.66-1.18,1.27-2.39,1.85-3.64s1.1-2.51,1.57-3.78L95.3,69.22a44.94,44.94,0,0,0,1.53-6.38Z"/><path class="cls-2" d="M54.11,110.8c-.8,0-1.61,0-2.4,0-1.33-.06-2.7-.17-4.06-.34l-.68-.08-.92-10.41A41.64,41.64,0,0,1,41,98.64l-5.55,8.76-.64-.25c-1.28-.5-2.54-1.05-3.74-1.64s-2.44-1.23-3.62-1.91l-.6-.35,3.07-10a47.33,47.33,0,0,1-3.94-3l-8.38,6-.5-.48c-1-1-1.95-2-2.86-3s-1.79-2.08-2.64-3.18l-.42-.56,6.53-8A46.2,46.2,0,0,1,15,76.46L5,78.64,4.7,78c-.54-1.25-1.05-2.55-1.51-3.87s-.88-2.64-1.24-4l-.18-.68,9-4.82a45.22,45.22,0,0,1-.72-5l-10-1.86,0-.7c0-1.39,0-2.8,0-4.17s.17-2.8.33-4.16l.08-.7,10.17-.94A44.53,44.53,0,0,1,11.88,42L3.32,36.27l.25-.66c.48-1.28,1-2.57,1.59-3.83S6.37,29.28,7,28.07l.34-.61,9.72,3.15a46.48,46.48,0,0,1,2.91-4L14.19,18l.47-.52c.93-1,1.9-2,2.9-2.93s2-1.84,3.11-2.7l.54-.43L29,18.1a44.53,44.53,0,0,1,4.49-2.78L31.4,5.1,32,4.82c1.26-.57,2.53-1.1,3.79-1.56S38.37,2.37,39.69,2l.66-.19,4.7,9.26a45,45,0,0,1,4.85-.74L51.71.05l.68,0c1.36,0,2.73,0,4.08,0s2.7.18,4.06.34l.68.09.92,10.4a46.2,46.2,0,0,1,5.09,1.28L72.77,3.4l.64.25c1.27.5,2.53,1.05,3.74,1.64s2.44,1.23,3.62,1.92l.6.34-3.07,10a45.12,45.12,0,0,1,3.94,3l8.38-6,.5.49C92.1,16,93.06,17,94,18s1.8,2.09,2.64,3.18l.42.55-6.53,8a44.94,44.94,0,0,1,2.71,4.59l10-2.18.29.64c.55,1.27,1.06,2.58,1.51,3.87s.88,2.64,1.24,4l.18.68-9,4.81a45.4,45.4,0,0,1,.72,5l10,1.85,0,.71c0,1.39,0,2.79,0,4.17S108,60.61,107.8,62l-.08.69-10.17,1a43.89,43.89,0,0,1-1.25,5.21l8.56,5.68-.25.66c-.49,1.3-1,2.59-1.59,3.84s-1.21,2.49-1.88,3.7l-.34.61L91.08,80.2a46.33,46.33,0,0,1-2.91,4L94,92.82l-.47.51c-.93,1-1.91,2-2.9,2.93s-2,1.84-3.11,2.7L87,99.4l-7.83-6.69a44,44,0,0,1-4.49,2.77l2.13,10.22-.63.28c-1.24.57-2.51,1.1-3.77,1.56s-2.57.89-3.89,1.26l-.66.19-4.7-9.26a40.79,40.79,0,0,1-4.85.74l-1.81,10.29-.68,0-1.68,0m-5.58-2c1.09.11,2.18.2,3.26.24s2.17.07,3.26,0l1.8-10.21.65,0a41.17,41.17,0,0,0,5.9-.91l.64-.14,4.66,9.19c1-.32,2.09-.66,3.1-1s2-.79,3-1.23L72.72,94.55l.59-.31a43.31,43.31,0,0,0,5.38-3.33l.53-.39L87,97.16c.85-.71,1.68-1.44,2.47-2.18s1.58-1.53,2.34-2.33L86,84.13l.43-.51A42,42,0,0,0,90,78.7l.35-.56L100,81.26c.53-1,1-2,1.48-3s.9-2,1.3-3.07l-8.49-5.63.2-.64A43.93,43.93,0,0,0,96,62.69l.1-.66,10.09-.94c.11-1.11.2-2.23.24-3.33s.06-2.22,0-3.34l-10-1.84-.05-.67a46.25,46.25,0,0,0-.88-6l-.15-.65,9-4.78c-.31-1.07-.65-2.14-1-3.18s-.77-2.08-1.2-3.11l-9.89,2.16-.3-.59a43.71,43.71,0,0,0-3.26-5.52l-.38-.54,6.49-8c-.69-.87-1.4-1.71-2.13-2.53s-1.5-1.62-2.27-2.39l-8.32,5.91-.5-.43a43.17,43.17,0,0,0-4.8-3.63l-.55-.36,3-9.88c-1-.54-1.94-1.05-2.91-1.52s-2-.92-3-1.33l-5.5,8.7L67.32,14a40.9,40.9,0,0,0-6.12-1.54l-.64-.11L59.64,2c-1.08-.12-2.17-.2-3.25-.25s-2.17-.06-3.26-.05L51.33,12l-.65.05a42.16,42.16,0,0,0-5.9.91l-.64.15-4.66-9.2c-1,.32-2.09.67-3.1,1s-2,.78-3,1.22l2.12,10.14-.59.3a42.94,42.94,0,0,0-5.38,3.34l-.53.39-7.78-6.65c-.85.71-1.68,1.44-2.47,2.18s-1.59,1.54-2.34,2.34l5.78,8.52-.43.5a43.77,43.77,0,0,0-3.54,4.92l-.35.56L8.18,29.54c-.52,1-1,2-1.48,3s-.9,2-1.3,3.06l8.49,5.64-.2.63a44.93,44.93,0,0,0-1.51,6.26l-.1.66L2,49.71c-.11,1.1-.19,2.22-.24,3.33s-.06,2.23-.05,3.35l10,1.84.05.66a45,45,0,0,0,.88,6l.15.65-9,4.78c.31,1.07.64,2.13,1,3.17s.77,2.1,1.2,3.11l9.89-2.16.3.6a44.31,44.31,0,0,0,3.26,5.51l.38.54-6.49,8c.69.88,1.41,1.72,2.13,2.53s1.49,1.62,2.27,2.4L26,88.12l.5.44a41.89,41.89,0,0,0,4.8,3.62l.55.36-3.05,9.88c1,.55,1.94,1,2.91,1.52s2,.92,3,1.33l5.5-8.69.62.21A40.88,40.88,0,0,0,47,98.32l.64.12Z"/><path class="cls-2" d="M54.09,93.6a36.38,36.38,0,0,1-14.52-3,37,37,0,0,1-11.85-8.19,37.8,37.8,0,0,1-8-12.14,39.07,39.07,0,0,1,0-29.74,37.9,37.9,0,0,1,8-12.14A37.15,37.15,0,0,1,39.57,20.2a36.64,36.64,0,0,1,29,0,37.15,37.15,0,0,1,11.85,8.19,37.9,37.9,0,0,1,8,12.14,39.07,39.07,0,0,1,0,29.74,37.8,37.8,0,0,1-8,12.14A37,37,0,0,1,68.61,90.6a36.38,36.38,0,0,1-14.52,3m0-74.66A34.68,34.68,0,0,0,40.23,21.8a35.47,35.47,0,0,0-11.31,7.82,36.38,36.38,0,0,0-7.63,11.59,37.36,37.36,0,0,0,0,28.38,36.31,36.31,0,0,0,7.63,11.6A35.6,35.6,0,0,0,40.23,89,34.9,34.9,0,0,0,68,89a35.6,35.6,0,0,0,11.31-7.81,36.31,36.31,0,0,0,7.63-11.6,37.36,37.36,0,0,0,0-28.38,36.38,36.38,0,0,0-7.63-11.59A35.47,35.47,0,0,0,68,21.8a34.68,34.68,0,0,0-13.86-2.86"/><path class="cls-2" d="M78.1,55.4C78.1,69,67.35,80,54.09,80s-24-11-24-24.6,10.75-24.59,24-24.59,24,11,24,24.59"/><path class="cls-1" d="M53.22,83.76l-.72-3.21h0c.19,0,4.6-1.26,5.74-8.22C59.45,64.89,57,61.16,53.6,56a62.44,62.44,0,0,1-5.47-9.62c-2.48-5.64-2.8-10.31-1-13.88a10.87,10.87,0,0,1,7.22-5.37L55,30.38h0a7.7,7.7,0,0,0-5,3.69c-1.34,2.62-1,6.31,1.07,11a59.54,59.54,0,0,0,5.2,9.13c3.52,5.35,6.57,10,5.14,18.71C59.9,82.1,53.49,83.7,53.22,83.76"/></g></g></svg>