<svg xmlns="http://www.w3.org/2000/svg" viewBox="0 0 151.98 74.52"><defs><style>.cls-1{fill:#fff;}.cls-2{fill:#010101;}</style></defs><g id="Layer_2" data-name="Layer 2"><g id="Слой_1" data-name="Слой 1"><polyline class="cls-1" points="151.18 9.72 133.5 0.82 133.5 12.44"/><path class="cls-2" d="M133.5,13.27a.82.82,0,0,1-.8-.83V.82a.84.84,0,0,1,.38-.7.8.8,0,0,1,.78,0L151.53,9a.83.83,0,0,1,.37,1.1.8.8,0,0,1-1.08.38L134.31,2.15V12.44a.82.82,0,0,1-.81.83"/><polyline class="cls-1" points="0.96 64.87 19.93 73.69 19.93 62.08"/><path class="cls-2" d="M19.93,74.52a.75.75,0,0,1-.33-.07l-19-8.83a.83.83,0,0,1-.4-1.09.81.81,0,0,1,1.07-.41l17.83,8.29V62.08a.82.82,0,0,1,.81-.83.81.81,0,0,1,.8.83V73.7a.84.84,0,0,1-.36.69.8.8,0,0,1-.44.13"/><polygon class="cls-1" points="150.39 42.72 0.81 64.53 1.4 32.02 150.99 10.21 150.39 42.72"/><path class="cls-2" d="M.81,65.36a.78.78,0,0,1-.54-.21A.83.83,0,0,1,0,64.52L.6,32a.82.82,0,0,1,.69-.8L150.88,9.39a.79.79,0,0,1,.65.2.82.82,0,0,1,.26.63l-.59,32.52a.83.83,0,0,1-.69.8L.92,65.35H.81M2.19,32.74,1.63,63.58,149.6,42l.57-30.84Z"/><polygon class="cls-2" points="85.09 44.04 82.07 44.5 77.65 34.67 77.65 45.17 74.63 45.63 74.63 29.62 77.65 29.16 82.08 39 82.08 28.49 85.09 28.03 85.09 44.04"/><path class="cls-2" d="M19,48.87a7.19,7.19,0,0,1-1.44,4.36,5.77,5.77,0,0,1-3.74,2A4,4,0,0,1,9.9,54a7.4,7.4,0,0,1-1.35-4.89V46.43a9.08,9.08,0,0,1,1.4-5.3,5.53,5.53,0,0,1,3.88-2.38,4.07,4.07,0,0,1,3.71.9,6,6,0,0,1,1.45,4l-3,.46a4.1,4.1,0,0,0-.49-2.26,1.63,1.63,0,0,0-1.64-.4,2.15,2.15,0,0,0-1.71,1.17,7.23,7.23,0,0,0-.54,3.07v3a7,7,0,0,0,.5,3.21,1.55,1.55,0,0,0,1.71.63,2.28,2.28,0,0,0,1.64-.88A4.74,4.74,0,0,0,16,49.33Z"/><path class="cls-2" d="M31.35,45.75A8.78,8.78,0,0,1,29.93,51,5.69,5.69,0,0,1,26,53.35,4.18,4.18,0,0,1,22,52.19a6.78,6.78,0,0,1-1.46-4.72V44.73A9.28,9.28,0,0,1,22,39.36a5.69,5.69,0,0,1,4-2.46,4.13,4.13,0,0,1,3.93,1.22A7.25,7.25,0,0,1,31.35,43Zm-3-2.22a6.48,6.48,0,0,0-.57-3.14A1.63,1.63,0,0,0,26,39.61a2.31,2.31,0,0,0-1.78,1.29,7.2,7.2,0,0,0-.59,3.18v2.85a5.82,5.82,0,0,0,.58,3,1.68,1.68,0,0,0,1.81.72,2.3,2.3,0,0,0,1.76-1.24,6.85,6.85,0,0,0,.58-3.11Z"/><polygon class="cls-2" points="41.23 44.28 36.53 44.99 36.53 51.53 33.52 51.98 33.52 35.97 41.79 34.71 41.79 37.41 36.53 38.21 36.53 42.31 41.23 41.59 41.23 44.28"/><polygon class="cls-2" points="51.23 42.76 46.54 43.47 46.54 50 43.52 50.46 43.52 34.45 51.8 33.19 51.8 35.88 46.54 36.68 46.54 40.78 51.23 40.07 51.23 42.76"/><polygon class="cls-2" points="61.24 40.84 56.54 41.55 56.54 45.8 62.1 44.95 62.1 47.63 53.52 48.94 53.52 32.93 62.08 31.62 62.08 34.32 56.54 35.16 56.54 38.95 61.24 38.23 61.24 40.84"/><polygon class="cls-2" points="71.56 39.26 66.86 39.98 66.86 44.23 72.42 43.38 72.42 46.06 63.84 47.37 63.84 31.36 72.4 30.05 72.4 32.74 66.86 33.59 66.86 37.37 71.56 36.66 71.56 39.26"/><path class="cls-2" d="M97.56,35.67a8.78,8.78,0,0,1-1.42,5.22,5.7,5.7,0,0,1-4,2.38,4.18,4.18,0,0,1-4-1.16,6.78,6.78,0,0,1-1.46-4.72V34.65a9.28,9.28,0,0,1,1.43-5.37,5.65,5.65,0,0,1,4-2.46A4.12,4.12,0,0,1,96.1,28a7.19,7.19,0,0,1,1.46,4.89Zm-3-2.22A6.48,6.48,0,0,0,94,30.31a1.6,1.6,0,0,0-1.79-.78,2.29,2.29,0,0,0-1.77,1.28A7.09,7.09,0,0,0,89.8,34v2.85a5.82,5.82,0,0,0,.58,3,1.69,1.69,0,0,0,1.81.72A2.33,2.33,0,0,0,94,39.34a6.74,6.74,0,0,0,.58-3.11Z"/><polygon class="cls-2" points="103.67 25.29 106.5 36.44 109.31 24.43 113.25 23.83 113.25 39.85 110.22 40.31 110.22 35.97 110.5 29.25 107.51 40.72 105.46 41.03 102.47 30.48 102.75 37.11 102.75 41.45 99.73 41.91 99.73 25.89 103.67 25.29"/><polygon class="cls-2" points="118.83 39 115.81 39.45 115.81 23.44 118.83 22.98 118.83 39"/><path class="cls-2" d="M131.5,31.73a7.13,7.13,0,0,1-1.44,4.37,5.79,5.79,0,0,1-3.74,2,4,4,0,0,1-3.88-1.2A7.43,7.43,0,0,1,121.09,32v-2.7a9.11,9.11,0,0,1,1.39-5.3,5.58,5.58,0,0,1,3.89-2.37,4.09,4.09,0,0,1,3.71.89,6.08,6.08,0,0,1,1.44,4l-3,.47a4.14,4.14,0,0,0-.49-2.27c-.29-.38-.84-.51-1.63-.39a2.16,2.16,0,0,0-1.72,1.17,7.21,7.21,0,0,0-.53,3.06v3a6.92,6.92,0,0,0,.49,3.2,1.56,1.56,0,0,0,1.71.63,2.25,2.25,0,0,0,1.65-.87,4.81,4.81,0,0,0,.51-2.33Z"/><path class="cls-2" d="M141.11,32.09l-4.12.62-.8,3.4-3.2.49,4.68-16.73,2.76-.42,4.7,15.3-3.22.49Zm-3.46-2.17,2.79-.43L139,24Z"/></g></g></svg>