<svg xmlns="http://www.w3.org/2000/svg" viewBox="0 0 440.4 375.64"><defs><style>.cls-1,.cls-3,.cls-4,.cls-5,.cls-6,.cls-7{stroke:#000;stroke-miterlimit:10;}.cls-2{fill:none;stroke:#333;stroke-linecap:round;stroke-linejoin:round;stroke-width:5px;}.cls-3{fill:#b3b3b3;}.cls-4{fill:gray;}.cls-5{fill:#333;}.cls-6{fill:#ccc;}.cls-7{fill:#e6e6e6;}.cls-8{fill:#666;}</style></defs><g id="Layer_2" data-name="Layer 2"><g id="Слой_1" data-name="Слой 1"><rect class="cls-1" x="2.5" y="7.57" width="435.4" height="20.99"/><polyline class="cls-2" points="2.5 2.5 2.5 65.37 41.59 104.46"/><polyline class="cls-2" points="437.9 3.06 437.9 65.93 398.81 105.02"/><path class="cls-3" d="M70.16,375.14h0a9.5,9.5,0,0,1-9.44-8.45l-3.06-27.54h25l-3.06,27.54A9.49,9.49,0,0,1,70.16,375.14Z"/><path class="cls-3" d="M384.05,375.14h0a9.49,9.49,0,0,1-9.43-8.45l-3.06-27.54h25l-3.06,27.54A9.5,9.5,0,0,1,384.05,375.14Z"/><rect class="cls-4" x="35.07" y="43.62" width="373.88" height="304.03"/><rect class="cls-1" x="34.67" y="245.18" width="374.88" height="9"/><rect class="cls-5" x="35.11" y="43.62" width="373.79" height="198.77"/><rect class="cls-5" x="16.57" y="250.18" width="410.87" height="22.99"/><circle class="cls-1" cx="116.38" cy="249.18" r="6"/><circle class="cls-1" cx="335.42" cy="249.18" r="6"/><rect class="cls-6" x="196.93" y="236.18" width="44.99" height="42.99"/><circle class="cls-7" cx="204.61" cy="273.17" r="4"/><circle class="cls-7" cx="234.6" cy="273.17" r="4"/><circle class="cls-7" cx="219.42" cy="257.18" r="11"/><circle class="cls-1" cx="219.42" cy="257.18" r="3.25"/><rect class="cls-1" x="218.42" y="236.18" width="2" height="19.99"/><rect class="cls-8" x="35.17" y="305.13" width="373.88" height="1.92"/><rect class="cls-8" x="35.17" y="300.52" width="373.88" height="1.63"/><rect class="cls-8" x="35.17" y="295.91" width="373.88" height="1.34"/><rect class="cls-8" x="35.17" y="291.3" width="373.88" height="1.06"/><rect class="cls-8" x="35.17" y="286.69" width="373.88" height="0.77"/><rect class="cls-8" x="35.17" y="282.08" width="373.88" height="0.48"/><rect class="cls-8" x="35.17" y="309.48" width="373.88" height="37.17"/><rect class="cls-1" x="91.22" y="76.77" width="47.45" height="145.01" rx="18"/><rect class="cls-1" x="201.95" y="76.77" width="47.45" height="145.01" rx="18"/><rect class="cls-1" x="312.67" y="76.77" width="47.45" height="145.01" rx="18"/><rect class="cls-1" x="111" y="43.62" width="6.59" height="40.05"/><rect class="cls-1" x="223.04" y="43.62" width="6.59" height="40.05"/><rect class="cls-1" x="333.76" y="43.62" width="6.59" height="40.05"/></g></g></svg>