<svg xmlns="http://www.w3.org/2000/svg" viewBox="0 0 438.85 223.41"><defs><style>.cls-1{fill:#b3b3b3;}.cls-1,.cls-2,.cls-3,.cls-4,.cls-5,.cls-6{stroke:#000;stroke-miterlimit:10;}.cls-2{fill:gray;}.cls-4{fill:#333;}.cls-5{fill:#ccc;}.cls-6{fill:#e6e6e6;}.cls-7{fill:#666;}</style></defs><g id="Layer_2" data-name="Layer 2"><g id="Слой_1" data-name="Слой 1"><path class="cls-1" d="M76.63,222.91h0a9.46,9.46,0,0,1-9.4-8.41l-3-27.41H89.07L86,214.5A9.45,9.45,0,0,1,76.63,222.91Z"/><path class="cls-1" d="M389.1,222.91h0a9.46,9.46,0,0,1-9.4-8.41l-3-27.41h24.88l-3.05,27.41A9.45,9.45,0,0,1,389.1,222.91Z"/><rect class="cls-2" x="41.7" y="0.5" width="372.18" height="195.04"/><rect class="cls-3" x="0.5" y="32.84" width="437.85" height="20.9"/><rect class="cls-3" x="41.3" y="93.54" width="373.17" height="8.96"/><rect class="cls-4" x="23.29" y="72.65" width="409" height="22.89"/><rect class="cls-4" x="23.29" y="98.52" width="409" height="22.89"/><circle class="cls-3" cx="117.92" cy="97.52" r="5.97"/><circle class="cls-3" cx="328.89" cy="97.52" r="5.97"/><rect class="cls-5" x="202.82" y="84.59" width="44.78" height="42.79"/><circle class="cls-6" cx="210.47" cy="121.41" r="3.98"/><circle class="cls-6" cx="240.32" cy="121.41" r="3.98"/><circle class="cls-6" cx="225.21" cy="105.49" r="10.95"/><circle class="cls-3" cx="225.21" cy="105.49" r="3.23"/><rect class="cls-3" x="224.22" y="84.59" width="1.99" height="19.9"/><rect class="cls-7" x="41.8" y="153.22" width="372.18" height="1.91"/><rect class="cls-7" x="41.8" y="148.63" width="372.18" height="1.62"/><rect class="cls-7" x="41.8" y="144.04" width="372.18" height="1.34"/><rect class="cls-7" x="41.8" y="139.45" width="372.18" height="1.05"/><rect class="cls-7" x="41.8" y="134.87" width="372.18" height="0.77"/><rect class="cls-7" x="41.8" y="130.28" width="372.18" height="0.48"/><rect class="cls-7" x="41.8" y="157.55" width="372.18" height="37"/></g></g></svg>