<svg xmlns="http://www.w3.org/2000/svg" viewBox="0 0 69.21 69.21"><defs><style>.cls-1{fill:#6e9baa;}</style></defs><g id="Layer_2" data-name="Layer 2"><g id="Слой_1" data-name="Слой 1"><g id="_7BDB9767-77C9-4314-ABFA-D4D1DDA86224" data-name="7BDB9767-77C9-4314-ABFA-D4D1DDA86224"><rect class="cls-1" width="2.77" height="2.77"/><rect class="cls-1" y="2.77" width="2.77" height="2.77"/><rect class="cls-1" x="2.77" width="2.77" height="2.77"/><rect class="cls-1" y="5.54" width="2.77" height="2.77"/><rect class="cls-1" x="5.54" width="2.77" height="2.77"/><rect class="cls-1" y="8.31" width="2.77" height="2.77"/><rect class="cls-1" x="8.31" width="2.77" height="2.77"/><rect class="cls-1" y="11.07" width="2.77" height="2.77"/><rect class="cls-1" x="11.07" width="2.77" height="2.77"/><rect class="cls-1" y="13.84" width="2.77" height="2.77"/><rect class="cls-1" x="13.84" width="2.77" height="2.77"/><rect class="cls-1" y="16.61" width="2.77" height="2.77"/><rect class="cls-1" x="16.61" width="2.77" height="2.77"/><rect class="cls-1" x="2.77" y="16.61" width="2.77" height="2.77"/><rect class="cls-1" x="16.61" y="2.77" width="2.77" height="2.77"/><rect class="cls-1" x="5.54" y="16.61" width="2.77" height="2.77"/><rect class="cls-1" x="16.61" y="5.54" width="2.77" height="2.77"/><rect class="cls-1" x="8.31" y="16.61" width="2.77" height="2.77"/><rect class="cls-1" x="16.61" y="8.31" width="2.77" height="2.77"/><rect class="cls-1" x="11.07" y="16.61" width="2.77" height="2.77"/><rect class="cls-1" x="16.61" y="11.07" width="2.77" height="2.77"/><rect class="cls-1" x="13.84" y="16.61" width="2.77" height="2.77"/><rect class="cls-1" x="16.61" y="13.84" width="2.77" height="2.77"/><rect class="cls-1" x="16.61" y="16.61" width="2.77" height="2.77"/></g><g id="D382CFF9-C47D-4213-BB37-0ABBA8252B04"><rect class="cls-1" y="30.45" width="2.77" height="2.77"/></g><g id="AA164626-60DE-4C2C-9F04-8F4AAA4D5382"><rect class="cls-1" y="35.99" width="2.77" height="2.77"/><rect class="cls-1" y="38.76" width="2.77" height="2.77"/><rect class="cls-1" y="41.53" width="2.77" height="2.77"/><rect class="cls-1" x="2.77" y="38.76" width="2.77" height="2.77"/><rect class="cls-1" y="44.3" width="2.77" height="2.77"/></g><g id="B6A2A8F5-8048-432D-B68D-43A20F3283A3"><rect class="cls-1" y="49.83" width="2.77" height="2.77"/><rect class="cls-1" y="52.6" width="2.77" height="2.77"/><rect class="cls-1" x="2.77" y="49.83" width="2.77" height="2.77"/><rect class="cls-1" y="55.37" width="2.77" height="2.77"/><rect class="cls-1" x="5.54" y="49.83" width="2.77" height="2.77"/><rect class="cls-1" y="58.14" width="2.77" height="2.77"/><rect class="cls-1" x="8.31" y="49.83" width="2.77" height="2.77"/><rect class="cls-1" y="60.91" width="2.77" height="2.77"/><rect class="cls-1" x="11.07" y="49.83" width="2.77" height="2.77"/><rect class="cls-1" y="63.68" width="2.77" height="2.77"/><rect class="cls-1" x="13.84" y="49.83" width="2.77" height="2.77"/><rect class="cls-1" y="66.45" width="2.77" height="2.77"/><rect class="cls-1" x="16.61" y="49.83" width="2.77" height="2.77"/><rect class="cls-1" x="2.77" y="66.45" width="2.77" height="2.77"/><rect class="cls-1" x="16.61" y="52.6" width="2.77" height="2.77"/><rect class="cls-1" x="5.54" y="66.45" width="2.77" height="2.77"/><rect class="cls-1" x="16.61" y="55.37" width="2.77" height="2.77"/><rect class="cls-1" x="8.31" y="66.45" width="2.77" height="2.77"/><rect class="cls-1" x="16.61" y="58.14" width="2.77" height="2.77"/><rect class="cls-1" x="11.07" y="66.45" width="2.77" height="2.77"/><rect class="cls-1" x="16.61" y="60.91" width="2.77" height="2.77"/><rect class="cls-1" x="13.84" y="66.45" width="2.77" height="2.77"/><rect class="cls-1" x="16.61" y="63.68" width="2.77" height="2.77"/><rect class="cls-1" x="16.61" y="66.45" width="2.77" height="2.77"/></g><g id="A9647D90-1DBA-433B-99C7-19997AA1A818"><rect class="cls-1" x="2.77" y="22.15" width="2.77" height="2.77"/></g><g id="_596254F3-6B0A-4276-BB1D-929506852DFF" data-name="596254F3-6B0A-4276-BB1D-929506852DFF"><rect class="cls-1" x="2.77" y="27.69" width="2.77" height="2.77"/><rect class="cls-1" x="5.54" y="27.69" width="2.77" height="2.77"/><rect class="cls-1" x="8.31" y="27.69" width="2.77" height="2.77"/><rect class="cls-1" x="8.31" y="30.45" width="2.77" height="2.77"/><rect class="cls-1" x="11.07" y="27.69" width="2.77" height="2.77"/></g><g id="BE134B78-3580-48A7-8C86-71C4F32D5949"><rect class="cls-1" x="5.54" y="5.54" width="2.77" height="2.77"/><rect class="cls-1" x="5.54" y="8.31" width="2.77" height="2.77"/><rect class="cls-1" x="8.31" y="5.54" width="2.77" height="2.77"/><rect class="cls-1" x="5.54" y="11.07" width="2.77" height="2.77"/><rect class="cls-1" x="8.31" y="8.31" width="2.77" height="2.77"/><rect class="cls-1" x="11.07" y="5.54" width="2.77" height="2.77"/><rect class="cls-1" x="8.31" y="11.07" width="2.77" height="2.77"/><rect class="cls-1" x="11.07" y="8.31" width="2.77" height="2.77"/><rect class="cls-1" x="11.07" y="11.07" width="2.77" height="2.77"/></g><g id="_9E3EBE3E-1154-47EE-A693-396DE4A7DC90" data-name="9E3EBE3E-1154-47EE-A693-396DE4A7DC90"><rect class="cls-1" x="5.54" y="33.22" width="2.77" height="2.77"/><rect class="cls-1" x="5.54" y="35.99" width="2.77" height="2.77"/><rect class="cls-1" x="8.31" y="35.99" width="2.77" height="2.77"/><rect class="cls-1" x="8.31" y="38.76" width="2.77" height="2.77"/><rect class="cls-1" x="11.07" y="35.99" width="2.77" height="2.77"/><rect class="cls-1" x="13.84" y="35.99" width="2.77" height="2.77"/><rect class="cls-1" x="13.84" y="33.22" width="2.77" height="2.77"/><rect class="cls-1" x="13.84" y="38.76" width="2.77" height="2.77"/><rect class="cls-1" x="13.84" y="30.45" width="2.77" height="2.77"/><rect class="cls-1" x="16.61" y="33.22" width="2.77" height="2.77"/><rect class="cls-1" x="13.84" y="41.53" width="2.77" height="2.77"/><rect class="cls-1" x="16.61" y="38.76" width="2.77" height="2.77"/><rect class="cls-1" x="13.84" y="44.3" width="2.77" height="2.77"/><rect class="cls-1" x="19.38" y="38.76" width="2.77" height="2.77"/><rect class="cls-1" x="11.07" y="44.3" width="2.77" height="2.77"/><rect class="cls-1" x="16.61" y="44.3" width="2.77" height="2.77"/><rect class="cls-1" x="22.15" y="38.76" width="2.77" height="2.77"/><rect class="cls-1" x="8.31" y="44.3" width="2.77" height="2.77"/><rect class="cls-1" x="24.92" y="38.76" width="2.77" height="2.77"/><rect class="cls-1" x="5.54" y="44.3" width="2.77" height="2.77"/><rect class="cls-1" x="24.92" y="35.99" width="2.77" height="2.77"/><rect class="cls-1" x="5.54" y="41.53" width="2.77" height="2.77"/><rect class="cls-1" x="24.92" y="33.22" width="2.77" height="2.77"/><rect class="cls-1" x="22.15" y="33.22" width="2.77" height="2.77"/><rect class="cls-1" x="24.92" y="30.45" width="2.77" height="2.77"/><rect class="cls-1" x="24.92" y="27.69" width="2.77" height="2.77"/><rect class="cls-1" x="27.69" y="30.45" width="2.77" height="2.77"/><rect class="cls-1" x="30.45" y="30.45" width="2.77" height="2.77"/></g><g id="_137E0D86-7F48-4788-8AE2-FA0D12DF646F" data-name="137E0D86-7F48-4788-8AE2-FA0D12DF646F"><rect class="cls-1" x="5.54" y="55.37" width="2.77" height="2.77"/><rect class="cls-1" x="5.54" y="58.14" width="2.77" height="2.77"/><rect class="cls-1" x="8.31" y="55.37" width="2.77" height="2.77"/><rect class="cls-1" x="5.54" y="60.91" width="2.77" height="2.77"/><rect class="cls-1" x="8.31" y="58.14" width="2.77" height="2.77"/><rect class="cls-1" x="11.07" y="55.37" width="2.77" height="2.77"/><rect class="cls-1" x="8.31" y="60.91" width="2.77" height="2.77"/><rect class="cls-1" x="11.07" y="58.14" width="2.77" height="2.77"/><rect class="cls-1" x="11.07" y="60.91" width="2.77" height="2.77"/></g><g id="_30F66CEC-040D-4DF9-8F48-CA6F8EE9F93D" data-name="30F66CEC-040D-4DF9-8F48-CA6F8EE9F93D"><rect class="cls-1" x="8.31" y="22.15" width="2.77" height="2.77"/><rect class="cls-1" x="11.07" y="22.15" width="2.77" height="2.77"/><rect class="cls-1" x="13.84" y="22.15" width="2.77" height="2.77"/><rect class="cls-1" x="13.84" y="24.92" width="2.77" height="2.77"/><rect class="cls-1" x="16.61" y="22.15" width="2.77" height="2.77"/></g><g id="_0EFE2874-D426-4B98-813B-4ED3F538D77A" data-name="0EFE2874-D426-4B98-813B-4ED3F538D77A"><rect class="cls-1" x="16.61" y="27.69" width="2.77" height="2.77"/></g><g id="_47850D3C-74C9-4CB0-969A-7D1BD7C0934E" data-name="47850D3C-74C9-4CB0-969A-7D1BD7C0934E"><rect class="cls-1" x="19.38" y="24.92" width="2.77" height="2.77"/></g><g id="_690B7016-08D0-4ED9-A026-E5ADC3A81441" data-name="690B7016-08D0-4ED9-A026-E5ADC3A81441"><rect class="cls-1" x="22.15" y="2.77" width="2.77" height="2.77"/></g><g id="E2A41DDF-7E6B-407C-98D5-CD5AE526BD46"><rect class="cls-1" x="22.15" y="8.31" width="2.77" height="2.77"/><rect class="cls-1" x="22.15" y="11.07" width="2.77" height="2.77"/></g><g id="_4A5B7994-E808-4AF6-90B5-3B95D6D92DE7" data-name="4A5B7994-E808-4AF6-90B5-3B95D6D92DE7"><rect class="cls-1" x="22.15" y="16.61" width="2.77" height="2.77"/><rect class="cls-1" x="22.15" y="19.38" width="2.77" height="2.77"/><rect class="cls-1" x="22.15" y="22.15" width="2.77" height="2.77"/></g><g id="E9A175BA-EE85-47C6-85A7-51BBBBB2AB34"><rect class="cls-1" x="22.15" y="44.3" width="2.77" height="2.77"/><rect class="cls-1" x="22.15" y="47.07" width="2.77" height="2.77"/><rect class="cls-1" x="24.92" y="47.07" width="2.77" height="2.77"/><rect class="cls-1" x="24.92" y="49.83" width="2.77" height="2.77"/><rect class="cls-1" x="27.69" y="47.07" width="2.77" height="2.77"/><rect class="cls-1" x="24.92" y="52.6" width="2.77" height="2.77"/><rect class="cls-1" x="27.69" y="44.3" width="2.77" height="2.77"/><rect class="cls-1" x="22.15" y="52.6" width="2.77" height="2.77"/><rect class="cls-1" x="24.92" y="55.37" width="2.77" height="2.77"/><rect class="cls-1" x="27.69" y="52.6" width="2.77" height="2.77"/><rect class="cls-1" x="22.15" y="55.37" width="2.77" height="2.77"/><rect class="cls-1" x="24.92" y="58.14" width="2.77" height="2.77"/><rect class="cls-1" x="27.69" y="55.37" width="2.77" height="2.77"/><rect class="cls-1" x="22.15" y="58.14" width="2.77" height="2.77"/><rect class="cls-1" x="24.92" y="60.91" width="2.77" height="2.77"/><rect class="cls-1" x="30.45" y="55.37" width="2.77" height="2.77"/><rect class="cls-1" x="24.92" y="63.68" width="2.77" height="2.77"/><rect class="cls-1" x="30.45" y="58.14" width="2.77" height="2.77"/><rect class="cls-1" x="22.15" y="63.68" width="2.77" height="2.77"/></g><g id="_3675DCF6-7437-4F02-B61B-EF537D817FE3" data-name="3675DCF6-7437-4F02-B61B-EF537D817FE3"><rect class="cls-1" x="24.92" width="2.77" height="2.77"/><rect class="cls-1" x="27.69" width="2.77" height="2.77"/></g><g id="_1FC78BE9-D01B-463A-9269-4EE278F95AE0" data-name="1FC78BE9-D01B-463A-9269-4EE278F95AE0"><rect class="cls-1" x="27.69" y="5.54" width="2.77" height="2.77"/><rect class="cls-1" x="30.45" y="5.54" width="2.77" height="2.77"/></g><g id="_255D6D39-6634-4284-8708-8C483B649C65" data-name="255D6D39-6634-4284-8708-8C483B649C65"><rect class="cls-1" x="27.69" y="13.84" width="2.77" height="2.77"/><rect class="cls-1" x="27.69" y="16.61" width="2.77" height="2.77"/><rect class="cls-1" x="30.45" y="13.84" width="2.77" height="2.77"/><rect class="cls-1" x="30.45" y="11.07" width="2.77" height="2.77"/><rect class="cls-1" x="33.22" y="13.84" width="2.77" height="2.77"/><rect class="cls-1" x="33.22" y="11.07" width="2.77" height="2.77"/><rect class="cls-1" x="33.22" y="16.61" width="2.77" height="2.77"/><rect class="cls-1" x="35.99" y="13.84" width="2.77" height="2.77"/><rect class="cls-1" x="33.22" y="8.31" width="2.77" height="2.77"/><rect class="cls-1" x="35.99" y="11.07" width="2.77" height="2.77"/><rect class="cls-1" x="33.22" y="19.38" width="2.77" height="2.77"/><rect class="cls-1" x="38.76" y="13.84" width="2.77" height="2.77"/><rect class="cls-1" x="38.76" y="11.07" width="2.77" height="2.77"/><rect class="cls-1" x="38.76" y="16.61" width="2.77" height="2.77"/><rect class="cls-1" x="38.76" y="8.31" width="2.77" height="2.77"/><rect class="cls-1" x="38.76" y="19.38" width="2.77" height="2.77"/><rect class="cls-1" x="38.76" y="5.54" width="2.77" height="2.77"/><rect class="cls-1" x="38.76" y="22.15" width="2.77" height="2.77"/><rect class="cls-1" x="41.53" y="19.38" width="2.77" height="2.77"/><rect class="cls-1" x="35.99" y="5.54" width="2.77" height="2.77"/><rect class="cls-1" x="38.76" y="2.77" width="2.77" height="2.77"/><rect class="cls-1" x="35.99" y="22.15" width="2.77" height="2.77"/><rect class="cls-1" x="38.76" y="24.92" width="2.77" height="2.77"/><rect class="cls-1" x="44.3" y="19.38" width="2.77" height="2.77"/><rect class="cls-1" x="38.76" width="2.77" height="2.77"/><rect class="cls-1" x="38.76" y="27.69" width="2.77" height="2.77"/><rect class="cls-1" x="41.53" y="24.92" width="2.77" height="2.77"/><rect class="cls-1" x="44.3" y="16.61" width="2.77" height="2.77"/><rect class="cls-1" x="44.3" y="22.15" width="2.77" height="2.77"/><rect class="cls-1" x="38.76" y="30.45" width="2.77" height="2.77"/><rect class="cls-1" x="41.53" y="27.69" width="2.77" height="2.77"/><rect class="cls-1" x="47.07" y="22.15" width="2.77" height="2.77"/><rect class="cls-1" x="38.76" y="33.22" width="2.77" height="2.77"/><rect class="cls-1" x="41.53" y="30.45" width="2.77" height="2.77"/><rect class="cls-1" x="44.3" y="27.69" width="2.77" height="2.77"/><rect class="cls-1" x="47.07" y="24.92" width="2.77" height="2.77"/><rect class="cls-1" x="49.83" y="22.15" width="2.77" height="2.77"/><rect class="cls-1" x="35.99" y="33.22" width="2.77" height="2.77"/><rect class="cls-1" x="41.53" y="33.22" width="2.77" height="2.77"/><rect class="cls-1" x="47.07" y="27.69" width="2.77" height="2.77"/><rect class="cls-1" x="41.53" y="35.99" width="2.77" height="2.77"/><rect class="cls-1" x="49.83" y="27.69" width="2.77" height="2.77"/><rect class="cls-1" x="41.53" y="38.76" width="2.77" height="2.77"/><rect class="cls-1" x="44.3" y="35.99" width="2.77" height="2.77"/><rect class="cls-1" x="52.6" y="27.69" width="2.77" height="2.77"/><rect class="cls-1" x="38.76" y="38.76" width="2.77" height="2.77"/><rect class="cls-1" x="44.3" y="38.76" width="2.77" height="2.77"/><rect class="cls-1" x="52.6" y="24.92" width="2.77" height="2.77"/><rect class="cls-1" x="47.07" y="38.76" width="2.77" height="2.77"/><rect class="cls-1" x="55.37" y="24.92" width="2.77" height="2.77"/><rect class="cls-1" x="55.37" y="22.15" width="2.77" height="2.77"/><rect class="cls-1" x="58.14" y="22.15" width="2.77" height="2.77"/></g><g id="_2DAF215F-8218-437C-9586-9ACF4A5E5D29" data-name="2DAF215F-8218-437C-9586-9ACF4A5E5D29"><rect class="cls-1" x="27.69" y="22.15" width="2.77" height="2.77"/><rect class="cls-1" x="27.69" y="24.92" width="2.77" height="2.77"/></g><g id="_12E4AD39-0E51-4315-92DE-022BE34DC2C8" data-name="12E4AD39-0E51-4315-92DE-022BE34DC2C8"><rect class="cls-1" x="30.45" y="35.99" width="2.77" height="2.77"/></g><g id="C1B63D81-D106-4DB8-96EE-F1C0D2DBD162"><rect class="cls-1" x="30.45" y="41.53" width="2.77" height="2.77"/><rect class="cls-1" x="33.22" y="41.53" width="2.77" height="2.77"/><rect class="cls-1" x="35.99" y="41.53" width="2.77" height="2.77"/></g><g id="C9F35DF6-42BF-4848-857C-5F3724660063"><rect class="cls-1" x="30.45" y="63.68" width="2.77" height="2.77"/><rect class="cls-1" x="30.45" y="66.45" width="2.77" height="2.77"/><rect class="cls-1" x="33.22" y="63.68" width="2.77" height="2.77"/><rect class="cls-1" x="33.22" y="66.45" width="2.77" height="2.77"/><rect class="cls-1" x="33.22" y="60.91" width="2.77" height="2.77"/><rect class="cls-1" x="35.99" y="63.68" width="2.77" height="2.77"/><rect class="cls-1" x="35.99" y="60.91" width="2.77" height="2.77"/><rect class="cls-1" x="35.99" y="58.14" width="2.77" height="2.77"/><rect class="cls-1" x="35.99" y="55.37" width="2.77" height="2.77"/><rect class="cls-1" x="38.76" y="58.14" width="2.77" height="2.77"/><rect class="cls-1" x="35.99" y="52.6" width="2.77" height="2.77"/><rect class="cls-1" x="41.53" y="58.14" width="2.77" height="2.77"/><rect class="cls-1" x="41.53" y="55.37" width="2.77" height="2.77"/><rect class="cls-1" x="44.3" y="58.14" width="2.77" height="2.77"/><rect class="cls-1" x="41.53" y="52.6" width="2.77" height="2.77"/><rect class="cls-1" x="44.3" y="55.37" width="2.77" height="2.77"/><rect class="cls-1" x="47.07" y="58.14" width="2.77" height="2.77"/><rect class="cls-1" x="44.3" y="52.6" width="2.77" height="2.77"/><rect class="cls-1" x="47.07" y="55.37" width="2.77" height="2.77"/><rect class="cls-1" x="47.07" y="60.91" width="2.77" height="2.77"/><rect class="cls-1" x="49.83" y="58.14" width="2.77" height="2.77"/><rect class="cls-1" x="44.3" y="49.83" width="2.77" height="2.77"/><rect class="cls-1" x="49.83" y="55.37" width="2.77" height="2.77"/><rect class="cls-1" x="44.3" y="47.07" width="2.77" height="2.77"/><rect class="cls-1" x="52.6" y="55.37" width="2.77" height="2.77"/><rect class="cls-1" x="41.53" y="47.07" width="2.77" height="2.77"/><rect class="cls-1" x="44.3" y="44.3" width="2.77" height="2.77"/><rect class="cls-1" x="55.37" y="55.37" width="2.77" height="2.77"/><rect class="cls-1" x="41.53" y="44.3" width="2.77" height="2.77"/><rect class="cls-1" x="47.07" y="44.3" width="2.77" height="2.77"/><rect class="cls-1" x="55.37" y="52.6" width="2.77" height="2.77"/><rect class="cls-1" x="58.14" y="55.37" width="2.77" height="2.77"/><rect class="cls-1" x="38.76" y="44.3" width="2.77" height="2.77"/><rect class="cls-1" x="49.83" y="44.3" width="2.77" height="2.77"/><rect class="cls-1" x="55.37" y="49.83" width="2.77" height="2.77"/><rect class="cls-1" x="58.14" y="52.6" width="2.77" height="2.77"/><rect class="cls-1" x="58.14" y="58.14" width="2.77" height="2.77"/><rect class="cls-1" x="52.6" y="44.3" width="2.77" height="2.77"/><rect class="cls-1" x="55.37" y="47.07" width="2.77" height="2.77"/><rect class="cls-1" x="58.14" y="49.83" width="2.77" height="2.77"/><rect class="cls-1" x="55.37" y="44.3" width="2.77" height="2.77"/><rect class="cls-1" x="58.14" y="47.07" width="2.77" height="2.77"/><rect class="cls-1" x="58.14" y="44.3" width="2.77" height="2.77"/><rect class="cls-1" x="58.14" y="41.53" width="2.77" height="2.77"/><rect class="cls-1" x="60.91" y="44.3" width="2.77" height="2.77"/><rect class="cls-1" x="60.91" y="41.53" width="2.77" height="2.77"/><rect class="cls-1" x="63.68" y="44.3" width="2.77" height="2.77"/><rect class="cls-1" x="66.45" y="44.3" width="2.77" height="2.77"/></g><g id="_519E8759-514A-481A-8A9A-5FA0E9A84034" data-name="519E8759-514A-481A-8A9A-5FA0E9A84034"><rect class="cls-1" x="33.22" y="2.77" width="2.77" height="2.77"/></g><g id="CCAD797E-F903-44CA-AC4F-F837810AF0CE"><rect class="cls-1" x="33.22" y="24.92" width="2.77" height="2.77"/><rect class="cls-1" x="33.22" y="27.69" width="2.77" height="2.77"/></g><g id="_994F762F-44A4-4502-8D1F-1A5A49E034DA" data-name="994F762F-44A4-4502-8D1F-1A5A49E034DA"><rect class="cls-1" x="33.22" y="47.07" width="2.77" height="2.77"/></g><g id="A8C0FCA8-5CF1-43DF-A779-8D2B338BD3BC"><rect class="cls-1" x="44.3" y="5.54" width="2.77" height="2.77"/></g><g id="DF32A078-5F74-49F7-9F9C-A463FEC3FA8A"><rect class="cls-1" x="44.3" y="11.07" width="2.77" height="2.77"/></g><g id="B1737C06-D4CB-4585-B7ED-C3927649E751"><rect class="cls-1" x="44.3" y="66.45" width="2.77" height="2.77"/><rect class="cls-1" x="47.07" y="66.45" width="2.77" height="2.77"/></g><g id="_66E38301-84DC-4896-9176-A4EF90B4BFA2" data-name="66E38301-84DC-4896-9176-A4EF90B4BFA2"><rect class="cls-1" x="47.07" y="33.22" width="2.77" height="2.77"/><rect class="cls-1" x="49.83" y="33.22" width="2.77" height="2.77"/><rect class="cls-1" x="52.6" y="33.22" width="2.77" height="2.77"/></g><g id="EEF7B4F2-5249-48E9-9E58-478CC08F03D0"><rect class="cls-1" x="49.83" width="2.77" height="2.77"/><rect class="cls-1" x="49.83" y="2.77" width="2.77" height="2.77"/><rect class="cls-1" x="52.6" width="2.77" height="2.77"/><rect class="cls-1" x="49.83" y="5.54" width="2.77" height="2.77"/><rect class="cls-1" x="55.37" width="2.77" height="2.77"/><rect class="cls-1" x="49.83" y="8.31" width="2.77" height="2.77"/><rect class="cls-1" x="58.14" width="2.77" height="2.77"/><rect class="cls-1" x="49.83" y="11.07" width="2.77" height="2.77"/><rect class="cls-1" x="60.91" width="2.77" height="2.77"/><rect class="cls-1" x="49.83" y="13.84" width="2.77" height="2.77"/><rect class="cls-1" x="63.68" width="2.77" height="2.77"/><rect class="cls-1" x="49.83" y="16.61" width="2.77" height="2.77"/><rect class="cls-1" x="66.45" width="2.77" height="2.77"/><rect class="cls-1" x="52.6" y="16.61" width="2.77" height="2.77"/><rect class="cls-1" x="66.45" y="2.77" width="2.77" height="2.77"/><rect class="cls-1" x="55.37" y="16.61" width="2.77" height="2.77"/><rect class="cls-1" x="66.45" y="5.54" width="2.77" height="2.77"/><rect class="cls-1" x="58.14" y="16.61" width="2.77" height="2.77"/><rect class="cls-1" x="66.45" y="8.31" width="2.77" height="2.77"/><rect class="cls-1" x="60.91" y="16.61" width="2.77" height="2.77"/><rect class="cls-1" x="66.45" y="11.07" width="2.77" height="2.77"/><rect class="cls-1" x="63.68" y="16.61" width="2.77" height="2.77"/><rect class="cls-1" x="66.45" y="13.84" width="2.77" height="2.77"/><rect class="cls-1" x="66.45" y="16.61" width="2.77" height="2.77"/></g><g id="_466D0974-9406-4698-BAFE-C8F0092EF2FD" data-name="466D0974-9406-4698-BAFE-C8F0092EF2FD"><rect class="cls-1" x="49.83" y="49.83" width="2.77" height="2.77"/></g><g id="_750DD000-6DA2-4FCC-88B6-47177C86AE16" data-name="750DD000-6DA2-4FCC-88B6-47177C86AE16"><rect class="cls-1" x="52.6" y="60.91" width="2.77" height="2.77"/><rect class="cls-1" x="52.6" y="63.68" width="2.77" height="2.77"/><rect class="cls-1" x="55.37" y="60.91" width="2.77" height="2.77"/></g><g id="B35394AB-39C4-46D7-B162-467EF76C3A1A"><rect class="cls-1" x="55.37" y="5.54" width="2.77" height="2.77"/><rect class="cls-1" x="55.37" y="8.31" width="2.77" height="2.77"/><rect class="cls-1" x="58.14" y="5.54" width="2.77" height="2.77"/><rect class="cls-1" x="55.37" y="11.07" width="2.77" height="2.77"/><rect class="cls-1" x="58.14" y="8.31" width="2.77" height="2.77"/><rect class="cls-1" x="60.91" y="5.54" width="2.77" height="2.77"/><rect class="cls-1" x="58.14" y="11.07" width="2.77" height="2.77"/><rect class="cls-1" x="60.91" y="8.31" width="2.77" height="2.77"/><rect class="cls-1" x="60.91" y="11.07" width="2.77" height="2.77"/></g><g id="_3E54F302-3AE1-411B-9930-B23F57AD8DF6" data-name="3E54F302-3AE1-411B-9930-B23F57AD8DF6"><rect class="cls-1" x="55.37" y="35.99" width="2.77" height="2.77"/><rect class="cls-1" x="58.14" y="35.99" width="2.77" height="2.77"/><rect class="cls-1" x="58.14" y="33.22" width="2.77" height="2.77"/><rect class="cls-1" x="60.91" y="35.99" width="2.77" height="2.77"/><rect class="cls-1" x="58.14" y="30.45" width="2.77" height="2.77"/><rect class="cls-1" x="58.14" y="27.69" width="2.77" height="2.77"/><rect class="cls-1" x="60.91" y="30.45" width="2.77" height="2.77"/><rect class="cls-1" x="60.91" y="27.69" width="2.77" height="2.77"/><rect class="cls-1" x="60.91" y="24.92" width="2.77" height="2.77"/></g><g id="_14169797-7BC2-46E3-9B12-CBC79A51E1E9" data-name="14169797-7BC2-46E3-9B12-CBC79A51E1E9"><rect class="cls-1" x="58.14" y="63.68" width="2.77" height="2.77"/><rect class="cls-1" x="58.14" y="66.45" width="2.77" height="2.77"/><rect class="cls-1" x="60.91" y="63.68" width="2.77" height="2.77"/><rect class="cls-1" x="60.91" y="60.91" width="2.77" height="2.77"/><rect class="cls-1" x="63.68" y="63.68" width="2.77" height="2.77"/><rect class="cls-1" x="63.68" y="60.91" width="2.77" height="2.77"/><rect class="cls-1" x="66.45" y="63.68" width="2.77" height="2.77"/><rect class="cls-1" x="63.68" y="58.14" width="2.77" height="2.77"/><rect class="cls-1" x="66.45" y="60.91" width="2.77" height="2.77"/><rect class="cls-1" x="66.45" y="66.45" width="2.77" height="2.77"/><rect class="cls-1" x="66.45" y="58.14" width="2.77" height="2.77"/><rect class="cls-1" x="66.45" y="55.37" width="2.77" height="2.77"/></g><g id="A51F11A0-AB42-4DDF-8B8E-AD1C2FC73EB4"><rect class="cls-1" x="63.68" y="22.15" width="2.77" height="2.77"/></g><g id="_791773A8-8F2F-4B3B-9E0F-428B989CE6B2" data-name="791773A8-8F2F-4B3B-9E0F-428B989CE6B2"><rect class="cls-1" x="63.68" y="38.76" width="2.77" height="2.77"/><rect class="cls-1" x="66.45" y="38.76" width="2.77" height="2.77"/></g><g id="C1DB2704-B5BD-44EC-A525-8266C52EEC72"><rect class="cls-1" x="66.45" y="27.69" width="2.77" height="2.77"/></g><g id="_06DCFF08-09E3-451E-A7FE-2C2E1AF4DDF2" data-name="06DCFF08-09E3-451E-A7FE-2C2E1AF4DDF2"><rect class="cls-1" x="66.45" y="49.83" width="2.77" height="2.77"/></g></g></g></svg>