<svg xmlns="http://www.w3.org/2000/svg" xmlns:xlink="http://www.w3.org/1999/xlink" viewBox="0 0 416.31 606.37"><defs><style>.cls-1{isolation:isolate;}.cls-2{fill:#c3dde3;}.cls-3{fill:url(#linear-gradient);}.cls-4{fill:url(#New_Gradient_Swatch);}.cls-5{fill:url(#linear-gradient-2);}.cls-6{fill:url(#linear-gradient-3);}.cls-7{fill:url(#linear-gradient-4);}.cls-8{fill:url(#linear-gradient-5);}.cls-9{fill:#9496a1;}.cls-10{fill:url(#radial-gradient);}.cls-11{mix-blend-mode:multiply;}.cls-12{fill:url(#New_Gradient_Swatch_copy);}.cls-13{fill:#1d1d1b;}.cls-14{fill:url(#New_Gradient_Swatch_copy-2);}</style><linearGradient id="linear-gradient" x1="341.96" y1="480.61" x2="193.14" y2="480.61" gradientUnits="userSpaceOnUse"><stop offset="0" stop-color="#9496a1"/><stop offset="0.01" stop-color="#9b9da7"/><stop offset="0.08" stop-color="#c6c7cd"/><stop offset="0.15" stop-color="#e5e6e8"/><stop offset="0.2" stop-color="#f8f8f9"/><stop offset="0.24" stop-color="#fff"/><stop offset="0.29" stop-color="#fafafa"/><stop offset="0.36" stop-color="#ebebec"/><stop offset="0.43" stop-color="#d2d2d5"/><stop offset="0.5" stop-color="#afafb5"/><stop offset="0.58" stop-color="#82828c"/><stop offset="0.64" stop-color="#5f5f6b"/></linearGradient><linearGradient id="New_Gradient_Swatch" x1="190.08" y1="168.11" x2="129.78" y2="85.58" gradientUnits="userSpaceOnUse"><stop offset="0" stop-color="#9496a1"/><stop offset="0.24" stop-color="#fff"/><stop offset="0.29" stop-color="#fafafa"/><stop offset="0.36" stop-color="#ebebec"/><stop offset="0.43" stop-color="#d2d2d5"/><stop offset="0.5" stop-color="#afafb5"/><stop offset="0.58" stop-color="#82828c"/><stop offset="0.64" stop-color="#5f5f6b"/></linearGradient><linearGradient id="linear-gradient-2" x1="203.16" y1="271.19" x2="113.71" y2="360.64" gradientUnits="userSpaceOnUse"><stop offset="0.08" stop-color="#9496a1"/><stop offset="0.1" stop-color="#a3a4ae"/><stop offset="0.17" stop-color="#d4d5da"/><stop offset="0.23" stop-color="#f3f4f5"/><stop offset="0.26" stop-color="#fff"/><stop offset="0.31" stop-color="#fafafa"/><stop offset="0.37" stop-color="#ebebec"/><stop offset="0.44" stop-color="#d2d2d5"/><stop offset="0.51" stop-color="#afafb5"/><stop offset="0.58" stop-color="#82828c"/><stop offset="0.64" stop-color="#5f5f6b"/></linearGradient><linearGradient id="linear-gradient-3" x1="410.61" y1="54.61" x2="334.84" y2="54.61" gradientUnits="userSpaceOnUse"><stop offset="0" stop-color="#9496a1"/><stop offset="0.16" stop-color="#fff"/><stop offset="0.23" stop-color="#fafafa"/><stop offset="0.31" stop-color="#ebebec"/><stop offset="0.4" stop-color="#d2d2d5"/><stop offset="0.5" stop-color="#afafb5"/><stop offset="0.6" stop-color="#82828c"/><stop offset="0.66" stop-color="#5f5f6b"/></linearGradient><linearGradient id="linear-gradient-4" x1="294.6" y1="101.14" x2="294.6" y2="0.1" gradientUnits="userSpaceOnUse"><stop offset="0" stop-color="#9496a1"/><stop offset="0.2" stop-color="#fff"/><stop offset="0.27" stop-color="#fafafa"/><stop offset="0.34" stop-color="#ebebec"/><stop offset="0.43" stop-color="#d2d2d5"/><stop offset="0.52" stop-color="#afafb5"/><stop offset="0.61" stop-color="#82828c"/><stop offset="0.68" stop-color="#5f5f6b"/></linearGradient><linearGradient id="linear-gradient-5" x1="418.99" y1="100.15" x2="334.38" y2="100.66" gradientUnits="userSpaceOnUse"><stop offset="0.06" stop-color="#9496a1"/><stop offset="0.09" stop-color="#a3a4ae"/><stop offset="0.17" stop-color="#d4d5da"/><stop offset="0.23" stop-color="#f3f4f5"/><stop offset="0.26" stop-color="#fff"/><stop offset="0.33" stop-color="#fbfbfb"/><stop offset="0.4" stop-color="#efeff0"/><stop offset="0.47" stop-color="#dadadd"/><stop offset="0.54" stop-color="#bdbdc2"/><stop offset="0.61" stop-color="#9898a0"/><stop offset="0.68" stop-color="#6b6b76"/><stop offset="0.7" stop-color="#5f5f6b"/></linearGradient><radialGradient id="radial-gradient" cx="232.17" cy="60.04" fx="242.97581421290542" r="46.32" gradientUnits="userSpaceOnUse"><stop offset="0.57" stop-color="#c3dde3"/><stop offset="0.65" stop-color="#b7d0dc"/><stop offset="0.79" stop-color="#97aeca"/><stop offset="0.86" stop-color="#849abf"/></radialGradient><radialGradient id="New_Gradient_Swatch_copy" cx="266.98" cy="422.62" r="65.84" gradientUnits="userSpaceOnUse"><stop offset="0.81" stop-color="#c3dde3"/><stop offset="0.84" stop-color="#b7d0dc"/><stop offset="0.89" stop-color="#97aeca"/><stop offset="0.92" stop-color="#849abf"/></radialGradient><radialGradient id="New_Gradient_Swatch_copy-2" cx="53.28" cy="207.39" r="52.58" xlink:href="#New_Gradient_Swatch_copy"/></defs><g class="cls-1"><g id="Layer_2" data-name="Layer 2"><g id="Слой_1" data-name="Слой 1"><path class="cls-2" d="M219.79,345.18H318a5.43,5.43,0,0,1,5.43,5.43v27.62a0,0,0,0,1,0,0H213.31a0,0,0,0,1,0,0V351.67A6.49,6.49,0,0,1,219.79,345.18Z"/><path d="M324.4,379.24H212.29V358.32a14.17,14.17,0,0,1,14.16-14.15H312.4a12,12,0,0,1,12,12Zm-110.08-2H322.37V356.17a10,10,0,0,0-10-10H226.45a12.14,12.14,0,0,0-12.13,12.13Z"/><path class="cls-3" d="M346.87,598.22s-22.73,7.06-76.75,7.14c-53.26.08-78.1-6.92-78.1-6.92l1.06-24,20.27-66.55-.18-127.36a22.83,22.83,0,0,1,20.66-22.78c10.34-1,23.84-1.9,38.84-1.9,18.72,0,48.17,5.52,50.87,22.29l.13,110.19,0,20.16,23.12,65.72Z"/><path d="M269.25,606.37c-52.2,0-77.25-6.88-77.5-7l-.78-.22,1.14-25.05,20.23-66.39-.18-127.22a23.76,23.76,0,0,1,21.57-23.79c13.1-1.26,26.2-1.9,38.94-1.9,16.66,0,48.93,4.84,51.87,23.14l.17,130.34,23.12,65.89.06,24.75-.72.22c-.22.07-23.49,7.11-77.05,7.18Zm-76.18-8.7c4.59,1.14,29.66,6.82,77,6.68,48.05-.07,71.49-5.74,75.75-6.89l-.05-23.06-23.12-65.9-.16-130.35c-2.72-16.79-33.8-21.27-49.86-21.27-12.67,0-25.71.63-38.74,1.88a21.76,21.76,0,0,0-19.75,21.78l.19,127.52-.05.14-20.23,66.42Z"/><rect x="213.31" y="483.09" width="110.34" height="13.57"/><ellipse cx="317.2" cy="543.2" rx="6.11" ry="22.81" transform="translate(-106.65 78.41) rotate(-12.08)"/><ellipse cx="221.78" cy="543.2" rx="22.81" ry="6.11" transform="translate(-355.81 646.4) rotate(-77.92)"/><polygon class="cls-4" points="293.01 82.7 253.93 110.52 243.84 111.66 138.48 186.71 132.83 197.87 74.63 239.34 30.27 177.03 88.38 135.64 100.94 133.96 206.28 58.93 211.22 48.54 250.02 20.91 293.01 82.7"/><path d="M74.4,240.75l-45.55-64L88,134.67,100.56,133,205.48,58.26l4.94-10.39,39.85-28.38L294.41,83,254.3,111.49l-10.08,1.15L139.27,187.39l-5.65,11.16-.2.14ZM31.68,177.27l43.19,60.66L132,197.19,137.69,186l.21-.14,105.57-75.2,10.08-1.15,38.06-27.08L249.77,22.33,212,49.22,207.08,59.6l-.21.16L101.32,134.93l-12.55,1.68Z"/><rect x="100.21" y="131.54" width="11.62" height="76.7" transform="translate(-78.71 92.56) rotate(-35.32)"/><rect x="231.22" y="39.46" width="8.97" height="75.11" transform="translate(-1.14 150.45) rotate(-35.32)"/><polygon class="cls-5" points="307.33 382.07 228.74 460.66 181.17 413.09 171.81 403.73 171.65 402.7 168.03 379.68 76.03 287.96 68.86 287.03 68.3 286.95 60.44 279.09 20.21 239.09 84.69 174.63 124.89 214.63 132.75 222.49 132.85 223.06 134.43 231.97 226.9 324.43 249.23 325.1 250.38 325.14 259.74 334.5 307.33 382.07"/><path d="M228.74,462.09l-57.87-57.88-3.79-24L75.56,288.92l-7.74-1-8.1-8.09L18.78,239.09l65.91-65.88,49,48.79,1.68,9.48,92,92,23.49.71,9.64,9.64,48.3,48.29Zm-56-58.84,56,56,77.16-77.16L250,326.14l-23.49-.71-.28-.28-92.69-92.69L131.81,223l-7.63-7.63L84.69,176.07l-63,63L68.77,286l.23,0,7.5,1,.25.24L169,379.19Z"/><polygon points="132.85 223.06 68.86 287.03 68.3 286.95 60.44 279.09 124.89 214.63 132.75 222.49 132.85 223.06"/><polygon points="259.74 334.5 181.17 413.09 171.81 403.73 171.65 402.7 249.23 325.1 250.38 325.14 259.74 334.5"/><path d="M317.05,113.55h0a3.6,3.6,0,0,1,0,5.1L316,119.71a3.61,3.61,0,0,1-5.12,0L290.31,99.14a3.62,3.62,0,0,1,0-5.12l3.61-3.6,1.14,1.13,20.83-20.83,22,22Z"/><path d="M332.56,16.53h0A3.61,3.61,0,0,1,329,12.92V11.43a3.62,3.62,0,0,1,3.62-3.62h29.1a3.6,3.6,0,0,1,3.61,3.62v5.1h-1.61V46h-31.1Z"/><ellipse class="cls-2" cx="376.13" cy="37.03" rx="39.17" ry="36.02"/><path d="M376.13,74.06c-22.16,0-40.19-16.61-40.19-37S354,0,376.13,0s40.18,16.61,40.18,37S398.28,74.06,376.13,74.06Zm0-72C355.09,2,338,17.73,338,37s17.12,35,38.16,35,38.15-15.71,38.15-35S397.17,2,376.13,2Z"/><path class="cls-6" d="M413.64,43.62v.81l-1.21,59h-.12c.08-1,.12-2,.12-3a36.67,36.67,0,1,0-73.33,0c0,1,0,2,.12,3h-.12l-1.21-59a37.88,37.88,0,1,1,75.75-.81Z"/><path class="cls-7" d="M351.62,16.35s-9.93,17.47-11.51,38.25c-.87,11.58-1,39-1,39H237.59s7.1-2,7.17-39c.06-38.25-7.17-38.25-7.17-38.25Z"/><path class="cls-8" d="M412.43,100.42c0,1,0,2-.12,3a36.67,36.67,0,0,1-73.09,0c-.08-1-.12-2-.12-3a36.67,36.67,0,1,1,73.33,0Z"/><path d="M375.75,138.09a37.88,37.88,0,0,1-37.54-34.54c-.08-1-.12-2.07-.12-3.13a37.68,37.68,0,1,1,75.35,0c0,1.06,0,2.1-.13,3.12A37.88,37.88,0,0,1,375.75,138.09Zm0-73.33a35.69,35.69,0,0,0-35.64,35.66c0,1,0,2,.12,3a35.66,35.66,0,0,0,71.07,0c.07-1,.11-1.95.11-3A35.7,35.7,0,0,0,375.75,64.76Z"/><path d="M413.31,103.54l-2-.1.1-4.24,2,0c0,.4,0,.82,0,1.24C413.44,101.48,413.4,102.52,413.31,103.54Z"/><path class="cls-9" d="M355.58,82.47a1.69,1.69,0,0,1,0,.23,2.8,2.8,0,0,1-5.58,0,1.69,1.69,0,0,1,0-.23,2.8,2.8,0,0,1,5.6,0Z"/><path d="M352.78,86.28a3.83,3.83,0,0,1-3.8-3.49c0-.11,0-.21,0-.32a3.81,3.81,0,0,1,7.62,0c0,.11,0,.22,0,.32A3.83,3.83,0,0,1,352.78,86.28Zm0-5.6A1.79,1.79,0,0,0,351,82.47a1.83,1.83,0,0,0,1.79,1.79,1.79,1.79,0,0,0,1.78-1.64v-.15A1.79,1.79,0,0,0,352.78,80.68Z"/><path class="cls-9" d="M398.7,82.47a1.69,1.69,0,0,1,0,.23,2.8,2.8,0,0,1-5.58,0,1.69,1.69,0,0,1,0-.23,2.8,2.8,0,0,1,5.6,0Z"/><path d="M395.9,86.28a3.83,3.83,0,0,1-3.8-3.49c0-.11,0-.21,0-.32a3.81,3.81,0,1,1,7.62,0c0,.11,0,.21,0,.31A3.83,3.83,0,0,1,395.9,86.28Zm0-5.6a1.79,1.79,0,0,0-1.79,1.79,1.83,1.83,0,0,0,1.79,1.79,1.79,1.79,0,0,0,1.78-1.64v-.15A1.79,1.79,0,0,0,395.9,80.68Z"/><path class="cls-9" d="M355.58,120.83a1.93,1.93,0,0,1,0,.24,2.8,2.8,0,0,1-5.58,0,1.93,1.93,0,0,1,0-.24,2.8,2.8,0,1,1,5.6,0Z"/><path d="M352.78,124.65a3.83,3.83,0,0,1-3.8-3.5c0-.11,0-.21,0-.32a3.81,3.81,0,1,1,7.62,0c0,.11,0,.22,0,.33A3.83,3.83,0,0,1,352.78,124.65Zm0-5.6a1.79,1.79,0,0,0-1.79,1.78,1.83,1.83,0,0,0,1.79,1.79,1.79,1.79,0,0,0,1.78-1.64v-.15A1.79,1.79,0,0,0,352.78,119.05Z"/><path class="cls-9" d="M398.7,120.83a1.93,1.93,0,0,1,0,.24,2.8,2.8,0,0,1-5.58,0,1.93,1.93,0,0,1,0-.24,2.8,2.8,0,0,1,5.6,0Z"/><path d="M395.9,124.65a3.83,3.83,0,0,1-3.8-3.5c0-.11,0-.21,0-.32a3.81,3.81,0,1,1,7.62,0c0,.11,0,.21,0,.32A3.83,3.83,0,0,1,395.9,124.65Zm0-5.6a1.79,1.79,0,0,0-1.79,1.78,1.83,1.83,0,0,0,1.79,1.79,1.79,1.79,0,0,0,1.78-1.64v-.15A1.79,1.79,0,0,0,395.9,119.05Z"/><path class="cls-10" d="M244.76,54.6c-.07,37.08-7.17,39-7.17,39h-9.42a12.28,12.28,0,0,1-12.29-12.27V28.64a12.29,12.29,0,0,1,12.29-12.29h9.42S244.82,16.35,244.76,54.6Z"/><path d="M237.72,94.65h-9.55a13.3,13.3,0,0,1-13.3-13.28V28.64a13.32,13.32,0,0,1,13.3-13.31h9.42a3.08,3.08,0,0,1,2,1.09c2.82,2.82,6.17,11.74,6.13,38.18h0c-.06,36.79-7.11,39.79-7.91,40Zm-.23-77.3h-9.32a11.29,11.29,0,0,0-11.28,11.28V81.37a11.28,11.28,0,0,0,11.28,11.26h9.21c.64-.43,6.31-5.11,6.36-38h0C243.8,19.07,237.55,17.36,237.49,17.35Z"/><path d="M338.09,100.5c0-.13,0-.83,0-2L338,94.65H230.12l7.2-2s6.37-3.17,6.42-38.06c.06-35.53-6.19-37.24-6.25-37.25l.1-2H349.08a38.89,38.89,0,0,1,65.57,28.29v.81l-1.23,54.82h-2a35.65,35.65,0,0,0-71.29,1.16Zm-98-7.87H338.9a37.7,37.7,0,0,1,72.73-3.86l1-45.15a36.88,36.88,0,0,0-62.44-26.55l-.29.29H240.42C243,21,245.81,30.58,245.77,54.6,245.73,79.84,242.39,89.18,240.05,92.63Z"/><polygon points="339.1 94.65 338.94 94.65 338.94 92.63 339.1 94.65"/><rect x="324.55" y="16.35" width="8.79" height="77.3"/><g class="cls-11"><path class="cls-9" d="M375.26,119.05a17.82,17.82,0,0,1-17.65-16.24q-.06-.72-.06-1.47a17.71,17.71,0,0,1,35.42,0q0,.75-.06,1.47A17.82,17.82,0,0,1,375.26,119.05Zm0-33.4a15.7,15.7,0,0,0-15.68,15.69c0,.44,0,.88.05,1.3a15.68,15.68,0,0,0,31.26,0c0-.42.05-.86.05-1.3A15.7,15.7,0,0,0,375.26,85.65Z"/></g><path d="M375.26,120.19a19,19,0,0,1-18.79-17.29q-.06-.77-.06-1.56a18.85,18.85,0,0,1,37.7,0q0,.8-.06,1.56A19,19,0,0,1,375.26,120.19Zm0-35.68a16.84,16.84,0,0,0-16.82,16.83c0,.48,0,.94.05,1.4a16.83,16.83,0,0,0,33.54,0c0-.46.06-.92.06-1.4A16.85,16.85,0,0,0,375.26,84.51Z"/><circle class="cls-12" cx="264.05" cy="422.8" r="62.67"/><path class="cls-13" d="M264,486.48a64,64,0,1,1,2.67-.06Q265.35,486.48,264,486.48Zm.1-125.34c-.87,0-1.74,0-2.61.05a61.8,61.8,0,1,0,2.61-.05Z"/><circle class="cls-9" cx="219.07" cy="438.69" r="3.82"/><path d="M219.07,443.52a4.83,4.83,0,1,1,4.84-4.83A4.83,4.83,0,0,1,219.07,443.52Zm0-7.64a2.81,2.81,0,1,0,2.81,2.81A2.81,2.81,0,0,0,219.07,435.88Z"/><circle class="cls-9" cx="296.71" cy="457.19" r="3.82"/><path d="M296.71,462a4.83,4.83,0,1,1,4.83-4.83A4.84,4.84,0,0,1,296.71,462Zm0-7.63a2.81,2.81,0,1,0,2.8,2.8A2.81,2.81,0,0,0,296.71,454.39Z"/><circle class="cls-9" cx="277.45" cy="378.23" r="3.82"/><path d="M277.45,383.06a4.83,4.83,0,1,1,4.83-4.83A4.84,4.84,0,0,1,277.45,383.06Zm0-7.64a2.81,2.81,0,1,0,2.81,2.81A2.8,2.8,0,0,0,277.45,375.42Z"/><path d="M264.05,480.61a57.81,57.81,0,1,1,57.81-57.81A57.88,57.88,0,0,1,264.05,480.61Zm0-113.6a55.79,55.79,0,1,0,55.78,55.79A55.86,55.86,0,0,0,264.05,367Z"/><circle class="cls-14" cx="51.48" cy="205.88" r="50.47"/><path d="M51.48,257.36A51.48,51.48,0,1,1,103,205.88,51.53,51.53,0,0,1,51.48,257.36Zm0-100.93a49.46,49.46,0,1,0,49.46,49.45A49.5,49.5,0,0,0,51.48,156.43Z"/><circle class="cls-9" cx="23.92" cy="182.07" r="3.63"/><path d="M23.92,186.71a4.64,4.64,0,1,1,4.64-4.64A4.64,4.64,0,0,1,23.92,186.71Zm0-7.25a2.62,2.62,0,1,0,2.62,2.61A2.61,2.61,0,0,0,23.92,179.46Z"/><circle class="cls-9" cx="41.38" cy="240.89" r="3.63"/><path d="M41.38,245.53A4.64,4.64,0,1,1,46,240.89,4.64,4.64,0,0,1,41.38,245.53Zm0-7.25A2.62,2.62,0,1,0,44,240.89,2.61,2.61,0,0,0,41.38,238.28Z"/><circle class="cls-9" cx="86.03" cy="195.54" r="3.63"/><path d="M86,200.18a4.65,4.65,0,1,1,4.64-4.64A4.64,4.64,0,0,1,86,200.18Zm0-7.26a2.62,2.62,0,1,0,2.62,2.62A2.61,2.61,0,0,0,86,192.92Z"/><path d="M51.48,251.85a46,46,0,1,1,46-46A46,46,0,0,1,51.48,251.85Zm0-89.9a43.94,43.94,0,1,0,43.94,43.93A44,44,0,0,0,51.48,162Z"/></g></g></g></svg>