<svg xmlns="http://www.w3.org/2000/svg" viewBox="0 0 136.65 134.06"><defs><style>.cls-1{isolation:isolate;}.cls-2{fill:#fff;mix-blend-mode:overlay;opacity:0.68;}</style></defs><g class="cls-1"><g id="Layer_2" data-name="Layer 2"><g id="Слой_1" data-name="Слой 1"><path class="cls-2" d="M100.65,134.06c3.22-.47,22.87-4.19,30.77-18.89,9.41-17.48,4.45-31.79-1.86-39.4C110.21,52.46,57.17,47.1,52.62,25.18,51.52,19.87,54.93,9,79,0,49,6.65,27.58,21.36,26.51,37.77,25.77,49,31.75,57.62,36.3,62c27,26.11,61.84,24.12,69.48,43.36C108,110.88,108.66,119.76,100.65,134.06Z"/><path class="cls-2" d="M71.82,129.92c2-1.13,5.57-3.55,7-7.77,1.77-5.21-.71-10.23-1.71-12.28-9.23-18.77-43.32-28-54.77-43.8-5-6.93-9.44-25.47,1.37-38.89C11.06,33.86.39,49.89,0,64A37.93,37.93,0,0,0,17,97.28c20.25,13.08,41.36,7.67,51.6,24.41A26.3,26.3,0,0,1,71.82,129.92Z"/></g></g></g></svg>