<svg xmlns="http://www.w3.org/2000/svg" viewBox="0 0 27 27"><defs><style>.cls-1{fill:none;}.cls-2{fill:#6e9baa;}</style></defs><g id="Layer_2" data-name="Layer 2"><g id="Layer_1-2" data-name="Layer 1"><rect class="cls-1" width="27" height="27"/><g id="_4BD877A0-95AC-4FA3-964B-004A932FC9D6" data-name="4BD877A0-95AC-4FA3-964B-004A932FC9D6"><rect class="cls-2" x="1" y="1" width="1" height="1"/><rect class="cls-2" x="1" y="2" width="1" height="1"/><rect class="cls-2" x="2" y="1" width="1" height="1"/><rect class="cls-2" x="1" y="3" width="1" height="1"/><rect class="cls-2" x="3" y="1" width="1" height="1"/><rect class="cls-2" x="1" y="4" width="1" height="1"/><rect class="cls-2" x="4" y="1" width="1" height="1"/><rect class="cls-2" x="1" y="5" width="1" height="1"/><rect class="cls-2" x="5" y="1" width="1" height="1"/><rect class="cls-2" x="1" y="6" width="1" height="1"/><rect class="cls-2" x="6" y="1" width="1" height="1"/><rect class="cls-2" x="1" y="7" width="1" height="1"/><rect class="cls-2" x="7" y="1" width="1" height="1"/><rect class="cls-2" x="2" y="7" width="1" height="1"/><rect class="cls-2" x="7" y="2" width="1" height="1"/><rect class="cls-2" x="3" y="7" width="1" height="1"/><rect class="cls-2" x="7" y="3" width="1" height="1"/><rect class="cls-2" x="4" y="7" width="1" height="1"/><rect class="cls-2" x="7" y="4" width="1" height="1"/><rect class="cls-2" x="5" y="7" width="1" height="1"/><rect class="cls-2" x="7" y="5" width="1" height="1"/><rect class="cls-2" x="6" y="7" width="1" height="1"/><rect class="cls-2" x="7" y="6" width="1" height="1"/><rect class="cls-2" x="7" y="7" width="1" height="1"/></g><g id="_69853476-A9FC-427F-91A1-A660C60B37C7" data-name="69853476-A9FC-427F-91A1-A660C60B37C7"><rect class="cls-2" x="1" y="9" width="1" height="1"/><rect class="cls-2" x="1" y="10" width="1" height="1"/><rect class="cls-2" x="2" y="9" width="1" height="1"/><rect class="cls-2" x="1" y="11" width="1" height="1"/><rect class="cls-2" x="1" y="12" width="1" height="1"/><rect class="cls-2" x="2" y="12" width="1" height="1"/><rect class="cls-2" x="2" y="13" width="1" height="1"/><rect class="cls-2" x="3" y="13" width="1" height="1"/><rect class="cls-2" x="4" y="13" width="1" height="1"/><rect class="cls-2" x="5" y="13" width="1" height="1"/><rect class="cls-2" x="5" y="12" width="1" height="1"/><rect class="cls-2" x="5" y="14" width="1" height="1"/><rect class="cls-2" x="5" y="11" width="1" height="1"/><rect class="cls-2" x="6" y="12" width="1" height="1"/><rect class="cls-2" x="5" y="15" width="1" height="1"/><rect class="cls-2" x="4" y="15" width="1" height="1"/><rect class="cls-2" x="5" y="16" width="1" height="1"/><rect class="cls-2" x="3" y="15" width="1" height="1"/><rect class="cls-2" x="4" y="16" width="1" height="1"/><rect class="cls-2" x="6" y="16" width="1" height="1"/><rect class="cls-2" x="2" y="15" width="1" height="1"/><rect class="cls-2" x="4" y="17" width="1" height="1"/><rect class="cls-2" x="6" y="17" width="1" height="1"/><rect class="cls-2" x="1" y="15" width="1" height="1"/><rect class="cls-2" x="7" y="17" width="1" height="1"/><rect class="cls-2" x="1" y="14" width="1" height="1"/><rect class="cls-2" x="1" y="16" width="1" height="1"/><rect class="cls-2" x="1" y="17" width="1" height="1"/></g><g id="_670AC522-9313-483B-BB18-111CE69699ED" data-name="670AC522-9313-483B-BB18-111CE69699ED"><rect class="cls-2" x="1" y="19" width="1" height="1"/><rect class="cls-2" x="1" y="20" width="1" height="1"/><rect class="cls-2" x="2" y="19" width="1" height="1"/><rect class="cls-2" x="1" y="21" width="1" height="1"/><rect class="cls-2" x="3" y="19" width="1" height="1"/><rect class="cls-2" x="1" y="22" width="1" height="1"/><rect class="cls-2" x="4" y="19" width="1" height="1"/><rect class="cls-2" x="1" y="23" width="1" height="1"/><rect class="cls-2" x="5" y="19" width="1" height="1"/><rect class="cls-2" x="1" y="24" width="1" height="1"/><rect class="cls-2" x="6" y="19" width="1" height="1"/><rect class="cls-2" x="1" y="25" width="1" height="1"/><rect class="cls-2" x="7" y="19" width="1" height="1"/><rect class="cls-2" x="2" y="25" width="1" height="1"/><rect class="cls-2" x="7" y="20" width="1" height="1"/><rect class="cls-2" x="3" y="25" width="1" height="1"/><rect class="cls-2" x="7" y="21" width="1" height="1"/><rect class="cls-2" x="4" y="25" width="1" height="1"/><rect class="cls-2" x="7" y="22" width="1" height="1"/><rect class="cls-2" x="5" y="25" width="1" height="1"/><rect class="cls-2" x="7" y="23" width="1" height="1"/><rect class="cls-2" x="6" y="25" width="1" height="1"/><rect class="cls-2" x="7" y="24" width="1" height="1"/><rect class="cls-2" x="7" y="25" width="1" height="1"/></g><g id="_5FF1C7FF-8D4F-4BC9-82A5-E22B7FC95D3A" data-name="5FF1C7FF-8D4F-4BC9-82A5-E22B7FC95D3A"><rect class="cls-2" x="3" y="3" width="1" height="1"/><rect class="cls-2" x="3" y="4" width="1" height="1"/><rect class="cls-2" x="4" y="3" width="1" height="1"/><rect class="cls-2" x="3" y="5" width="1" height="1"/><rect class="cls-2" x="4" y="4" width="1" height="1"/><rect class="cls-2" x="5" y="3" width="1" height="1"/><rect class="cls-2" x="4" y="5" width="1" height="1"/><rect class="cls-2" x="5" y="4" width="1" height="1"/><rect class="cls-2" x="5" y="5" width="1" height="1"/></g><g id="A3581C88-5039-4C46-B774-17C1CEDC8E82"><rect class="cls-2" x="3" y="11" width="1" height="1"/></g><g id="_4D5F5BAC-5A34-48EF-BD92-8C60880B15B7" data-name="4D5F5BAC-5A34-48EF-BD92-8C60880B15B7"><rect class="cls-2" x="3" y="21" width="1" height="1"/><rect class="cls-2" x="3" y="22" width="1" height="1"/><rect class="cls-2" x="4" y="21" width="1" height="1"/><rect class="cls-2" x="3" y="23" width="1" height="1"/><rect class="cls-2" x="4" y="22" width="1" height="1"/><rect class="cls-2" x="5" y="21" width="1" height="1"/><rect class="cls-2" x="4" y="23" width="1" height="1"/><rect class="cls-2" x="5" y="22" width="1" height="1"/><rect class="cls-2" x="5" y="23" width="1" height="1"/></g><g id="B38E3C3C-1914-49F6-B43E-BB1A3A2F1AC7"><rect class="cls-2" x="4" y="9" width="1" height="1"/><rect class="cls-2" x="5" y="9" width="1" height="1"/></g><g id="ABA5F86B-88F3-4E53-BD14-FA336A092EDF"><rect class="cls-2" x="6" y="10" width="1" height="1"/></g><g id="F3BD0BA4-E5BE-402F-8C37-FF914996F5EB"><rect class="cls-2" x="7" y="9" width="1" height="1"/></g><g id="E44616EA-2C11-444E-A5E3-4E9178E38B20"><rect class="cls-2" x="7" y="11" width="1" height="1"/><rect class="cls-2" x="8" y="11" width="1" height="1"/><rect class="cls-2" x="8" y="10" width="1" height="1"/><rect class="cls-2" x="9" y="11" width="1" height="1"/><rect class="cls-2" x="9" y="10" width="1" height="1"/><rect class="cls-2" x="10" y="11" width="1" height="1"/></g><g id="F41CE5A5-6B99-44F1-A940-5699EF59C31F"><rect class="cls-2" x="7" y="13" width="1" height="1"/></g><g id="_4A69F700-8CED-4EA7-9745-0C13A0A09DDE" data-name="4A69F700-8CED-4EA7-9745-0C13A0A09DDE"><rect class="cls-2" x="7" y="15" width="1" height="1"/><rect class="cls-2" x="8" y="15" width="1" height="1"/><rect class="cls-2" x="9" y="15" width="1" height="1"/><rect class="cls-2" x="9" y="16" width="1" height="1"/><rect class="cls-2" x="10" y="15" width="1" height="1"/><rect class="cls-2" x="9" y="17" width="1" height="1"/><rect class="cls-2" x="10" y="16" width="1" height="1"/><rect class="cls-2" x="10" y="14" width="1" height="1"/><rect class="cls-2" x="11" y="15" width="1" height="1"/><rect class="cls-2" x="9" y="18" width="1" height="1"/><rect class="cls-2" x="10" y="13" width="1" height="1"/><rect class="cls-2" x="11" y="14" width="1" height="1"/><rect class="cls-2" x="11" y="13" width="1" height="1"/></g><g id="_57CE3026-A622-4C54-83C9-18D4DEDDA108" data-name="57CE3026-A622-4C54-83C9-18D4DEDDA108"><rect class="cls-2" x="9" y="1" width="1" height="1"/><rect class="cls-2" x="10" y="1" width="1" height="1"/><rect class="cls-2" x="11" y="1" width="1" height="1"/><rect class="cls-2" x="12" y="1" width="1" height="1"/><rect class="cls-2" x="12" y="2" width="1" height="1"/><rect class="cls-2" x="12" y="3" width="1" height="1"/><rect class="cls-2" x="13" y="2" width="1" height="1"/><rect class="cls-2" x="12" y="4" width="1" height="1"/><rect class="cls-2" x="14" y="2" width="1" height="1"/><rect class="cls-2" x="11" y="4" width="1" height="1"/><rect class="cls-2" x="12" y="5" width="1" height="1"/><rect class="cls-2" x="13" y="4" width="1" height="1"/><rect class="cls-2" x="14" y="1" width="1" height="1"/><rect class="cls-2" x="14" y="3" width="1" height="1"/><rect class="cls-2" x="11" y="5" width="1" height="1"/><rect class="cls-2" x="12" y="6" width="1" height="1"/><rect class="cls-2" x="13" y="5" width="1" height="1"/><rect class="cls-2" x="15" y="3" width="1" height="1"/><rect class="cls-2" x="14" y="5" width="1" height="1"/><rect class="cls-2" x="14" y="6" width="1" height="1"/><rect class="cls-2" x="15" y="5" width="1" height="1"/></g><g id="_6C1CDFA2-3671-4307-B41E-98D32A81421C" data-name="6C1CDFA2-3671-4307-B41E-98D32A81421C"><rect class="cls-2" x="9" y="7" width="1" height="1"/><rect class="cls-2" x="9" y="8" width="1" height="1"/><rect class="cls-2" x="10" y="8" width="1" height="1"/><rect class="cls-2" x="10" y="9" width="1" height="1"/></g><g id="_8539A4CB-8403-498D-B615-EB5D85C594DE" data-name="8539A4CB-8403-498D-B615-EB5D85C594DE"><rect class="cls-2" x="9" y="21" width="1" height="1"/><rect class="cls-2" x="9" y="22" width="1" height="1"/><rect class="cls-2" x="10" y="22" width="1" height="1"/><rect class="cls-2" x="11" y="22" width="1" height="1"/></g><g id="F7573F53-BC1D-4E8F-8F82-D2BAB938A897"><rect class="cls-2" x="9" y="24" width="1" height="1"/><rect class="cls-2" x="9" y="25" width="1" height="1"/><rect class="cls-2" x="10" y="25" width="1" height="1"/></g><g id="_030616F6-5C0C-4FE3-B7BC-A5F29AED0D0B" data-name="030616F6-5C0C-4FE3-B7BC-A5F29AED0D0B"><rect class="cls-2" x="10" y="3" width="1" height="1"/></g><g id="_28A4107E-FD2D-466F-A142-4513F29C347C" data-name="28A4107E-FD2D-466F-A142-4513F29C347C"><rect class="cls-2" x="10" y="6" width="1" height="1"/></g><g id="_3A30BD71-BD4E-4489-9ED9-A4063FA02647" data-name="3A30BD71-BD4E-4489-9ED9-A4063FA02647"><rect class="cls-2" x="10" y="19" width="1" height="1"/><rect class="cls-2" x="10" y="20" width="1" height="1"/><rect class="cls-2" x="11" y="19" width="1" height="1"/><rect class="cls-2" x="12" y="19" width="1" height="1"/><rect class="cls-2" x="12" y="20" width="1" height="1"/><rect class="cls-2" x="13" y="19" width="1" height="1"/></g><g id="_58EBE806-0F4E-4B3D-8C6B-ADA5FA217C39" data-name="58EBE806-0F4E-4B3D-8C6B-ADA5FA217C39"><rect class="cls-2" x="11" y="7" width="1" height="1"/></g><g id="CB31083D-52D0-415A-86A7-3035DA0E6491"><rect class="cls-2" x="11" y="10" width="1" height="1"/><rect class="cls-2" x="12" y="10" width="1" height="1"/><rect class="cls-2" x="12" y="9" width="1" height="1"/><rect class="cls-2" x="12" y="11" width="1" height="1"/><rect class="cls-2" x="12" y="8" width="1" height="1"/><rect class="cls-2" x="13" y="9" width="1" height="1"/><rect class="cls-2" x="12" y="12" width="1" height="1"/><rect class="cls-2" x="13" y="11" width="1" height="1"/><rect class="cls-2" x="13" y="8" width="1" height="1"/><rect class="cls-2" x="14" y="9" width="1" height="1"/><rect class="cls-2" x="13" y="12" width="1" height="1"/><rect class="cls-2" x="13" y="7" width="1" height="1"/><rect class="cls-2" x="14" y="8" width="1" height="1"/><rect class="cls-2" x="15" y="9" width="1" height="1"/><rect class="cls-2" x="15" y="10" width="1" height="1"/><rect class="cls-2" x="16" y="9" width="1" height="1"/><rect class="cls-2" x="15" y="11" width="1" height="1"/><rect class="cls-2" x="16" y="10" width="1" height="1"/><rect class="cls-2" x="17" y="9" width="1" height="1"/><rect class="cls-2" x="15" y="12" width="1" height="1"/><rect class="cls-2" x="16" y="11" width="1" height="1"/><rect class="cls-2" x="17" y="8" width="1" height="1"/><rect class="cls-2" x="16" y="12" width="1" height="1"/><rect class="cls-2" x="17" y="7" width="1" height="1"/><rect class="cls-2" x="16" y="13" width="1" height="1"/><rect class="cls-2" x="17" y="12" width="1" height="1"/><rect class="cls-2" x="16" y="14" width="1" height="1"/><rect class="cls-2" x="17" y="13" width="1" height="1"/><rect class="cls-2" x="15" y="14" width="1" height="1"/><rect class="cls-2" x="16" y="15" width="1" height="1"/><rect class="cls-2" x="17" y="14" width="1" height="1"/><rect class="cls-2" x="15" y="15" width="1" height="1"/><rect class="cls-2" x="16" y="16" width="1" height="1"/><rect class="cls-2" x="17" y="15" width="1" height="1"/><rect class="cls-2" x="18" y="14" width="1" height="1"/><rect class="cls-2" x="14" y="15" width="1" height="1"/><rect class="cls-2" x="18" y="15" width="1" height="1"/><rect class="cls-2" x="18" y="16" width="1" height="1"/><rect class="cls-2" x="19" y="15" width="1" height="1"/><rect class="cls-2" x="18" y="17" width="1" height="1"/><rect class="cls-2" x="19" y="16" width="1" height="1"/><rect class="cls-2" x="17" y="17" width="1" height="1"/><rect class="cls-2" x="19" y="17" width="1" height="1"/><rect class="cls-2" x="20" y="16" width="1" height="1"/><rect class="cls-2" x="17" y="18" width="1" height="1"/><rect class="cls-2" x="20" y="17" width="1" height="1"/><rect class="cls-2" x="17" y="19" width="1" height="1"/><rect class="cls-2" x="21" y="17" width="1" height="1"/><rect class="cls-2" x="17" y="20" width="1" height="1"/><rect class="cls-2" x="21" y="18" width="1" height="1"/><rect class="cls-2" x="17" y="21" width="1" height="1"/><rect class="cls-2" x="21" y="19" width="1" height="1"/><rect class="cls-2" x="16" y="21" width="1" height="1"/><rect class="cls-2" x="17" y="22" width="1" height="1"/><rect class="cls-2" x="18" y="21" width="1" height="1"/><rect class="cls-2" x="21" y="20" width="1" height="1"/><rect class="cls-2" x="15" y="21" width="1" height="1"/><rect class="cls-2" x="16" y="22" width="1" height="1"/><rect class="cls-2" x="18" y="22" width="1" height="1"/><rect class="cls-2" x="19" y="21" width="1" height="1"/><rect class="cls-2" x="21" y="21" width="1" height="1"/><rect class="cls-2" x="14" y="21" width="1" height="1"/><rect class="cls-2" x="15" y="20" width="1" height="1"/><rect class="cls-2" x="19" y="22" width="1" height="1"/><rect class="cls-2" x="20" y="21" width="1" height="1"/><rect class="cls-2" x="13" y="21" width="1" height="1"/><rect class="cls-2" x="14" y="20" width="1" height="1"/><rect class="cls-2" x="14" y="22" width="1" height="1"/><rect class="cls-2" x="14" y="23" width="1" height="1"/><rect class="cls-2" x="13" y="23" width="1" height="1"/><rect class="cls-2" x="12" y="23" width="1" height="1"/><rect class="cls-2" x="12" y="24" width="1" height="1"/><rect class="cls-2" x="12" y="25" width="1" height="1"/></g><g id="_0C037D36-A0CE-45E3-B241-DC6DA1EB3347" data-name="0C037D36-A0CE-45E3-B241-DC6DA1EB3347"><rect class="cls-2" x="12" y="17" width="1" height="1"/></g><g id="_7C4BBC71-189F-4506-9A7F-12065E1B1CFB" data-name="7C4BBC71-189F-4506-9A7F-12065E1B1CFB"><rect class="cls-2" x="14" y="13" width="1" height="1"/></g><g id="_0C7745DB-60F0-49B1-A181-24ED92925EBB" data-name="0C7745DB-60F0-49B1-A181-24ED92925EBB"><rect class="cls-2" x="14" y="17" width="1" height="1"/><rect class="cls-2" x="15" y="17" width="1" height="1"/><rect class="cls-2" x="15" y="18" width="1" height="1"/></g><g id="E36C4E17-C27A-4FAF-A23A-D36017CF6B78"><rect class="cls-2" x="15" y="7" width="1" height="1"/></g><g id="_2A971832-36DE-4A3C-BF12-CA6BB07F6AF9" data-name="2A971832-36DE-4A3C-BF12-CA6BB07F6AF9"><rect class="cls-2" x="15" y="24" width="1" height="1"/><rect class="cls-2" x="16" y="24" width="1" height="1"/></g><g id="FB138099-9EE0-4353-A53A-827F22D74FAE"><rect class="cls-2" x="16" y="1" width="1" height="1"/></g><g id="_4508BBAA-62CE-46CC-8408-26E579C6493E" data-name="4508BBAA-62CE-46CC-8408-26E579C6493E"><rect class="cls-2" x="16" y="4" width="1" height="1"/><rect class="cls-2" x="17" y="4" width="1" height="1"/></g><g id="_59B6E83F-AC71-4729-ABBD-97C4203E2C43" data-name="59B6E83F-AC71-4729-ABBD-97C4203E2C43"><rect class="cls-2" x="17" y="2" width="1" height="1"/></g><g id="_4133E539-78CC-4107-A0DC-087FFAB2FF67" data-name="4133E539-78CC-4107-A0DC-087FFAB2FF67"><rect class="cls-2" x="17" y="25" width="1" height="1"/><rect class="cls-2" x="18" y="25" width="1" height="1"/><rect class="cls-2" x="19" y="25" width="1" height="1"/><rect class="cls-2" x="19" y="24" width="1" height="1"/><rect class="cls-2" x="20" y="24" width="1" height="1"/><rect class="cls-2" x="21" y="24" width="1" height="1"/><rect class="cls-2" x="21" y="23" width="1" height="1"/><rect class="cls-2" x="22" y="23" width="1" height="1"/><rect class="cls-2" x="23" y="23" width="1" height="1"/><rect class="cls-2" x="23" y="24" width="1" height="1"/><rect class="cls-2" x="24" y="23" width="1" height="1"/><rect class="cls-2" x="24" y="24" width="1" height="1"/><rect class="cls-2" x="24" y="22" width="1" height="1"/><rect class="cls-2" x="25" y="23" width="1" height="1"/><rect class="cls-2" x="25" y="24" width="1" height="1"/><rect class="cls-2" x="24" y="21" width="1" height="1"/><rect class="cls-2" x="25" y="22" width="1" height="1"/><rect class="cls-2" x="25" y="25" width="1" height="1"/></g><g id="A2409998-7B38-4A08-9DC9-7CD634D86AC2"><rect class="cls-2" x="19" y="1" width="1" height="1"/><rect class="cls-2" x="19" y="2" width="1" height="1"/><rect class="cls-2" x="20" y="1" width="1" height="1"/><rect class="cls-2" x="19" y="3" width="1" height="1"/><rect class="cls-2" x="21" y="1" width="1" height="1"/><rect class="cls-2" x="19" y="4" width="1" height="1"/><rect class="cls-2" x="22" y="1" width="1" height="1"/><rect class="cls-2" x="19" y="5" width="1" height="1"/><rect class="cls-2" x="23" y="1" width="1" height="1"/><rect class="cls-2" x="19" y="6" width="1" height="1"/><rect class="cls-2" x="24" y="1" width="1" height="1"/><rect class="cls-2" x="19" y="7" width="1" height="1"/><rect class="cls-2" x="25" y="1" width="1" height="1"/><rect class="cls-2" x="20" y="7" width="1" height="1"/><rect class="cls-2" x="25" y="2" width="1" height="1"/><rect class="cls-2" x="21" y="7" width="1" height="1"/><rect class="cls-2" x="25" y="3" width="1" height="1"/><rect class="cls-2" x="22" y="7" width="1" height="1"/><rect class="cls-2" x="25" y="4" width="1" height="1"/><rect class="cls-2" x="23" y="7" width="1" height="1"/><rect class="cls-2" x="25" y="5" width="1" height="1"/><rect class="cls-2" x="24" y="7" width="1" height="1"/><rect class="cls-2" x="25" y="6" width="1" height="1"/><rect class="cls-2" x="25" y="7" width="1" height="1"/></g><g id="_16C38FF5-0BD1-441C-9E9B-D83531BA9AF6" data-name="16C38FF5-0BD1-441C-9E9B-D83531BA9AF6"><rect class="cls-2" x="19" y="9" width="1" height="1"/></g><g id="_4BFCEC87-70FB-46C3-A1C9-5BE61090667B" data-name="4BFCEC87-70FB-46C3-A1C9-5BE61090667B"><rect class="cls-2" x="19" y="13" width="1" height="1"/></g><g id="F3FCCF41-60F8-4CA9-A4E6-7FFC8283F64C"><rect class="cls-2" x="19" y="19" width="1" height="1"/></g><g id="_5B79A537-853F-4A87-B530-7619B70AA6D8" data-name="5B79A537-853F-4A87-B530-7619B70AA6D8"><rect class="cls-2" x="20" y="10" width="1" height="1"/><rect class="cls-2" x="20" y="11" width="1" height="1"/><rect class="cls-2" x="21" y="10" width="1" height="1"/><rect class="cls-2" x="21" y="11" width="1" height="1"/><rect class="cls-2" x="22" y="10" width="1" height="1"/><rect class="cls-2" x="21" y="12" width="1" height="1"/><rect class="cls-2" x="22" y="11" width="1" height="1"/><rect class="cls-2" x="23" y="10" width="1" height="1"/><rect class="cls-2" x="22" y="12" width="1" height="1"/><rect class="cls-2" x="24" y="10" width="1" height="1"/><rect class="cls-2" x="23" y="12" width="1" height="1"/><rect class="cls-2" x="24" y="12" width="1" height="1"/><rect class="cls-2" x="25" y="12" width="1" height="1"/><rect class="cls-2" x="25" y="11" width="1" height="1"/><rect class="cls-2" x="25" y="13" width="1" height="1"/></g><g id="_9AE85D8B-4F09-4328-AE2E-EE08139FC1F3" data-name="9AE85D8B-4F09-4328-AE2E-EE08139FC1F3"><rect class="cls-2" x="21" y="3" width="1" height="1"/><rect class="cls-2" x="21" y="4" width="1" height="1"/><rect class="cls-2" x="22" y="3" width="1" height="1"/><rect class="cls-2" x="21" y="5" width="1" height="1"/><rect class="cls-2" x="22" y="4" width="1" height="1"/><rect class="cls-2" x="23" y="3" width="1" height="1"/><rect class="cls-2" x="22" y="5" width="1" height="1"/><rect class="cls-2" x="23" y="4" width="1" height="1"/><rect class="cls-2" x="23" y="5" width="1" height="1"/></g><g id="B4D7B561-FC65-4B44-922C-CCD141AB4504"><rect class="cls-2" x="21" y="14" width="1" height="1"/><rect class="cls-2" x="21" y="15" width="1" height="1"/><rect class="cls-2" x="22" y="15" width="1" height="1"/><rect class="cls-2" x="22" y="16" width="1" height="1"/><rect class="cls-2" x="23" y="15" width="1" height="1"/><rect class="cls-2" x="23" y="16" width="1" height="1"/><rect class="cls-2" x="24" y="15" width="1" height="1"/><rect class="cls-2" x="23" y="17" width="1" height="1"/><rect class="cls-2" x="24" y="14" width="1" height="1"/><rect class="cls-2" x="25" y="15" width="1" height="1"/><rect class="cls-2" x="23" y="18" width="1" height="1"/><rect class="cls-2" x="24" y="17" width="1" height="1"/><rect class="cls-2" x="25" y="16" width="1" height="1"/><rect class="cls-2" x="24" y="18" width="1" height="1"/></g><g id="_504CCAC4-4913-4F99-87BD-2C81EE9B9B88" data-name="504CCAC4-4913-4F99-87BD-2C81EE9B9B88"><rect class="cls-2" x="22" y="25" width="1" height="1"/></g><g id="_5020432A-53DF-4FDF-94BA-2A7E7854D3BD" data-name="5020432A-53DF-4FDF-94BA-2A7E7854D3BD"><rect class="cls-2" x="25" y="9" width="1" height="1"/></g><g id="_9456E1CD-1E94-46B6-BF20-1DC8DFC38388" data-name="9456E1CD-1E94-46B6-BF20-1DC8DFC38388"><rect class="cls-2" x="25" y="19" width="1" height="1"/><rect class="cls-2" x="25" y="20" width="1" height="1"/></g></g></g></svg>