<svg xmlns="http://www.w3.org/2000/svg" xmlns:xlink="http://www.w3.org/1999/xlink" viewBox="0 0 219.9 219.9"><defs><style>.cls-1{fill:none;}.cls-2{isolation:isolate;}.cls-3{fill:#fff;}.cls-4{fill:#a46a3a;}.cls-5{fill:#1d1d1c;}.cls-6{fill:#e1b080;}.cls-7{fill:#1d1d1b;}.cls-8{fill:#ce612e;}.cls-9{fill:#f6b17a;}.cls-10,.cls-12{mix-blend-mode:multiply;}.cls-10,.cls-14{opacity:0.6;}.cls-11{fill:#ee8020;}.cls-13{clip-path:url(#clip-path);}.cls-15{clip-path:url(#clip-path-2);}.cls-16{clip-path:url(#clip-path-3);}</style><clipPath id="clip-path"><rect class="cls-1" x="131.87" y="53.86" width="27.74" height="91.07" rx="11.21" transform="translate(-17.63 32.84) rotate(-12.13)"/></clipPath><clipPath id="clip-path-2"><rect class="cls-1" x="97.95" y="43.93" width="29.69" height="97.46" rx="11.99" transform="translate(-16.95 25.77) rotate(-12.13)"/></clipPath><clipPath id="clip-path-3"><rect class="cls-1" x="62.8" y="35.2" width="30.51" height="100.14" rx="12.32" transform="translate(-16.17 18.31) rotate(-12.13)"/></clipPath></defs><g class="cls-2"><g id="Layer_2" data-name="Layer 2"><g id="Слой_1" data-name="Слой 1"><circle class="cls-3" cx="109.95" cy="109.95" r="109.95"/><path class="cls-4" d="M152.62,130.15h0a1.48,1.48,0,0,0-1.14,1.77l10.77,53c.18.8.59,1.38,1.39,1.2l.38-.06a2.21,2.21,0,0,0,1.86-1.8,2.11,2.11,0,0,0,0-.66l-11.44-52.31A1.48,1.48,0,0,0,152.62,130.15Z"/><path class="cls-5" d="M164,186.15l-.38.07h0a1.05,1.05,0,0,1-1-.27,2,2,0,0,1-.48-1l-10.77-53a1.57,1.57,0,0,1,1.21-1.88h0a1.59,1.59,0,0,1,1.87,1.22l11.44,52.31a2.15,2.15,0,0,1,.06.69A2.3,2.3,0,0,1,164,186.15Zm-.42-.12L164,186a2.1,2.1,0,0,0,1.78-1.71,2.07,2.07,0,0,0,0-.63L154.3,131.31a1.41,1.41,0,0,0-1.66-1.07h0a1.41,1.41,0,0,0-1.07,1.66l10.77,53a1.84,1.84,0,0,0,.44.92.86.86,0,0,0,.83.21Z"/><rect class="cls-6" x="156.54" y="129.89" width="2.98" height="56.8" rx="1.2" transform="translate(-30.16 37.41) rotate(-12.33)"/><rect class="cls-6" x="156.54" y="129.89" width="2.98" height="56.8" rx="1.2" transform="translate(-30.16 37.41) rotate(-12.33)"/><rect class="cls-6" x="156.54" y="129.89" width="2.98" height="56.8" rx="1.2" transform="translate(-30.16 37.41) rotate(-12.33)"/><path class="cls-7" d="M163.54,186.25a1,1,0,0,1-1.19-.77l-11.74-53.7a1,1,0,0,1,.77-1.2l1.13-.25a1,1,0,0,1,.76.14,1,1,0,0,1,.44.64l11.74,53.69a1,1,0,0,1-.14.76,1,1,0,0,1-.63.45l-1.13.24Zm-11-55.73-1.13.25a.81.81,0,0,0-.62,1l11.74,53.7a.77.77,0,0,0,.35.51.83.83,0,0,0,.61.12h0l1.13-.24a.85.85,0,0,0,.51-.36.79.79,0,0,0,.11-.62l-11.74-53.69a.82.82,0,0,0-1-.63Z"/><rect class="cls-8" x="131.01" y="52.48" width="30.5" height="93.61" rx="14.06" transform="translate(-17.6 32.95) rotate(-12.13)"/><path class="cls-7" d="M154.89,145.49a14.26,14.26,0,0,1-16.85-11l-13.76-64a14.3,14.3,0,0,1,10.94-16.93l2.32-.5A14.28,14.28,0,0,1,154.47,64l13.76,64A14.3,14.3,0,0,1,157.29,145h0l-2.32.5ZM137.7,53.44l-.08,0-2.32.5a13.92,13.92,0,0,0-10.65,16.47l13.77,64a13.9,13.9,0,0,0,16.47,10.64l2.32-.5a13.92,13.92,0,0,0,10.65-16.47l-13.76-64A13.89,13.89,0,0,0,137.7,53.44Z"/><rect class="cls-9" x="131.87" y="53.86" width="27.74" height="91.07" rx="12.79" transform="translate(-17.63 32.84) rotate(-12.13)"/><path class="cls-7" d="M154.22,144.34a13,13,0,0,1-15.35-10l-13.76-64a13,13,0,0,1,10-15.42l2.12-.45.07,0a13,13,0,0,1,15.35,10l13.76,64a13,13,0,0,1-10,15.42h0l-2.11.45Zm2.1-.85,0,.19,0-.19a12.6,12.6,0,0,0,9.67-15l-13.76-64a12.6,12.6,0,0,0-14.89-9.68h-.07l-2.12.46a12.64,12.64,0,0,0-9.67,15l13.76,64a12.64,12.64,0,0,0,14.9,9.68h.07Z"/><g class="cls-10"><path class="cls-11" d="M155.25,68.11l11.72,55c3.55,13.2-2.74,20.17-10,21.76,0,0-3.4.51-3.7.5.26-.35.66-1.08.89-1.44s.51-.84.74-1.27l.29-.55.27-.57c.25-.54.48-1.09.68-1.64.08-.21.15-.43.22-.64l0-.12c0-.11.07-.21.1-.32s.07-.22.1-.32a29.54,29.54,0,0,0,1-4.56l.06-.44c0-.05,0-.11,0-.16,0-.34.07-.66.1-1v-.1a27,27,0,0,0-.57-7.83L145.31,70.23s-1.07-4.3-2-7.08l-.2-.58c-.07-.22-.15-.42-.21-.6s-.1-.24-.14-.35q-.21-.49-.42-1c0-.13-.11-.25-.17-.37s-.11-.25-.17-.37c-.4-.83-.81-1.57-1.21-2.24-.24-.4-.47-.76-.7-1.1a21.06,21.06,0,0,0-1.6-2.09,9.94,9.94,0,0,0-1-1C146.5,51.73,152.9,57.35,155.25,68.11Z"/></g><g class="cls-12"><g class="cls-13"><g class="cls-14"><rect class="cls-8" x="123.95" y="53.63" width="8.65" height="8.65" rx="0.49" transform="translate(9.98 134.24) rotate(-57.13)"/><rect class="cls-8" x="139.67" y="50.25" width="8.65" height="8.65" rx="0.49" transform="translate(20.01 145.9) rotate(-57.13)"/><rect class="cls-8" x="133.64" y="59.57" width="8.65" height="8.65" rx="0.49" transform="translate(9.42 145.1) rotate(-57.13)"/><rect class="cls-8" x="127.27" y="69.08" width="8.65" height="8.65" rx="0.49" transform="translate(-1.48 144.09) rotate(-57.13)"/><rect class="cls-8" x="142.99" y="65.7" width="8.65" height="8.65" rx="0.49" transform="translate(8.55 155.75) rotate(-57.13)"/><rect class="cls-8" x="136.96" y="75.02" width="8.65" height="8.65" rx="0.49" transform="translate(-2.04 154.95) rotate(-57.13)"/><rect class="cls-8" x="130.59" y="84.55" width="8.65" height="8.65" rx="0.49" transform="translate(-12.96 153.96) rotate(-57.13)"/><rect class="cls-8" x="146.32" y="81.17" width="8.65" height="8.65" rx="0.49" transform="translate(-2.93 165.62) rotate(-57.13)"/><rect class="cls-8" x="140.29" y="90.5" width="8.65" height="8.65" rx="0.49" transform="translate(-13.52 164.82) rotate(-57.13)"/><rect class="cls-8" x="133.92" y="100" width="8.65" height="8.65" rx="0.49" transform="translate(-24.41 163.82) rotate(-57.13)"/><rect class="cls-8" x="149.64" y="96.62" width="8.65" height="8.65" rx="0.49" transform="matrix(0.54, -0.84, 0.84, 0.54, -14.39, 175.47)"/><rect class="cls-8" x="143.61" y="105.95" width="8.65" height="8.65" rx="0.49" transform="translate(-24.98 174.68) rotate(-57.13)"/><rect class="cls-8" x="137.19" y="115.25" width="8.65" height="8.65" rx="0.49" transform="translate(-35.72 173.54) rotate(-57.13)"/><rect class="cls-8" x="152.91" y="111.87" width="8.65" height="8.65" rx="0.49" transform="translate(-25.69 185.2) rotate(-57.13)"/><rect class="cls-8" x="146.89" y="121.2" width="8.65" height="8.65" rx="0.49" transform="translate(-36.28 184.4) rotate(-57.13)"/><rect class="cls-8" x="140.51" y="130.7" width="8.65" height="8.65" rx="0.49" transform="translate(-47.18 183.39) rotate(-57.13)"/><rect class="cls-8" x="156.23" y="127.32" width="8.65" height="8.65" rx="0.49" transform="translate(-37.15 195.05) rotate(-57.13)"/><rect class="cls-8" x="150.21" y="136.65" width="8.65" height="8.65" rx="0.49" transform="translate(-47.74 194.25) rotate(-57.13)"/><rect class="cls-8" x="148.89" y="56.3" width="8.65" height="8.65" rx="0.49" transform="translate(19.14 156.4) rotate(-57.13)"/><rect class="cls-8" x="152.21" y="71.75" width="8.65" height="8.65" rx="0.49" transform="translate(7.68 166.26) rotate(-57.13)"/><rect class="cls-8" x="155.53" y="87.22" width="8.65" height="8.65" rx="0.49" transform="translate(-3.79 176.13) rotate(-57.13)"/><rect class="cls-8" x="158.85" y="102.67" width="8.65" height="8.65" rx="0.49" transform="translate(-15.25 185.98) rotate(-57.13)"/><rect class="cls-8" x="162.13" y="117.92" width="8.65" height="8.65" rx="0.49" transform="translate(-26.56 195.71) rotate(-57.13)"/><rect class="cls-8" x="165.45" y="133.37" width="8.65" height="8.65" rx="0.49" transform="translate(-38.02 205.56) rotate(-57.13)"/><rect class="cls-8" x="117.11" y="63.13" width="8.65" height="8.65" rx="0.49" transform="matrix(0.54, -0.84, 0.84, 0.54, -1.12, 132.84)"/><rect class="cls-8" x="120.43" y="78.58" width="8.65" height="8.65" rx="0.49" transform="translate(-12.58 142.69) rotate(-57.13)"/><rect class="cls-8" x="123.76" y="94.05" width="8.65" height="8.65" rx="0.49" transform="translate(-24.06 152.56) rotate(-57.13)"/><rect class="cls-8" x="127.08" y="109.5" width="8.65" height="8.65" rx="0.49" transform="translate(-35.52 162.42) rotate(-57.13)"/><rect class="cls-8" x="130.36" y="124.75" width="8.65" height="8.65" rx="0.49" transform="translate(-46.83 172.14) rotate(-57.13)"/><rect class="cls-8" x="133.68" y="140.2" width="8.65" height="8.65" rx="0.49" transform="translate(-58.28 182) rotate(-57.13)"/></g></g></g><g class="cls-12"><path class="cls-8" d="M143.67,63.12l-4.12,6.37a.53.53,0,0,1-.73.16l-.11-.07,4-6.27a.53.53,0,0,0-.15-.73l-6.27-4,.07-.11a.53.53,0,0,1,.74-.16l6.37,4.12A.53.53,0,0,1,143.67,63.12Z"/></g><g class="cls-12"><path class="cls-8" d="M147.38,57.37l-1.8,2.78a.52.52,0,0,1-.73.16l-.11-.07L146.86,57Z"/></g><g class="cls-12"><path class="cls-8" d="M134,57.11l-4.12,6.37a.53.53,0,0,1-.74.16l-.11-.07,4-6.26a.53.53,0,0,0-.16-.74l-.34-.22.67-.35.59.38A.53.53,0,0,1,134,57.11Z"/></g><g class="cls-12"><path class="cls-8" d="M137.21,72.55l-4.12,6.37a.53.53,0,0,1-.73.16l-.11-.07,4.05-6.27a.53.53,0,0,0-.16-.73L129.87,68l.07-.11a.53.53,0,0,1,.74-.16l6.37,4.12A.53.53,0,0,1,137.21,72.55Z"/></g><g class="cls-12"><path class="cls-8" d="M153,69.15l-4.12,6.37a.53.53,0,0,1-.74.16l-.1-.07,4-6.26a.54.54,0,0,0-.15-.74l-6.27-4,.07-.1a.53.53,0,0,1,.74-.16l6.37,4.11A.53.53,0,0,1,153,69.15Z"/></g><g class="cls-12"><path class="cls-8" d="M147,78.51l-4.12,6.37a.52.52,0,0,1-.73.16L142,85l4-6.26a.55.55,0,0,0-.16-.74l-6.27-4,.07-.1a.53.53,0,0,1,.74-.16l6.37,4.11A.53.53,0,0,1,147,78.51Z"/></g><g class="cls-12"><path class="cls-8" d="M140.6,88.05l-4.12,6.37a.53.53,0,0,1-.74.16l-.11-.07,4.05-6.27a.52.52,0,0,0-.16-.73l-6.26-4.05.07-.11a.52.52,0,0,1,.73-.16l6.38,4.12A.55.55,0,0,1,140.6,88.05Z"/></g><g class="cls-12"><path class="cls-8" d="M150.3,94l-4.12,6.37a.52.52,0,0,1-.73.16l-.11-.07,4-6.27a.54.54,0,0,0-.16-.73l-6.27-4,.07-.11a.53.53,0,0,1,.74-.16l6.37,4.12A.53.53,0,0,1,150.3,94Z"/></g><g class="cls-12"><path class="cls-8" d="M143.91,103.46l-4.12,6.37a.54.54,0,0,1-.74.16l-.11-.07,4.05-6.27a.52.52,0,0,0-.16-.73l-6.26-4,.07-.11a.52.52,0,0,1,.73-.16l6.38,4.12A.54.54,0,0,1,143.91,103.46Z"/></g><g class="cls-12"><path class="cls-8" d="M159.65,100.07l-4.12,6.37a.52.52,0,0,1-.73.16l-.11-.07,4.05-6.26a.53.53,0,0,0-.16-.74l-6.26-4,.07-.1a.52.52,0,0,1,.73-.16l6.38,4.12A.53.53,0,0,1,159.65,100.07Z"/></g><g class="cls-12"><path class="cls-8" d="M153.66,109.48l-4.12,6.37a.52.52,0,0,1-.73.16l-.11-.07,4.05-6.26a.53.53,0,0,0-.16-.74l-6.26-4,.07-.11a.51.51,0,0,1,.73-.15l6.38,4.11A.54.54,0,0,1,153.66,109.48Z"/></g><g class="cls-12"><path class="cls-8" d="M147.2,118.77l-4.12,6.38a.54.54,0,0,1-.73.16l-.11-.07,4-6.27a.53.53,0,0,0-.15-.73l-6.27-4,.07-.11a.53.53,0,0,1,.74-.16L147,118A.52.52,0,0,1,147.2,118.77Z"/></g><g class="cls-12"><path class="cls-8" d="M137.1,113l-1.87,2.92L135,115l1.16-1.8a.53.53,0,0,0-.16-.74l-1.94-1.22-.2-.91,3.06,1.93A.54.54,0,0,1,137.1,113Z"/></g><g class="cls-12"><path class="cls-8" d="M133.79,97.54l-1.88,2.92-.19-.91,1.15-1.81a.54.54,0,0,0-.15-.74l-1.95-1.21-.19-.92,3,1.94A.52.52,0,0,1,133.79,97.54Z"/></g><g class="cls-12"><path class="cls-8" d="M130.47,82.1,128.59,85l-.19-.92,1.15-1.81a.53.53,0,0,0-.15-.73l-2-1.22-.19-.92,3,1.94A.53.53,0,0,1,130.47,82.1Z"/></g><g class="cls-12"><path class="cls-8" d="M127.14,66.59l-1.88,2.92-.2-.92,1.16-1.8a.53.53,0,0,0-.16-.74l-.6-.39.1-.69,1.42.88A.55.55,0,0,1,127.14,66.59Z"/></g><g class="cls-12"><path class="cls-8" d="M140.39,128.26l-1.88,2.92-.19-.92,1.16-1.8a.55.55,0,0,0-.16-.74l-1.94-1.22-.2-.91,3,1.93A.53.53,0,0,1,140.39,128.26Z"/></g><g class="cls-12"><path class="cls-8" d="M156.94,124.67,152.82,131a.53.53,0,0,1-.74.16l-.11-.07,4.05-6.27a.52.52,0,0,0-.16-.73l-6.26-4,.07-.11a.52.52,0,0,1,.73-.16l6.38,4.12A.53.53,0,0,1,156.94,124.67Z"/></g><g class="cls-12"><path class="cls-8" d="M160.26,140.14l-1.57,2.36-1,.56,1.7-2.72a.53.53,0,0,0-.16-.74l-6.26-4,.07-.1a.52.52,0,0,1,.73-.16l6.37,4.11A.53.53,0,0,1,160.26,140.14Z"/></g><g class="cls-12"><path class="cls-8" d="M163,115.39l-4.12,6.37a.53.53,0,0,1-.74.16l-.11-.07,4.05-6.26a.53.53,0,0,0-.16-.74l-6.26-4,.07-.11a.53.53,0,0,1,.73-.15l6.38,4.11A.54.54,0,0,1,163,115.39Z"/></g><g class="cls-12"><path class="cls-8" d="M150.5,134.13l-4.12,6.37a.52.52,0,0,1-.73.16l-.11-.07,4.05-6.26a.55.55,0,0,0-.16-.74l-6.27-4.05.07-.1a.53.53,0,0,1,.74-.16l6.37,4.12A.52.52,0,0,1,150.5,134.13Z"/></g><g class="cls-12"><path class="cls-8" d="M166.25,130.75l-4.12,6.37a.53.53,0,0,1-.74.16l-.11-.07,4.05-6.27a.52.52,0,0,0-.16-.73l-6.26-4.05.07-.11a.52.52,0,0,1,.73-.16l6.38,4.12A.53.53,0,0,1,166.25,130.75Z"/></g><g class="cls-12"><path class="cls-8" d="M156.34,84.66,152.22,91a.53.53,0,0,1-.73.15l-.11-.07,4.05-6.26a.53.53,0,0,0-.16-.74l-6.26-4,.07-.11a.52.52,0,0,1,.73-.16l6.37,4.12A.52.52,0,0,1,156.34,84.66Z"/></g><path class="cls-4" d="M120.16,125.57h0a1.6,1.6,0,0,0-1.22,1.9l11.53,56.71c.19.87.63,1.48,1.49,1.29l.41-.07a2.1,2.1,0,0,0,1.93-2.62l-12.24-56A1.61,1.61,0,0,0,120.16,125.57Z"/><path class="cls-5" d="M132.39,185.5l-.41.07h0a1.11,1.11,0,0,1-1.07-.29,2.14,2.14,0,0,1-.52-1.08l-11.53-56.72a1.7,1.7,0,0,1,1.3-2h0a1.7,1.7,0,0,1,2,1.3l12.24,56a2.39,2.39,0,0,1,.06.73A2.44,2.44,0,0,1,132.39,185.5Zm-.45-.13.41-.07a2.22,2.22,0,0,0,1.9-1.83,2,2,0,0,0-.05-.67l-12.24-56a1.51,1.51,0,0,0-1.78-1.14h0a1.51,1.51,0,0,0-1.14,1.78l11.53,56.71a2,2,0,0,0,.46,1,.94.94,0,0,0,.89.23Z"/><rect class="cls-6" x="124.36" y="125.3" width="3.19" height="60.78" rx="1.29" transform="translate(-30.35 30.5) rotate(-12.33)"/><rect class="cls-6" x="124.36" y="125.3" width="3.19" height="60.78" rx="1.29" transform="translate(-30.35 30.5) rotate(-12.33)"/><rect class="cls-6" x="124.36" y="125.3" width="3.19" height="60.78" rx="1.29" transform="translate(-30.35 30.5) rotate(-12.33)"/><path class="cls-7" d="M131.85,185.61a1.06,1.06,0,0,1-1.27-.82L118,127.32a1.05,1.05,0,0,1,.15-.81,1.08,1.08,0,0,1,.68-.48l1.2-.26a1.09,1.09,0,0,1,.82.15,1,1,0,0,1,.47.68l12.56,57.46a1.08,1.08,0,0,1-.14.82,1.09,1.09,0,0,1-.68.47l-1.21.26ZM120.08,126l-1.2.26a.87.87,0,0,0-.55.39.85.85,0,0,0-.12.66l12.57,57.46a.87.87,0,0,0,1,.67h0l1.2-.26a.87.87,0,0,0,.67-1l-12.56-57.47a.9.9,0,0,0-.38-.55.86.86,0,0,0-.66-.12h0Z"/><rect class="cls-8" x="97.03" y="42.45" width="32.64" height="100.18" rx="15.05" transform="translate(-16.91 25.89) rotate(-12.13)"/><path class="cls-7" d="M122.6,142a15.26,15.26,0,0,1-18-11.72L89.83,61.75a15.31,15.31,0,0,1,11.71-18.12L104,43.1a15.26,15.26,0,0,1,18.11,11.7l14.73,68.53a15.3,15.3,0,0,1-11.7,18.11h0l-2.49.54ZM104.19,43.48l-.07,0-2.49.53a14.89,14.89,0,0,0-11.4,17.63L105,130.18a14.89,14.89,0,0,0,17.63,11.4l2.49-.54a14.88,14.88,0,0,0,11.39-17.63L121.74,54.89A14.85,14.85,0,0,0,104.19,43.48Z"/><rect class="cls-9" x="97.95" y="43.93" width="29.69" height="97.46" rx="13.69" transform="translate(-16.95 25.77) rotate(-12.13)"/><path class="cls-7" d="M121.88,140.76a13.91,13.91,0,0,1-16.43-10.68L90.72,61.56a13.9,13.9,0,0,1,10.66-16.5l2.27-.49.07,0a13.92,13.92,0,0,1,16.43,10.68l14.73,68.52a13.91,13.91,0,0,1-10.67,16.5h0l-2.26.49Zm2.25-.91,0,.2,0-.2a13.49,13.49,0,0,0,10.35-16L119.75,55.32A13.49,13.49,0,0,0,103.81,45h-.08l-2.26.49a13.51,13.51,0,0,0-10.35,16L105.85,130a13.52,13.52,0,0,0,15.94,10.37l.07,0Z"/><g class="cls-10"><path class="cls-11" d="M123,59.18,135.52,118c3.8,14.12-2.93,21.58-10.72,23.28,0,0-3.64.55-4,.53.28-.37.71-1.15,1-1.53s.55-.9.8-1.36l.3-.59c.1-.2.2-.4.29-.61.27-.58.51-1.17.73-1.75l.24-.69a.93.93,0,0,0,0-.13c0-.12.08-.23.11-.34s.08-.23.11-.34a30.7,30.7,0,0,0,1-4.88l.06-.47c0-.06,0-.12,0-.17,0-.37.07-.72.1-1.06v-.1a28.7,28.7,0,0,0-.61-8.38l-12.68-58s-1.14-4.59-2.1-7.56q-.1-.33-.21-.63l-.23-.64c0-.14-.1-.26-.15-.38-.14-.35-.29-.69-.44-1l-.18-.4c-.07-.13-.13-.26-.19-.39-.43-.89-.87-1.69-1.29-2.4-.26-.43-.51-.82-.75-1.18a23.38,23.38,0,0,0-1.71-2.24A9.65,9.65,0,0,0,104,43.52C113.61,41.65,120.46,47.66,123,59.18Z"/></g><g class="cls-12"><g class="cls-15"><g class="cls-14"><rect class="cls-8" x="89.48" y="43.68" width="9.26" height="9.26" rx="0.52" transform="translate(2.46 101.13) rotate(-57.13)"/><rect class="cls-8" x="106.3" y="40.06" width="9.26" height="9.26" rx="0.52" transform="translate(13.19 113.61) rotate(-57.13)"/><rect class="cls-8" x="99.85" y="50.04" width="9.26" height="9.26" rx="0.52" transform="translate(1.86 112.76) rotate(-57.13)"/><rect class="cls-8" x="93.03" y="60.21" width="9.26" height="9.26" rx="0.52" transform="matrix(0.54, -0.84, 0.84, 0.54, -9.8, 111.68)"/><rect class="cls-8" x="109.86" y="56.6" width="9.26" height="9.26" rx="0.52" transform="translate(0.93 124.15) rotate(-57.13)"/><rect class="cls-8" x="103.41" y="66.58" width="9.26" height="9.26" rx="0.52" transform="translate(-10.41 123.3) rotate(-57.13)"/><rect class="cls-8" x="96.59" y="76.78" width="9.26" height="9.26" rx="0.52" transform="matrix(0.54, -0.84, 0.84, 0.54, -22.09, 122.24)"/><rect class="cls-8" x="113.42" y="73.16" width="9.26" height="9.26" rx="0.52" transform="translate(-11.36 134.72) rotate(-57.13)"/><rect class="cls-8" x="106.97" y="83.14" width="9.26" height="9.26" rx="0.52" transform="translate(-22.69 133.87) rotate(-57.13)"/><rect class="cls-8" x="100.15" y="93.31" width="9.26" height="9.26" rx="0.52" transform="translate(-34.35 132.79) rotate(-57.13)"/><rect class="cls-8" x="116.97" y="89.69" width="9.26" height="9.26" rx="0.52" transform="translate(-23.62 145.26) rotate(-57.13)"/><rect class="cls-8" x="110.52" y="99.68" width="9.26" height="9.26" rx="0.52" transform="translate(-34.95 144.41) rotate(-57.13)"/><rect class="cls-8" x="103.65" y="109.63" width="9.26" height="9.26" rx="0.52" transform="translate(-46.45 143.19) rotate(-57.13)"/><rect class="cls-8" x="120.48" y="106.01" width="9.26" height="9.26" rx="0.52" transform="translate(-35.72 155.67) rotate(-57.13)"/><rect class="cls-8" x="114.03" y="115.99" width="9.26" height="9.26" rx="0.52" transform="translate(-47.05 154.82) rotate(-57.13)"/><rect class="cls-8" x="107.21" y="126.16" width="9.26" height="9.26" rx="0.52" transform="translate(-58.71 153.74) rotate(-57.13)"/><rect class="cls-8" x="124.03" y="122.54" width="9.26" height="9.26" rx="0.52" transform="translate(-47.98 166.22) rotate(-57.13)"/><rect class="cls-8" x="117.58" y="132.53" width="9.26" height="9.26" rx="0.52" transform="translate(-59.32 165.36) rotate(-57.13)"/><rect class="cls-8" x="116.17" y="46.54" width="9.26" height="9.26" rx="0.52" transform="translate(12.26 124.86) rotate(-57.13)"/><rect class="cls-8" x="119.72" y="63.07" width="9.26" height="9.26" rx="0.52" transform="translate(0 135.4) rotate(-57.13)"/><rect class="cls-8" x="123.28" y="79.64" width="9.26" height="9.26" rx="0.52" transform="translate(-12.28 145.97) rotate(-57.13)"/><rect class="cls-8" x="126.84" y="96.17" width="9.26" height="9.26" rx="0.52" transform="translate(-24.55 156.51) rotate(-57.13)"/><rect class="cls-8" x="130.34" y="112.49" width="9.26" height="9.26" rx="0.52" transform="translate(-36.65 166.92) rotate(-57.13)"/><rect class="cls-8" x="133.9" y="129.02" width="9.26" height="9.26" rx="0.52" transform="translate(-48.91 177.46) rotate(-57.13)"/><rect class="cls-8" x="82.16" y="53.85" width="9.26" height="9.26" rx="0.52" transform="translate(-9.43 99.64) rotate(-57.13)"/><rect class="cls-8" x="85.72" y="70.38" width="9.26" height="9.26" rx="0.52" transform="translate(-21.69 110.18) rotate(-57.13)"/><rect class="cls-8" x="89.28" y="86.94" width="9.26" height="9.26" rx="0.52" transform="translate(-33.97 120.75) rotate(-57.13)"/><rect class="cls-8" x="92.83" y="103.48" width="9.26" height="9.26" rx="0.52" transform="translate(-46.23 131.29) rotate(-57.13)"/><rect class="cls-8" x="96.34" y="119.79" width="9.26" height="9.26" rx="0.52" transform="translate(-58.33 141.7) rotate(-57.13)"/><rect class="cls-8" x="99.89" y="136.33" width="9.26" height="9.26" rx="0.52" transform="matrix(0.54, -0.84, 0.84, 0.54, -70.6, 152.24)"/></g></g></g><g class="cls-12"><path class="cls-8" d="M110.58,53.83l-4.4,6.82a.57.57,0,0,1-.79.17l-.12-.07L109.61,54a.57.57,0,0,0-.17-.78l-6.71-4.33.08-.12a.56.56,0,0,1,.78-.17l6.83,4.41A.56.56,0,0,1,110.58,53.83Z"/></g><g class="cls-12"><path class="cls-8" d="M114.56,47.69l-1.93,3a.57.57,0,0,1-.78.17l-.12-.08,2.26-3.5Z"/></g><g class="cls-12"><path class="cls-8" d="M100.22,47.41l-4.41,6.82a.57.57,0,0,1-.78.17l-.12-.08,4.33-6.7a.57.57,0,0,0-.16-.79l-.37-.23.72-.38.62.4A.57.57,0,0,1,100.22,47.41Z"/></g><g class="cls-12"><path class="cls-8" d="M103.67,63.93l-4.4,6.82a.58.58,0,0,1-.79.17l-.12-.08,4.34-6.7a.58.58,0,0,0-.17-.79L95.82,59l.08-.12a.57.57,0,0,1,.78-.17l6.82,4.41A.57.57,0,0,1,103.67,63.93Z"/></g><g class="cls-12"><path class="cls-8" d="M120.58,60.29l-4.41,6.82a.56.56,0,0,1-.78.17l-.12-.07,4.33-6.71a.56.56,0,0,0-.17-.78l-6.7-4.34.07-.11a.57.57,0,0,1,.79-.17l6.82,4.41A.57.57,0,0,1,120.58,60.29Z"/></g><g class="cls-12"><path class="cls-8" d="M114.13,70.31l-4.41,6.82a.58.58,0,0,1-.79.17l-.11-.08,4.33-6.7a.58.58,0,0,0-.17-.79l-6.7-4.33.07-.11a.56.56,0,0,1,.79-.17l6.82,4.4A.58.58,0,0,1,114.13,70.31Z"/></g><g class="cls-12"><path class="cls-8" d="M107.3,80.52l-4.41,6.82a.58.58,0,0,1-.79.16l-.12-.07,4.34-6.7a.58.58,0,0,0-.17-.79l-6.71-4.33.08-.12a.56.56,0,0,1,.78-.17l6.83,4.41A.58.58,0,0,1,107.3,80.52Z"/></g><g class="cls-12"><path class="cls-8" d="M117.68,86.84l-4.41,6.82a.56.56,0,0,1-.78.17l-.12-.07,4.33-6.71a.57.57,0,0,0-.17-.79l-6.7-4.33.08-.11a.56.56,0,0,1,.78-.17l6.82,4.4A.57.57,0,0,1,117.68,86.84Z"/></g><g class="cls-12"><path class="cls-8" d="M110.84,97l-4.41,6.82a.56.56,0,0,1-.78.16l-.12-.07,4.33-6.7a.57.57,0,0,0-.17-.79L103,92.1l.07-.12a.57.57,0,0,1,.79-.17l6.82,4.41A.58.58,0,0,1,110.84,97Z"/></g><g class="cls-12"><path class="cls-8" d="M127.69,93.38l-4.41,6.82a.56.56,0,0,1-.78.17l-.12-.07,4.33-6.71a.56.56,0,0,0-.17-.78l-6.7-4.34.08-.11a.56.56,0,0,1,.78-.17l6.82,4.41A.56.56,0,0,1,127.69,93.38Z"/></g><g class="cls-12"><path class="cls-8" d="M121.28,103.45l-4.41,6.82a.57.57,0,0,1-.78.17l-.12-.07,4.33-6.71a.57.57,0,0,0-.17-.79l-6.7-4.33.08-.11a.56.56,0,0,1,.78-.17l6.82,4.4A.57.57,0,0,1,121.28,103.45Z"/></g><g class="cls-12"><path class="cls-8" d="M114.36,113.4,110,120.22a.57.57,0,0,1-.78.17l-.12-.08,4.33-6.7a.57.57,0,0,0-.16-.79l-6.71-4.33.08-.12a.55.55,0,0,1,.78-.16l6.82,4.4A.57.57,0,0,1,114.36,113.4Z"/></g><g class="cls-12"><path class="cls-8" d="M103.56,107.19l-2,3.12-.21-1,1.24-1.93a.57.57,0,0,0-.17-.79l-2.08-1.3-.21-1,3.27,2.07A.58.58,0,0,1,103.56,107.19Z"/></g><g class="cls-12"><path class="cls-8" d="M100,90.68,98,93.8l-.21-1L99,90.89a.57.57,0,0,0-.17-.79l-2.08-1.3-.21-1,3.27,2.07A.57.57,0,0,1,100,90.68Z"/></g><g class="cls-12"><path class="cls-8" d="M96.46,74.15l-2,3.12-.21-1,1.24-1.93a.58.58,0,0,0-.17-.79l-2.08-1.3-.21-1,3.27,2.07A.58.58,0,0,1,96.46,74.15Z"/></g><g class="cls-12"><path class="cls-8" d="M92.89,57.55l-2,3.13-.21-1,1.24-1.93a.57.57,0,0,0-.17-.79l-.64-.42.11-.73,1.51.94A.57.57,0,0,1,92.89,57.55Z"/></g><g class="cls-12"><path class="cls-8" d="M107.08,123.55l-2,3.13-.21-1,1.24-1.93a.58.58,0,0,0-.17-.79l-2.08-1.3-.21-1,3.27,2.07A.58.58,0,0,1,107.08,123.55Z"/></g><g class="cls-12"><path class="cls-8" d="M124.78,119.71l-4.4,6.82a.58.58,0,0,1-.79.16l-.12-.07,4.34-6.7a.58.58,0,0,0-.17-.79l-6.71-4.33.08-.12a.56.56,0,0,1,.78-.17l6.82,4.41A.57.57,0,0,1,124.78,119.71Z"/></g><g class="cls-12"><path class="cls-8" d="M128.34,136.27l-1.68,2.52-1.11.6,1.81-2.91a.57.57,0,0,0-.16-.79l-6.71-4.33.08-.12a.56.56,0,0,1,.78-.17l6.82,4.41A.57.57,0,0,1,128.34,136.27Z"/></g><g class="cls-12"><path class="cls-8" d="M131.22,109.78l-4.41,6.82a.58.58,0,0,1-.79.17l-.12-.08,4.34-6.7a.58.58,0,0,0-.17-.79l-6.71-4.33.08-.12a.57.57,0,0,1,.78-.17l6.83,4.41A.58.58,0,0,1,131.22,109.78Z"/></g><g class="cls-12"><path class="cls-8" d="M117.9,129.83l-4.41,6.82a.57.57,0,0,1-.79.17l-.12-.07,4.34-6.71a.57.57,0,0,0-.17-.78L110,124.93l.08-.12a.56.56,0,0,1,.78-.17l6.83,4.41A.57.57,0,0,1,117.9,129.83Z"/></g><g class="cls-12"><path class="cls-8" d="M134.75,126.21,130.34,133a.57.57,0,0,1-.79.17l-.11-.07,4.33-6.71a.57.57,0,0,0-.17-.78l-6.7-4.34.07-.11a.57.57,0,0,1,.79-.17l6.82,4.4A.58.58,0,0,1,134.75,126.21Z"/></g><g class="cls-12"><path class="cls-8" d="M124.15,76.89l-4.41,6.82a.57.57,0,0,1-.79.17l-.11-.07,4.33-6.71a.57.57,0,0,0-.17-.78L116.3,72l.07-.11a.57.57,0,0,1,.79-.17L124,76.11A.57.57,0,0,1,124.15,76.89Z"/></g><path class="cls-4" d="M85.62,119.09h0a1.64,1.64,0,0,0-1.25,2l11.84,58.27c.2.88.65,1.52,1.53,1.32l.43-.07a2.16,2.16,0,0,0,2-2.69L87.57,120.34A1.64,1.64,0,0,0,85.62,119.09Z"/><path class="cls-5" d="M98.19,180.66l-.43.08h0a1.13,1.13,0,0,1-1.1-.29,2.18,2.18,0,0,1-.54-1.12L84.27,121.06A1.73,1.73,0,0,1,85.6,119h0a1.76,1.76,0,0,1,2.07,1.34l12.57,57.52a2,2,0,0,1,.06.76A2.49,2.49,0,0,1,98.19,180.66Zm-.47-.13.43-.07a2.3,2.3,0,0,0,1.95-1.89,2.08,2.08,0,0,0,0-.68L87.47,120.36a1.56,1.56,0,0,0-1.83-1.17h0A1.54,1.54,0,0,0,84.47,121l11.85,58.27a2,2,0,0,0,.47,1,.93.93,0,0,0,.92.23Z"/><rect class="cls-6" x="89.93" y="118.81" width="3.28" height="62.45" rx="1.32" transform="translate(-29.93 23.02) rotate(-12.33)"/><rect class="cls-6" x="89.93" y="118.81" width="3.28" height="62.45" rx="1.32" transform="translate(-29.93 23.02) rotate(-12.33)"/><rect class="cls-6" x="89.93" y="118.81" width="3.28" height="62.45" rx="1.32" transform="translate(-29.93 23.02) rotate(-12.33)"/><path class="cls-7" d="M97.64,180.78a1.12,1.12,0,0,1-1.32-.85l-12.9-59a1,1,0,0,1,.15-.84,1.12,1.12,0,0,1,.69-.49l1.24-.27a1.13,1.13,0,0,1,.84.15,1.09,1.09,0,0,1,.48.7l12.91,59a1.08,1.08,0,0,1-.15.84,1.14,1.14,0,0,1-.7.49l-1.23.27ZM85.54,119.5l-1.23.27a.89.89,0,0,0-.57.39.91.91,0,0,0-.12.68l12.91,59a.89.89,0,0,0,.39.57.88.88,0,0,0,.67.12h0l1.24-.27a.9.9,0,0,0,.56-.39.92.92,0,0,0,.13-.68l-12.91-59a.9.9,0,0,0-1.07-.69Z"/><rect class="cls-8" x="61.86" y="33.68" width="33.53" height="102.93" rx="15.46" transform="translate(-16.14 18.42) rotate(-12.13)"/><path class="cls-7" d="M88.12,136a15.67,15.67,0,0,1-18.52-12L54.46,53.51a15.72,15.72,0,0,1,12-18.61l2.56-.55a15.69,15.69,0,0,1,18.61,12l15.13,70.4a15.7,15.7,0,0,1-12,18.61h0l-2.56.55ZM69.22,34.74l-.08,0-2.56.55A15.29,15.29,0,0,0,54.87,53.42L70,123.83a15.3,15.3,0,0,0,18.11,11.7l2.56-.55a15.3,15.3,0,0,0,11.7-18.11L87.25,46.46A15.27,15.27,0,0,0,69.22,34.74Z"/><rect class="cls-9" x="62.8" y="35.2" width="30.51" height="100.14" rx="14.06" transform="translate(-16.17 18.31) rotate(-12.13)"/><path class="cls-7" d="M87.38,134.69a14.27,14.27,0,0,1-16.87-11L55.37,53.32a14.3,14.3,0,0,1,11-17l2.33-.5h.07a14.29,14.29,0,0,1,16.88,11l15.13,70.4a14.28,14.28,0,0,1-10.95,16.95h0l-2.33.5Zm2.32-.93,0,.21,0-.21a13.85,13.85,0,0,0,10.63-16.45L85.2,46.91A13.86,13.86,0,0,0,68.82,36.26h-.07l-2.33.5A13.9,13.9,0,0,0,55.79,53.23l15.13,70.4A13.89,13.89,0,0,0,87.3,134.28l.07,0Z"/><g class="cls-10"><path class="cls-11" d="M88.52,50.87l12.88,60.44c3.91,14.51-3,22.17-11,23.92,0,0-3.74.57-4.08.55.29-.38.73-1.18,1-1.58s.57-.93.82-1.4l.32-.6.3-.63c.27-.59.52-1.2.74-1.8.09-.24.17-.47.25-.71,0,0,0-.09,0-.13s.08-.23.11-.35.07-.24.11-.35a32.24,32.24,0,0,0,1.06-5l.06-.48c0-.06,0-.12,0-.17,0-.38.08-.74.1-1.09v-.1a29.25,29.25,0,0,0-.63-8.61l-13-59.56s-1.18-4.72-2.16-7.78c-.07-.22-.15-.44-.22-.64s-.16-.46-.23-.66-.1-.27-.15-.38c-.15-.37-.31-.72-.46-1.06-.06-.14-.13-.27-.19-.41l-.19-.4c-.44-.91-.89-1.73-1.33-2.46-.26-.44-.52-.85-.77-1.22a21.59,21.59,0,0,0-1.76-2.29A11.52,11.52,0,0,0,69,34.78C78.89,32.86,85.93,39,88.52,50.87Z"/></g><g class="cls-12"><g class="cls-16"><g class="cls-14"><rect class="cls-8" x="54.1" y="34.95" width="9.51" height="9.51" rx="0.54" transform="translate(-6.43 67.59) rotate(-57.13)"/><rect class="cls-8" x="71.38" y="31.23" width="9.51" height="9.51" rx="0.54" transform="matrix(0.54, -0.84, 0.84, 0.54, 4.59, 80.41)"/><rect class="cls-8" x="64.76" y="41.49" width="9.51" height="9.51" rx="0.54" transform="matrix(0.54, -0.84, 0.84, 0.54, -7.05, 79.53)"/><rect class="cls-8" x="57.75" y="51.93" width="9.51" height="9.51" rx="0.54" transform="translate(-19.03 78.42) rotate(-57.13)"/><rect class="cls-8" x="75.04" y="48.22" width="9.51" height="9.51" rx="0.54" transform="translate(-8.01 91.24) rotate(-57.13)"/><rect class="cls-8" x="68.41" y="58.47" width="9.51" height="9.51" rx="0.54" transform="matrix(0.54, -0.84, 0.84, 0.54, -19.65, 90.36)"/><rect class="cls-8" x="61.41" y="68.95" width="9.51" height="9.51" rx="0.54" transform="translate(-31.65 89.28) rotate(-57.13)"/><rect class="cls-8" x="78.69" y="65.24" width="9.51" height="9.51" rx="0.54" transform="translate(-20.63 102.1) rotate(-57.13)"/><rect class="cls-8" x="72.07" y="75.49" width="9.51" height="9.51" rx="0.54" transform="translate(-32.27 101.22) rotate(-57.13)"/><rect class="cls-8" x="65.06" y="85.94" width="9.51" height="9.51" rx="0.54" transform="translate(-44.25 100.11) rotate(-57.13)"/><rect class="cls-8" x="82.34" y="82.23" width="9.51" height="9.51" rx="0.54" transform="translate(-33.23 112.93) rotate(-57.13)"/><rect class="cls-8" x="75.72" y="92.48" width="9.51" height="9.51" rx="0.54" transform="matrix(0.54, -0.84, 0.84, 0.54, -44.87, 112.05)"/><rect class="cls-8" x="68.66" y="102.7" width="9.51" height="9.51" rx="0.54" transform="translate(-56.69 110.8) rotate(-57.13)"/><rect class="cls-8" x="85.95" y="98.99" width="9.51" height="9.51" rx="0.54" transform="translate(-45.66 123.62) rotate(-57.13)"/><rect class="cls-8" x="79.32" y="109.25" width="9.51" height="9.51" rx="0.54" transform="translate(-57.3 122.75) rotate(-57.13)"/><rect class="cls-8" x="72.31" y="119.69" width="9.51" height="9.51" rx="0.54" transform="translate(-69.28 121.64) rotate(-57.13)"/><rect class="cls-8" x="89.6" y="115.98" width="9.51" height="9.51" rx="0.54" transform="translate(-58.26 134.46) rotate(-57.13)"/><rect class="cls-8" x="82.97" y="126.23" width="9.51" height="9.51" rx="0.54" transform="translate(-69.9 133.58) rotate(-57.13)"/><rect class="cls-8" x="81.52" y="37.88" width="9.51" height="9.51" rx="0.54" transform="translate(3.64 91.96) rotate(-57.13)"/><rect class="cls-8" x="85.17" y="54.87" width="9.51" height="9.51" rx="0.54" transform="translate(-8.96 102.8) rotate(-57.13)"/><rect class="cls-8" x="88.83" y="71.89" width="9.51" height="9.51" rx="0.54" transform="translate(-21.58 113.65) rotate(-57.13)"/><rect class="cls-8" x="92.48" y="88.88" width="9.51" height="9.51" rx="0.54" transform="translate(-34.18 124.49) rotate(-57.13)"/><rect class="cls-8" x="96.08" y="105.64" width="9.51" height="9.51" rx="0.54" transform="translate(-46.61 135.18) rotate(-57.13)"/><rect class="cls-8" x="99.74" y="122.63" width="9.51" height="9.51" rx="0.54" transform="translate(-59.21 146.01) rotate(-57.13)"/><rect class="cls-8" x="46.58" y="45.39" width="9.51" height="9.51" rx="0.54" transform="translate(-18.64 66.05) rotate(-57.13)"/><rect class="cls-8" x="50.23" y="62.38" width="9.51" height="9.51" rx="0.54" transform="translate(-31.24 76.89) rotate(-57.13)"/><rect class="cls-8" x="53.89" y="79.4" width="9.51" height="9.51" rx="0.54" transform="translate(-43.87 87.74) rotate(-57.13)"/><rect class="cls-8" x="57.54" y="96.39" width="9.51" height="9.51" rx="0.54" transform="translate(-56.46 98.58) rotate(-57.13)"/><rect class="cls-8" x="61.15" y="113.15" width="9.51" height="9.51" rx="0.54" transform="translate(-68.9 109.27) rotate(-57.13)"/><rect class="cls-8" x="64.8" y="130.14" width="9.51" height="9.51" rx="0.54" transform="translate(-81.5 120.1) rotate(-57.13)"/></g></g></g><g class="cls-12"><path class="cls-8" d="M75.78,45.38l-4.53,7a.57.57,0,0,1-.8.17l-.12-.08,4.45-6.88a.59.59,0,0,0-.18-.81l-6.88-4.45.07-.12A.6.6,0,0,1,68.6,40l7,4.53A.58.58,0,0,1,75.78,45.38Z"/></g><g class="cls-12"><path class="cls-8" d="M79.86,39.06l-2,3.06a.58.58,0,0,1-.81.17L77,42.22l2.33-3.6Z"/></g><g class="cls-12"><path class="cls-8" d="M65.14,38.78l-4.53,7a.58.58,0,0,1-.81.17l-.12-.08L64.13,39a.58.58,0,0,0-.17-.81l-.38-.25.74-.39L65,38A.6.6,0,0,1,65.14,38.78Z"/></g><g class="cls-12"><path class="cls-8" d="M68.68,55.75l-4.53,7a.57.57,0,0,1-.8.17l-.12-.08L67.68,56a.59.59,0,0,0-.18-.81l-6.88-4.45.07-.12a.59.59,0,0,1,.81-.18l7,4.53A.58.58,0,0,1,68.68,55.75Z"/></g><g class="cls-12"><path class="cls-8" d="M86.05,52l-4.53,7a.57.57,0,0,1-.8.18l-.12-.08,4.45-6.89a.6.6,0,0,0-.18-.81L78,47l.07-.12a.58.58,0,0,1,.81-.17l7,4.53A.58.58,0,0,1,86.05,52Z"/></g><g class="cls-12"><path class="cls-8" d="M79.42,62.31l-4.53,7a.58.58,0,0,1-.8.17L74,69.41l4.45-6.88a.59.59,0,0,0-.17-.81l-6.89-4.45.07-.12a.59.59,0,0,1,.81-.18l7,4.53A.58.58,0,0,1,79.42,62.31Z"/></g><g class="cls-12"><path class="cls-8" d="M72.4,72.79l-4.53,7a.58.58,0,0,1-.8.18L67,79.9,71.4,73a.6.6,0,0,0-.18-.81l-6.88-4.45.07-.12a.58.58,0,0,1,.81-.17l7,4.53A.57.57,0,0,1,72.4,72.79Z"/></g><g class="cls-12"><path class="cls-8" d="M83.08,79.29l-4.53,7a.58.58,0,0,1-.81.17l-.12-.07,4.45-6.89a.59.59,0,0,0-.17-.81L75,74.25l.08-.12a.57.57,0,0,1,.8-.17l7,4.52A.6.6,0,0,1,83.08,79.29Z"/></g><g class="cls-12"><path class="cls-8" d="M76,89.74l-4.53,7a.57.57,0,0,1-.8.18l-.12-.08L75,90a.59.59,0,0,0-.17-.81L68,84.69l.08-.12a.57.57,0,0,1,.8-.17l7,4.53A.58.58,0,0,1,76,89.74Z"/></g><g class="cls-12"><path class="cls-8" d="M93.36,86l-4.53,7a.6.6,0,0,1-.81.18l-.12-.08,4.45-6.89a.58.58,0,0,0-.17-.81L85.29,81l.08-.12a.58.58,0,0,1,.81-.17l7,4.53A.59.59,0,0,1,93.36,86Z"/></g><g class="cls-12"><path class="cls-8" d="M86.77,96.36l-4.53,7a.57.57,0,0,1-.8.17l-.12-.08,4.45-6.88a.58.58,0,0,0-.18-.81l-6.88-4.45.07-.12a.59.59,0,0,1,.81-.18l7,4.53A.58.58,0,0,1,86.77,96.36Z"/></g><g class="cls-12"><path class="cls-8" d="M79.67,106.58l-4.53,7a.58.58,0,0,1-.81.17l-.12-.07,4.45-6.89a.59.59,0,0,0-.17-.81l-6.89-4.45.08-.12a.57.57,0,0,1,.8-.17l7,4.52A.6.6,0,0,1,79.67,106.58Z"/></g><g class="cls-12"><path class="cls-8" d="M68.56,100.2l-2.06,3.21-.21-1,1.27-2a.59.59,0,0,0-.17-.81l-2.14-1.34-.22-1,3.36,2.13A.58.58,0,0,1,68.56,100.2Z"/></g><g class="cls-12"><path class="cls-8" d="M64.92,83.24l-2.07,3.21-.21-1,1.27-2a.58.58,0,0,0-.17-.81L61.6,81.3l-.21-1,3.36,2.13A.59.59,0,0,1,64.92,83.24Z"/></g><g class="cls-12"><path class="cls-8" d="M61.27,66.25,59.2,69.46l-.21-1,1.27-2a.58.58,0,0,0-.17-.81L58,64.32l-.21-1,3.35,2.13A.59.59,0,0,1,61.27,66.25Z"/></g><g class="cls-12"><path class="cls-8" d="M57.6,49.2l-2.06,3.21-.21-1,1.27-2a.58.58,0,0,0-.18-.81l-.66-.44.12-.75,1.55,1A.58.58,0,0,1,57.6,49.2Z"/></g><g class="cls-12"><path class="cls-8" d="M72.18,117l-2.07,3.21-.21-1,1.27-2a.58.58,0,0,0-.17-.81l-2.14-1.34-.21-1L72,116.2A.59.59,0,0,1,72.18,117Z"/></g><g class="cls-12"><path class="cls-8" d="M90.37,113.06l-4.53,7a.57.57,0,0,1-.8.17l-.12-.08,4.45-6.88a.59.59,0,0,0-.18-.81L82.31,108l.07-.12a.59.59,0,0,1,.81-.18l7,4.53A.58.58,0,0,1,90.37,113.06Z"/></g><g class="cls-12"><path class="cls-8" d="M94,130.08l-1.73,2.59-1.14.62,1.86-3a.58.58,0,0,0-.17-.81L86,125l.08-.12a.58.58,0,0,1,.81-.17l7,4.53A.59.59,0,0,1,94,130.08Z"/></g><g class="cls-12"><path class="cls-8" d="M97,102.86l-4.53,7a.58.58,0,0,1-.81.17l-.12-.08L96,103.08a.58.58,0,0,0-.17-.81l-6.89-4.45L89,97.7a.58.58,0,0,1,.81-.18l7,4.53A.59.59,0,0,1,97,102.86Z"/></g><g class="cls-12"><path class="cls-8" d="M83.29,123.47l-4.53,7a.57.57,0,0,1-.8.18l-.12-.08,4.45-6.89a.59.59,0,0,0-.17-.81l-6.89-4.45.07-.12a.58.58,0,0,1,.81-.17l7,4.53A.58.58,0,0,1,83.29,123.47Z"/></g><g class="cls-12"><path class="cls-8" d="M100.61,119.75l-4.53,7a.6.6,0,0,1-.81.18l-.12-.08L99.6,120a.58.58,0,0,0-.17-.81l-6.89-4.45.08-.12a.58.58,0,0,1,.81-.17l7,4.53A.59.59,0,0,1,100.61,119.75Z"/></g><g class="cls-12"><path class="cls-8" d="M89.72,69.07l-4.53,7a.58.58,0,0,1-.81.17l-.12-.07,4.45-6.89a.58.58,0,0,0-.17-.81L81.65,64l.08-.12a.58.58,0,0,1,.81-.17l7,4.52A.59.59,0,0,1,89.72,69.07Z"/></g></g></g></g></svg>