<svg xmlns="http://www.w3.org/2000/svg" xmlns:xlink="http://www.w3.org/1999/xlink" viewBox="0 0 176.32 211.49"><defs><style>.cls-1{fill:none;}.cls-2{isolation:isolate;}.cls-3{fill:#a46a3a;}.cls-4{fill:#1d1d1c;}.cls-5{fill:#e1b080;}.cls-6{fill:#1d1d1b;}.cls-7{fill:#ce612e;}.cls-8{fill:#f6b17a;}.cls-11,.cls-9{mix-blend-mode:multiply;}.cls-13,.cls-9{opacity:0.6;}.cls-10{fill:#ee8020;}.cls-12{clip-path:url(#clip-path);}.cls-14{clip-path:url(#clip-path-2);}.cls-15{clip-path:url(#clip-path-3);}</style><clipPath id="clip-path" transform="translate(12.34 5.92)"><rect class="cls-1" x="104.97" y="26.81" width="37.46" height="122.94" rx="15.97" transform="translate(-15.79 27.96) rotate(-12.13)"/></clipPath><clipPath id="clip-path-2" transform="translate(12.34 5.92)"><rect class="cls-1" x="59.19" y="13.4" width="40.08" height="131.57" rx="17.09" transform="translate(-14.87 18.42) rotate(-12.13)"/></clipPath><clipPath id="clip-path-3" transform="translate(12.34 5.92)"><rect class="cls-1" x="11.74" y="1.62" width="41.18" height="135.19" rx="17.56" transform="translate(-13.82 8.34) rotate(-12.13)"/></clipPath></defs><g class="cls-2"><g id="Layer_2" data-name="Layer 2"><g id="Слой_1" data-name="Слой 1"><path class="cls-3" d="M133,129.81h0a2,2,0,0,0-1.54,2.39L146,203.74c.24,1.09.79,1.87,1.88,1.63l.52-.09a3,3,0,0,0,2.5-2.43,2.62,2.62,0,0,0-.07-.88l-15.44-70.63A2,2,0,0,0,133,129.81Z" transform="translate(12.34 5.92)"/><path class="cls-4" d="M148.41,205.41l-.52.09h0a1.41,1.41,0,0,1-1.35-.36,2.75,2.75,0,0,1-.66-1.37l-14.54-71.54a2.15,2.15,0,0,1,1.64-2.55h0a2.15,2.15,0,0,1,2.53,1.63L151,201.94a2.8,2.8,0,0,1,.07.93A3.09,3.09,0,0,1,148.41,205.41Zm-.57-.17.52-.09a2.82,2.82,0,0,0,2.4-2.31,2.52,2.52,0,0,0-.06-.84l-15.45-70.63a1.88,1.88,0,0,0-2.24-1.44h0a1.88,1.88,0,0,0-1.43,2.24l14.54,71.55a2.48,2.48,0,0,0,.58,1.24,1.16,1.16,0,0,0,1.12.29Z" transform="translate(12.34 5.92)"/><rect class="cls-5" x="138.28" y="129.46" width="4.02" height="76.68" rx="1.72" transform="translate(-20.26 39.76) rotate(-12.33)"/><rect class="cls-5" x="138.28" y="129.46" width="4.02" height="76.68" rx="1.72" transform="translate(-20.26 39.76) rotate(-12.33)"/><rect class="cls-5" x="138.28" y="129.46" width="4.02" height="76.68" rx="1.72" transform="translate(-20.26 39.76) rotate(-12.33)"/><path class="cls-6" d="M147.74,205.55a1.38,1.38,0,0,1-1.62-1.05L130.28,132a1.35,1.35,0,0,1,1-1.62l1.51-.34a1.37,1.37,0,0,1,1,.19,1.34,1.34,0,0,1,.6.86l15.85,72.49a1.35,1.35,0,0,1-.19,1,1.36,1.36,0,0,1-.85.59l-1.52.33Zm-14.85-75.24-1.52.33a1.1,1.1,0,0,0-.84,1.31l15.85,72.5a1.07,1.07,0,0,0,.48.69,1.09,1.09,0,0,0,.82.15h0l1.52-.33a1.1,1.1,0,0,0,.85-1.32l-15.85-72.49a1.09,1.09,0,0,0-.49-.69,1.07,1.07,0,0,0-.82-.16Z" transform="translate(12.34 5.92)"/><rect class="cls-7" x="103.81" y="24.94" width="41.17" height="126.38" rx="18.98" transform="translate(-3.4 34.03) rotate(-12.13)"/><path class="cls-6" d="M136.06,150.52a19.26,19.26,0,0,1-22.75-14.79L94.73,49.29a19.3,19.3,0,0,1,14.76-22.85l3.15-.68a19.27,19.27,0,0,1,22.85,14.77L154.07,127a19.29,19.29,0,0,1-14.77,22.85h0l-3.14.68ZM112.84,26.25l-.1,0-3.14.67A18.79,18.79,0,0,0,95.23,49.18l18.58,86.44A18.79,18.79,0,0,0,136.05,150l3.14-.67a18.79,18.79,0,0,0,14.37-22.24L135,40.64A18.74,18.74,0,0,0,112.84,26.25Z" transform="translate(12.34 5.92)"/><rect class="cls-8" x="104.97" y="26.81" width="37.46" height="122.94" rx="17.27" transform="translate(-3.45 33.88) rotate(-12.13)"/><path class="cls-6" d="M135.15,149a17.54,17.54,0,0,1-20.72-13.47L95.85,49.05A17.53,17.53,0,0,1,109.3,28.24l2.86-.62.09,0A17.54,17.54,0,0,1,133,41.07l18.58,86.44a17.53,17.53,0,0,1-13.45,20.81h0l-2.86.62Zm2.84-1.14,0,.25,0-.25a17,17,0,0,0,13-20.2L132.47,41.18a17,17,0,0,0-20.12-13.07l-.09,0-2.85.61a17.06,17.06,0,0,0-13.06,20.2l18.58,86.44A17.06,17.06,0,0,0,135,148.45l.09,0Z" transform="translate(12.34 5.92)"/><g class="cls-9"><path class="cls-10" d="M136.54,46.05l15.82,74.2c4.8,17.82-3.69,27.22-13.52,29.37,0,0-4.6.7-5,.67.36-.47.9-1.45,1.21-1.93s.69-1.14,1-1.72c.14-.24.26-.49.39-.74s.25-.51.37-.77c.34-.73.64-1.47.91-2.21.11-.29.21-.58.31-.87a1.09,1.09,0,0,0,0-.17c.05-.14.1-.28.14-.42l.14-.44a38.51,38.51,0,0,0,1.3-6.15c0-.2,0-.4.07-.59l0-.22c.05-.46.09-.9.12-1.33v-.13a36.12,36.12,0,0,0-.77-10.57l-16-73.12s-1.44-5.8-2.65-9.55l-.26-.79c-.1-.29-.2-.57-.29-.81l-.19-.47c-.18-.45-.37-.88-.56-1.3-.08-.17-.15-.34-.23-.5L118.7,35c-.54-1.13-1.09-2.13-1.63-3-.32-.53-.64-1-.94-1.49A29.71,29.71,0,0,0,114,27.66a15.43,15.43,0,0,0-1.34-1.37C124.72,23.94,133.37,31.52,136.54,46.05Z" transform="translate(12.34 5.92)"/></g><g class="cls-11"><g class="cls-12"><g class="cls-13"><rect class="cls-7" x="94.28" y="26.49" width="11.68" height="11.68" rx="0.66" transform="translate(30.97 104.8) rotate(-57.13)"/><rect class="cls-7" x="115.5" y="21.93" width="11.68" height="11.68" rx="0.66" transform="translate(44.5 120.53) rotate(-57.13)"/><rect class="cls-7" x="107.37" y="34.52" width="11.68" height="11.68" rx="0.66" transform="translate(30.21 119.46) rotate(-57.13)"/><rect class="cls-7" x="98.76" y="47.35" width="11.68" height="11.68" rx="0.66" transform="translate(15.5 118.1) rotate(-57.13)"/><rect class="cls-7" x="119.99" y="42.79" width="11.68" height="11.68" rx="0.66" transform="translate(29.03 133.84) rotate(-57.13)"/><rect class="cls-7" x="111.85" y="55.38" width="11.68" height="11.68" rx="0.66" transform="translate(14.74 132.76) rotate(-57.13)"/><rect class="cls-7" x="103.25" y="68.25" width="11.68" height="11.68" rx="0.66" transform="translate(0 131.42) rotate(-57.13)"/><rect class="cls-7" x="124.48" y="63.69" width="11.68" height="11.68" rx="0.66" transform="translate(13.54 147.16) rotate(-57.13)"/><rect class="cls-7" x="116.34" y="76.28" width="11.68" height="11.68" rx="0.66" transform="matrix(0.54, -0.84, 0.84, 0.54, -0.76, 146.09)"/><rect class="cls-7" x="107.74" y="89.11" width="11.68" height="11.68" rx="0.66" transform="translate(-15.47 144.73) rotate(-57.13)"/><rect class="cls-7" x="128.96" y="84.54" width="11.68" height="11.68" rx="0.66" transform="translate(-1.93 160.47) rotate(-57.13)"/><rect class="cls-7" x="120.82" y="97.14" width="11.68" height="11.68" rx="0.66" transform="translate(-16.23 159.39) rotate(-57.13)"/><rect class="cls-7" x="112.16" y="109.69" width="11.68" height="11.68" rx="0.66" transform="translate(-30.73 157.85) rotate(-57.13)"/><rect class="cls-7" x="133.39" y="105.13" width="11.68" height="11.68" rx="0.66" transform="translate(-17.2 173.59) rotate(-57.13)"/><rect class="cls-7" x="125.25" y="117.72" width="11.68" height="11.68" rx="0.66" transform="translate(-31.49 172.52) rotate(-57.13)"/><rect class="cls-7" x="116.64" y="130.55" width="11.68" height="11.68" rx="0.66" transform="translate(-46.2 171.16) rotate(-57.13)"/><rect class="cls-7" x="137.87" y="125.98" width="11.68" height="11.68" rx="0.66" transform="translate(-32.66 186.9) rotate(-57.13)"/><rect class="cls-7" x="129.73" y="138.58" width="11.68" height="11.68" rx="0.66" transform="translate(-46.96 185.82) rotate(-57.13)"/><rect class="cls-7" x="127.95" y="30.1" width="11.68" height="11.68" rx="0.66" transform="translate(43.33 134.72) rotate(-57.13)"/><rect class="cls-7" x="132.43" y="50.96" width="11.68" height="11.68" rx="0.66" transform="matrix(0.54, -0.84, 0.84, 0.54, 27.86, 148.03)"/><rect class="cls-7" x="136.92" y="71.85" width="11.68" height="11.68" rx="0.66" transform="matrix(0.54, -0.84, 0.84, 0.54, 12.37, 161.35)"/><rect class="cls-7" x="141.41" y="92.71" width="11.68" height="11.68" rx="0.66" transform="translate(-3.1 174.66) rotate(-57.13)"/><rect class="cls-7" x="145.83" y="113.3" width="11.68" height="11.68" rx="0.66" transform="translate(-18.37 187.78) rotate(-57.13)"/><rect class="cls-7" x="150.31" y="134.15" width="11.68" height="11.68" rx="0.66" transform="translate(-33.83 201.09) rotate(-57.13)"/><rect class="cls-7" x="85.05" y="39.32" width="11.68" height="11.68" rx="0.66" transform="translate(15.97 102.91) rotate(-57.13)"/><rect class="cls-7" x="89.54" y="60.18" width="11.68" height="11.68" rx="0.66" transform="translate(0.51 116.21) rotate(-57.13)"/><rect class="cls-7" x="94.03" y="81.07" width="11.68" height="11.68" rx="0.66" transform="translate(-14.99 129.54) rotate(-57.13)"/><rect class="cls-7" x="98.51" y="101.93" width="11.68" height="11.68" rx="0.66" transform="translate(-30.46 142.84) rotate(-57.13)"/><rect class="cls-7" x="102.93" y="122.51" width="11.68" height="11.68" rx="0.66" transform="translate(-45.72 155.97) rotate(-57.13)"/><rect class="cls-7" x="107.42" y="143.37" width="11.68" height="11.68" rx="0.66" transform="translate(-61.19 169.27) rotate(-57.13)"/></g></g></g><g class="cls-11"><path class="cls-7" d="M120.91,39.31l-5.57,8.6a.71.71,0,0,1-1,.21l-.14-.09,5.46-8.46a.71.71,0,0,0-.21-1L111,33.11l.1-.14a.7.7,0,0,1,1-.21l8.6,5.55A.74.74,0,0,1,120.91,39.31Z" transform="translate(12.34 5.92)"/></g><g class="cls-11"><path class="cls-7" d="M125.92,31.55l-2.43,3.75a.71.71,0,0,1-1,.21l-.15-.09L125.21,31Z" transform="translate(12.34 5.92)"/></g><g class="cls-11"><path class="cls-7" d="M107.83,31.2l-5.56,8.61a.72.72,0,0,1-1,.21l-.14-.1,5.46-8.45a.73.73,0,0,0-.21-1l-.46-.29.9-.48.79.51A.71.71,0,0,1,107.83,31.2Z" transform="translate(12.34 5.92)"/></g><g class="cls-11"><path class="cls-7" d="M112.19,52l-5.56,8.6a.72.72,0,0,1-1,.21l-.14-.09L111,52.3a.71.71,0,0,0-.21-1l-8.46-5.46.1-.15a.7.7,0,0,1,1-.21L112,51A.73.73,0,0,1,112.19,52Z" transform="translate(12.34 5.92)"/></g><g class="cls-11"><path class="cls-7" d="M133.51,47.45,128,56.06a.71.71,0,0,1-1,.21l-.15-.09,5.47-8.46a.72.72,0,0,0-.21-1l-8.46-5.47.09-.14a.72.72,0,0,1,1-.22l8.61,5.56A.71.71,0,0,1,133.51,47.45Z" transform="translate(12.34 5.92)"/></g><g class="cls-11"><path class="cls-7" d="M125.38,60.09l-5.57,8.6a.71.71,0,0,1-1,.22l-.14-.1,5.46-8.45a.72.72,0,0,0-.21-1l-8.46-5.46.1-.15a.71.71,0,0,1,1-.21l8.6,5.56A.72.72,0,0,1,125.38,60.09Z" transform="translate(12.34 5.92)"/></g><g class="cls-11"><path class="cls-7" d="M116.76,73l-5.57,8.6a.71.71,0,0,1-1,.21l-.14-.09,5.46-8.46a.71.71,0,0,0-.21-1l-8.46-5.47.1-.14a.71.71,0,0,1,1-.22l8.6,5.56A.74.74,0,0,1,116.76,73Z" transform="translate(12.34 5.92)"/></g><g class="cls-11"><path class="cls-7" d="M129.86,81l-5.56,8.6a.71.71,0,0,1-1,.21l-.15-.09,5.46-8.46a.71.71,0,0,0-.21-1L120,74.75l.1-.14a.71.71,0,0,1,1-.22l8.6,5.56A.73.73,0,0,1,129.86,81Z" transform="translate(12.34 5.92)"/></g><g class="cls-11"><path class="cls-7" d="M121.23,93.77l-5.57,8.6a.71.71,0,0,1-1,.21l-.14-.09L120,94a.71.71,0,0,0-.21-1l-8.46-5.47.1-.14a.7.7,0,0,1,1-.21l8.6,5.55A.73.73,0,0,1,121.23,93.77Z" transform="translate(12.34 5.92)"/></g><g class="cls-11"><path class="cls-7" d="M142.49,89.2l-5.57,8.6a.71.71,0,0,1-1,.21l-.14-.09,5.46-8.46a.71.71,0,0,0-.21-1L132.58,83l.1-.15a.7.7,0,0,1,1-.21l8.6,5.55A.74.74,0,0,1,142.49,89.2Z" transform="translate(12.34 5.92)"/></g><g class="cls-11"><path class="cls-7" d="M134.4,101.9l-5.56,8.6a.71.71,0,0,1-1,.21l-.15-.09,5.46-8.46a.71.71,0,0,0-.21-1l-8.46-5.46.1-.15a.7.7,0,0,1,1-.21l8.61,5.56A.72.72,0,0,1,134.4,101.9Z" transform="translate(12.34 5.92)"/></g><g class="cls-11"><path class="cls-7" d="M125.67,114.45l-5.56,8.6a.73.73,0,0,1-1,.22l-.15-.1,5.47-8.46a.72.72,0,0,0-.22-1l-8.45-5.46.09-.15a.71.71,0,0,1,1-.21l8.61,5.56A.71.71,0,0,1,125.67,114.45Z" transform="translate(12.34 5.92)"/></g><g class="cls-11"><path class="cls-7" d="M112,106.61l-2.53,4-.26-1.25,1.56-2.43a.73.73,0,0,0-.22-1L108,104.24l-.26-1.23,4.12,2.61A.71.71,0,0,1,112,106.61Z" transform="translate(12.34 5.92)"/></g><g class="cls-11"><path class="cls-7" d="M107.57,85.79,105,89.73l-.26-1.24,1.56-2.44a.71.71,0,0,0-.21-1l-2.62-1.65-.27-1.23,4.12,2.61A.73.73,0,0,1,107.57,85.79Z" transform="translate(12.34 5.92)"/></g><g class="cls-11"><path class="cls-7" d="M103.08,64.93l-2.53,3.95-.26-1.25,1.56-2.43a.73.73,0,0,0-.21-1L99,62.56l-.26-1.24,4.12,2.62A.71.71,0,0,1,103.08,64.93Z" transform="translate(12.34 5.92)"/></g><g class="cls-11"><path class="cls-7" d="M98.58,44l-2.53,3.94-.26-1.24,1.56-2.44a.72.72,0,0,0-.21-1l-.82-.53.14-.93L98.37,43A.72.72,0,0,1,98.58,44Z" transform="translate(12.34 5.92)"/></g><g class="cls-11"><path class="cls-7" d="M116.48,127.25l-2.54,3.95-.26-1.24,1.56-2.44a.71.71,0,0,0-.21-1l-2.62-1.65-.27-1.23,4.13,2.61A.72.72,0,0,1,116.48,127.25Z" transform="translate(12.34 5.92)"/></g><g class="cls-11"><path class="cls-7" d="M138.82,122.4,133.26,131a.72.72,0,0,1-1,.21l-.15-.1,5.46-8.45a.72.72,0,0,0-.21-1l-8.46-5.46.1-.15a.71.71,0,0,1,1-.21l8.6,5.56A.71.71,0,0,1,138.82,122.4Z" transform="translate(12.34 5.92)"/></g><g class="cls-11"><path class="cls-7" d="M143.31,143.29l-2.12,3.19-1.41.76,2.29-3.68a.72.72,0,0,0-.21-1l-8.46-5.46.1-.15a.71.71,0,0,1,1-.21l8.6,5.56A.71.71,0,0,1,143.31,143.29Z" transform="translate(12.34 5.92)"/></g><g class="cls-11"><path class="cls-7" d="M146.93,109.88l-5.56,8.6a.72.72,0,0,1-1,.22l-.15-.1,5.47-8.46a.73.73,0,0,0-.22-1L137,103.69l.09-.15a.71.71,0,0,1,1-.21l8.61,5.56A.72.72,0,0,1,146.93,109.88Z" transform="translate(12.34 5.92)"/></g><g class="cls-11"><path class="cls-7" d="M130.13,135.18l-5.56,8.6a.72.72,0,0,1-1,.22l-.15-.1,5.46-8.45a.72.72,0,0,0-.21-1L120.22,129l.1-.15a.71.71,0,0,1,1-.21l8.6,5.56A.71.71,0,0,1,130.13,135.18Z" transform="translate(12.34 5.92)"/></g><g class="cls-11"><path class="cls-7" d="M151.39,130.61l-5.57,8.6a.71.71,0,0,1-1,.22l-.14-.1,5.46-8.45a.72.72,0,0,0-.21-1l-8.46-5.46.1-.15a.71.71,0,0,1,1-.21l8.6,5.56A.71.71,0,0,1,151.39,130.61Z" transform="translate(12.34 5.92)"/></g><g class="cls-11"><path class="cls-7" d="M138,68.4,132.45,77a.71.71,0,0,1-1,.21l-.14-.09,5.46-8.46a.72.72,0,0,0-.21-1l-8.46-5.47.09-.14a.73.73,0,0,1,1-.22l8.6,5.56A.72.72,0,0,1,138,68.4Z" transform="translate(12.34 5.92)"/></g><path class="cls-3" d="M89.17,123.63h0a2.16,2.16,0,0,0-1.65,2.56l15.57,76.56c.25,1.17.84,2,2,1.74l.55-.09a3.17,3.17,0,0,0,2.68-2.6,2.72,2.72,0,0,0-.07-.94L91.73,125.27A2.14,2.14,0,0,0,89.17,123.63Z" transform="translate(12.34 5.92)"/><path class="cls-4" d="M105.68,204.53l-.56.1h0a1.5,1.5,0,0,1-1.45-.38,2.89,2.89,0,0,1-.7-1.47L87.39,126.22a2.29,2.29,0,0,1,1.75-2.73h0a2.29,2.29,0,0,1,2.71,1.75l16.52,75.59a2.91,2.91,0,0,1,.08,1A3.29,3.29,0,0,1,105.68,204.53Zm-.61-.17.56-.1a3,3,0,0,0,2.57-2.47,2.94,2.94,0,0,0-.08-.9L91.6,125.3a2,2,0,0,0-2.4-1.54h0a2,2,0,0,0-1.54,2.4l15.56,76.57a2.59,2.59,0,0,0,.63,1.33,1.21,1.21,0,0,0,1.2.3Z" transform="translate(12.34 5.92)"/><rect class="cls-5" x="94.83" y="123.26" width="4.31" height="82.06" rx="1.84" transform="translate(-20.51 30.42) rotate(-12.33)"/><rect class="cls-5" x="94.83" y="123.26" width="4.31" height="82.06" rx="1.84" transform="translate(-20.51 30.42) rotate(-12.33)"/><rect class="cls-5" x="94.83" y="123.26" width="4.31" height="82.06" rx="1.84" transform="translate(-20.51 30.42) rotate(-12.33)"/><path class="cls-6" d="M105,204.68a1.45,1.45,0,0,1-1.73-1.11L86.27,126a1.47,1.47,0,0,1,1.11-1.74l1.63-.36a1.52,1.52,0,0,1,1.1.2,1.48,1.48,0,0,1,.64.92l17,77.58a1.47,1.47,0,0,1-1.12,1.74l-1.62.35ZM89.07,124.16l-1.63.36a1.19,1.19,0,0,0-.9,1.41l17,77.58a1.16,1.16,0,0,0,.52.74,1.13,1.13,0,0,0,.88.16h0l1.62-.35a1.22,1.22,0,0,0,.75-.52,1.17,1.17,0,0,0,.16-.89l-17-77.58a1.22,1.22,0,0,0-.52-.75,1.19,1.19,0,0,0-.88-.16Z" transform="translate(12.34 5.92)"/><rect class="cls-7" x="57.95" y="11.4" width="44.06" height="135.24" rx="20.31" transform="translate(-2.48 24.49) rotate(-12.13)"/><path class="cls-6" d="M92.46,145.79A20.61,20.61,0,0,1,68.11,130L48.23,37.46A20.62,20.62,0,0,1,64,13l3.36-.73a20.63,20.63,0,0,1,24.46,15.8l19.88,92.51a20.66,20.66,0,0,1-15.8,24.46h0l-3.37.72ZM67.61,12.8l-.1,0-3.36.73A20.08,20.08,0,0,0,48.77,37.34l19.88,92.51a20.1,20.1,0,0,0,23.8,15.38l3.36-.72a20.1,20.1,0,0,0,15.38-23.8L91.31,28.2A20.07,20.07,0,0,0,67.61,12.8Z" transform="translate(12.34 5.92)"/><rect class="cls-8" x="59.19" y="13.4" width="40.08" height="131.57" rx="18.48" transform="translate(-2.53 24.33) rotate(-12.13)"/><path class="cls-6" d="M91.48,144.12a18.75,18.75,0,0,1-22.17-14.41L49.42,37.2a18.77,18.77,0,0,1,14.4-22.27l3.06-.66.1,0A18.77,18.77,0,0,1,89.15,28.67L109,121.17a18.79,18.79,0,0,1-14.4,22.28h0l-3.06.65Zm3-1.21.06.27-.06-.27a18.23,18.23,0,0,0,14-21.62L88.61,28.78a18.21,18.21,0,0,0-21.52-14l-.1,0-3.06.66A18.27,18.27,0,0,0,50,37.09l19.89,92.5a18.24,18.24,0,0,0,21.52,14l.1,0Z" transform="translate(12.34 5.92)"/><g class="cls-9"><path class="cls-10" d="M93,34,109.9,113.4c5.14,19.07-4,29.13-14.47,31.43,0,0-4.92.75-5.35.72.37-.5,1-1.55,1.28-2.07s.75-1.22,1.08-1.84l.41-.79c.14-.27.27-.55.4-.82.36-.78.69-1.58,1-2.37.11-.31.22-.62.32-.93a.64.64,0,0,0,.06-.18,4,4,0,0,0,.15-.45l.15-.47a41.93,41.93,0,0,0,1.39-6.58c0-.22.06-.43.08-.64a1.64,1.64,0,0,0,0-.23c.06-.49.1-1,.14-1.42v-.14a38.75,38.75,0,0,0-.82-11.31L78.62,37.05s-1.55-6.2-2.85-10.22c-.09-.29-.19-.58-.28-.84s-.21-.61-.31-.87-.13-.35-.2-.5c-.19-.48-.39-.95-.6-1.39l-.24-.54-.25-.52c-.59-1.21-1.17-2.28-1.75-3.24-.35-.58-.68-1.11-1-1.6a32.18,32.18,0,0,0-2.31-3,15.21,15.21,0,0,0-1.44-1.46C80.33,10.33,89.58,18.44,93,34Z" transform="translate(12.34 5.92)"/></g><g class="cls-11"><g class="cls-14"><g class="cls-13"><rect class="cls-7" x="47.75" y="13.07" width="12.5" height="12.5" rx="0.71" transform="translate(20.81 60.1) rotate(-57.13)"/><rect class="cls-7" x="70.46" y="8.18" width="12.5" height="12.5" rx="0.71" transform="translate(35.3 76.95) rotate(-57.13)"/><rect class="cls-7" x="61.75" y="21.66" width="12.5" height="12.5" rx="0.71" transform="translate(20 75.8) rotate(-57.13)"/><rect class="cls-7" x="52.55" y="35.39" width="12.5" height="12.5" rx="0.71" transform="translate(4.26 74.34) rotate(-57.13)"/><rect class="cls-7" x="75.26" y="30.51" width="12.5" height="12.5" rx="0.71" transform="translate(18.74 91.18) rotate(-57.13)"/><rect class="cls-7" x="66.55" y="43.98" width="12.5" height="12.5" rx="0.71" transform="matrix(0.54, -0.84, 0.84, 0.54, 3.44, 90.03)"/><rect class="cls-7" x="57.35" y="57.75" width="12.5" height="12.5" rx="0.71" transform="translate(-12.33 88.6) rotate(-57.13)"/><rect class="cls-7" x="80.06" y="52.87" width="12.5" height="12.5" rx="0.71" transform="translate(2.16 105.45) rotate(-57.13)"/><rect class="cls-7" x="71.36" y="66.34" width="12.5" height="12.5" rx="0.71" transform="translate(-13.14 104.29) rotate(-57.13)"/><rect class="cls-7" x="62.15" y="80.07" width="12.5" height="12.5" rx="0.71" transform="matrix(0.54, -0.84, 0.84, 0.54, -28.88, 102.84)"/><rect class="cls-7" x="84.86" y="75.19" width="12.5" height="12.5" rx="0.71" transform="translate(-14.4 119.68) rotate(-57.13)"/><rect class="cls-7" x="76.15" y="88.67" width="12.5" height="12.5" rx="0.71" transform="translate(-29.7 118.53) rotate(-57.13)"/><rect class="cls-7" x="66.88" y="102.1" width="12.5" height="12.5" rx="0.71" transform="translate(-45.22 116.89) rotate(-57.13)"/><rect class="cls-7" x="89.6" y="97.22" width="12.5" height="12.5" rx="0.71" transform="translate(-30.73 133.73) rotate(-57.13)"/><rect class="cls-7" x="80.89" y="110.69" width="12.5" height="12.5" rx="0.71" transform="translate(-46.03 132.58) rotate(-57.13)"/><rect class="cls-7" x="71.68" y="124.42" width="12.5" height="12.5" rx="0.71" transform="translate(-61.77 131.12) rotate(-57.13)"/><rect class="cls-7" x="94.39" y="119.54" width="12.5" height="12.5" rx="0.71" transform="translate(-47.29 147.97) rotate(-57.13)"/><rect class="cls-7" x="85.69" y="133.01" width="12.5" height="12.5" rx="0.71" transform="translate(-62.59 146.82) rotate(-57.13)"/><rect class="cls-7" x="83.78" y="16.93" width="12.5" height="12.5" rx="0.71" transform="translate(34.05 92.13) rotate(-57.13)"/><rect class="cls-7" x="88.58" y="39.25" width="12.5" height="12.5" rx="0.71" transform="translate(17.49 106.37) rotate(-57.13)"/><rect class="cls-7" x="93.38" y="61.61" width="12.5" height="12.5" rx="0.71" transform="translate(0.91 120.63) rotate(-57.13)"/><rect class="cls-7" x="98.18" y="83.93" width="12.5" height="12.5" rx="0.71" transform="translate(-15.65 134.87) rotate(-57.13)"/><rect class="cls-7" x="102.92" y="105.96" width="12.5" height="12.5" rx="0.71" transform="translate(-31.98 148.91) rotate(-57.13)"/><rect class="cls-7" x="107.71" y="128.28" width="12.5" height="12.5" rx="0.71" transform="translate(-48.54 163.15) rotate(-57.13)"/><rect class="cls-7" x="37.87" y="26.79" width="12.5" height="12.5" rx="0.71" transform="translate(4.77 58.08) rotate(-57.13)"/><rect class="cls-7" x="42.67" y="49.11" width="12.5" height="12.5" rx="0.71" transform="translate(-11.79 72.32) rotate(-57.13)"/><rect class="cls-7" x="47.48" y="71.48" width="12.5" height="12.5" rx="0.71" transform="translate(-28.37 86.58) rotate(-57.13)"/><rect class="cls-7" x="52.27" y="93.8" width="12.5" height="12.5" rx="0.71" transform="translate(-44.93 100.82) rotate(-57.13)"/><rect class="cls-7" x="57.01" y="115.82" width="12.5" height="12.5" rx="0.71" transform="translate(-61.26 114.87) rotate(-57.13)"/><rect class="cls-7" x="61.81" y="138.15" width="12.5" height="12.5" rx="0.71" transform="translate(-77.82 129.11) rotate(-57.13)"/></g></g></g><g class="cls-11"><path class="cls-7" d="M76.24,26.78,70.29,36a.76.76,0,0,1-1.06.23l-.16-.1,5.85-9A.76.76,0,0,0,74.69,26l-9-5.85.1-.16a.75.75,0,0,1,1.06-.22L76,25.71A.77.77,0,0,1,76.24,26.78Z" transform="translate(12.34 5.92)"/></g><g class="cls-11"><path class="cls-7" d="M81.6,18.48l-2.59,4a.76.76,0,0,1-1.06.23l-.16-.1,3-4.73Z" transform="translate(12.34 5.92)"/></g><g class="cls-11"><path class="cls-7" d="M62.25,18.1l-6,9.21a.76.76,0,0,1-1.06.23l-.16-.1,5.85-9a.77.77,0,0,0-.23-1.07L60.21,17l1-.52L62,17A.76.76,0,0,1,62.25,18.1Z" transform="translate(12.34 5.92)"/></g><g class="cls-11"><path class="cls-7" d="M66.91,40.4,61,49.61a.76.76,0,0,1-1.06.23l-.16-.1,5.85-9.05a.77.77,0,0,0-.23-1.07l-9-5.85.1-.15a.76.76,0,0,1,1.06-.23l9.21,6A.76.76,0,0,1,66.91,40.4Z" transform="translate(12.34 5.92)"/></g><g class="cls-11"><path class="cls-7" d="M89.73,35.5l-6,9.2a.76.76,0,0,1-1.06.23l-.16-.1,5.85-9a.76.76,0,0,0-.23-1.06l-9.05-5.85.11-.16a.76.76,0,0,1,1.06-.23l9.21,5.95A.78.78,0,0,1,89.73,35.5Z" transform="translate(12.34 5.92)"/></g><g class="cls-11"><path class="cls-7" d="M81,49l-6,9.21a.77.77,0,0,1-1.06.23l-.15-.11L79.7,49.3a.77.77,0,0,0-.22-1.06l-9-5.85.1-.15A.76.76,0,0,1,71.59,42l9.21,6A.78.78,0,0,1,81,49Z" transform="translate(12.34 5.92)"/></g><g class="cls-11"><path class="cls-7" d="M71.8,62.8l-6,9.2a.76.76,0,0,1-1.06.23l-.16-.1,5.85-9A.76.76,0,0,0,70.25,62l-9-5.85.1-.16a.75.75,0,0,1,1.06-.22l9.21,5.94A.77.77,0,0,1,71.8,62.8Z" transform="translate(12.34 5.92)"/></g><g class="cls-11"><path class="cls-7" d="M85.82,71.34l-5.95,9.2a.76.76,0,0,1-1.06.23l-.16-.1,5.85-9a.76.76,0,0,0-.23-1.06l-9-5.85.1-.16a.76.76,0,0,1,1.06-.22l9.21,5.94A.77.77,0,0,1,85.82,71.34Z" transform="translate(12.34 5.92)"/></g><g class="cls-11"><path class="cls-7" d="M76.58,85.06l-6,9.21a.77.77,0,0,1-1.06.22l-.15-.1,5.84-9A.76.76,0,0,0,75,84.28l-9-5.85.11-.15a.75.75,0,0,1,1.06-.23l9.21,6A.77.77,0,0,1,76.58,85.06Z" transform="translate(12.34 5.92)"/></g><g class="cls-11"><path class="cls-7" d="M99.34,80.17l-6,9.21a.77.77,0,0,1-1.06.22l-.15-.1,5.84-9a.77.77,0,0,0-.22-1.06l-9.05-5.85.1-.15a.76.76,0,0,1,1.06-.23l9.21,6A.78.78,0,0,1,99.34,80.17Z" transform="translate(12.34 5.92)"/></g><g class="cls-11"><path class="cls-7" d="M90.68,93.76l-6,9.21a.77.77,0,0,1-1.06.23l-.16-.1,5.85-9A.77.77,0,0,0,89.13,93l-9-5.85.1-.15a.76.76,0,0,1,1.06-.23l9.21,6A.76.76,0,0,1,90.68,93.76Z" transform="translate(12.34 5.92)"/></g><g class="cls-11"><path class="cls-7" d="M81.34,107.19l-6,9.21a.76.76,0,0,1-1.06.23l-.16-.1,5.85-9a.77.77,0,0,0-.23-1.07l-9.05-5.84.1-.16a.76.76,0,0,1,1.06-.23l9.21,5.95A.76.76,0,0,1,81.34,107.19Z" transform="translate(12.34 5.92)"/></g><g class="cls-11"><path class="cls-7" d="M66.76,98.81,64,103l-.28-1.33,1.68-2.61A.78.78,0,0,0,65.21,98L62.4,96.27,62.12,95l4.41,2.79A.78.78,0,0,1,66.76,98.81Z" transform="translate(12.34 5.92)"/></g><g class="cls-11"><path class="cls-7" d="M62,76.52l-2.72,4.22L59,79.41l1.67-2.61a.77.77,0,0,0-.22-1.06L57.61,74l-.28-1.32,4.41,2.79A.78.78,0,0,1,62,76.52Z" transform="translate(12.34 5.92)"/></g><g class="cls-11"><path class="cls-7" d="M57.17,54.2l-2.71,4.22-.28-1.33,1.67-2.61a.76.76,0,0,0-.23-1.06l-2.81-1.76-.28-1.32,4.41,2.8A.76.76,0,0,1,57.17,54.2Z" transform="translate(12.34 5.92)"/></g><g class="cls-11"><path class="cls-7" d="M52.35,31.8,49.64,36l-.28-1.33L51,32.08A.76.76,0,0,0,50.8,31l-.87-.57.15-1,2,1.28A.77.77,0,0,1,52.35,31.8Z" transform="translate(12.34 5.92)"/></g><g class="cls-11"><path class="cls-7" d="M71.5,120.9l-2.71,4.22-.28-1.33,1.67-2.61a.76.76,0,0,0-.23-1.06l-2.8-1.76L66.86,117l4.42,2.79A.78.78,0,0,1,71.5,120.9Z" transform="translate(12.34 5.92)"/></g><g class="cls-11"><path class="cls-7" d="M95.41,115.7l-6,9.21a.76.76,0,0,1-1.06.23l-.16-.1L94.09,116a.76.76,0,0,0-.23-1.06l-9-5.85.1-.16a.76.76,0,0,1,1.06-.23l9.21,6A.76.76,0,0,1,95.41,115.7Z" transform="translate(12.34 5.92)"/></g><g class="cls-11"><path class="cls-7" d="M100.22,138.06,98,141.47l-1.51.81,2.45-3.93a.78.78,0,0,0-.22-1.07l-9-5.85.1-.15a.76.76,0,0,1,1.06-.23L100,137A.78.78,0,0,1,100.22,138.06Z" transform="translate(12.34 5.92)"/></g><g class="cls-11"><path class="cls-7" d="M104.09,102.3l-6,9.21a.76.76,0,0,1-1.06.23l-.16-.1,5.85-9a.77.77,0,0,0-.23-1.07l-9.05-5.84.1-.16a.76.76,0,0,1,1.06-.23l9.21,5.95A.76.76,0,0,1,104.09,102.3Z" transform="translate(12.34 5.92)"/></g><g class="cls-11"><path class="cls-7" d="M86.11,129.38l-6,9.21a.77.77,0,0,1-1.06.22l-.16-.1,5.85-9.05a.76.76,0,0,0-.23-1.06l-9-5.85.1-.15a.76.76,0,0,1,1.06-.23l9.21,5.95A.76.76,0,0,1,86.11,129.38Z" transform="translate(12.34 5.92)"/></g><g class="cls-11"><path class="cls-7" d="M108.86,124.49l-6,9.21a.77.77,0,0,1-1.06.22l-.16-.1,5.85-9a.76.76,0,0,0-.23-1.06l-9-5.85.1-.15a.76.76,0,0,1,1.06-.23l9.21,6A.76.76,0,0,1,108.86,124.49Z" transform="translate(12.34 5.92)"/></g><g class="cls-11"><path class="cls-7" d="M94.55,57.91l-6,9.2a.76.76,0,0,1-1.06.23l-.16-.1,5.85-9A.76.76,0,0,0,93,57.13l-9-5.85.1-.16a.76.76,0,0,1,1.06-.22l9.21,5.94A.77.77,0,0,1,94.55,57.91Z" transform="translate(12.34 5.92)"/></g><path class="cls-3" d="M42.54,114.87h0a2.22,2.22,0,0,0-1.69,2.64l16,78.66c.26,1.2.87,2.05,2.07,1.79l.56-.1a3.25,3.25,0,0,0,2.76-2.67,2.9,2.9,0,0,0-.08-1l-17-77.66A2.21,2.21,0,0,0,42.54,114.87Z" transform="translate(12.34 5.92)"/><path class="cls-4" d="M59.51,198l-.58.1h0a1.52,1.52,0,0,1-1.49-.39,3,3,0,0,1-.72-1.51l-16-78.66a2.36,2.36,0,0,1,1.8-2.8h0a2.36,2.36,0,0,1,2.78,1.8l17,77.66a3.1,3.1,0,0,1,.08,1A3.39,3.39,0,0,1,59.51,198Zm-.63-.18.57-.1A2.8,2.8,0,0,0,62,194.25L45,116.59A2.09,2.09,0,0,0,42.57,115h0A2.09,2.09,0,0,0,41,117.48l16,78.67a2.7,2.7,0,0,0,.64,1.36,1.29,1.29,0,0,0,1.24.32Z" transform="translate(12.34 5.92)"/><rect class="cls-5" x="48.36" y="114.5" width="4.43" height="84.31" rx="1.89" transform="translate(-19.95 20.34) rotate(-12.33)"/><rect class="cls-5" x="48.36" y="114.5" width="4.43" height="84.31" rx="1.89" transform="translate(-19.95 20.34) rotate(-12.33)"/><rect class="cls-5" x="48.36" y="114.5" width="4.43" height="84.31" rx="1.89" transform="translate(-19.95 20.34) rotate(-12.33)"/><path class="cls-6" d="M58.76,198.16A1.51,1.51,0,0,1,57,197L39.56,117.3a1.54,1.54,0,0,1,.2-1.13,1.51,1.51,0,0,1,1-.66l1.66-.36a1.53,1.53,0,0,1,1.14.2,1.5,1.5,0,0,1,.65.94L61.59,196a1.55,1.55,0,0,1-.2,1.13,1.51,1.51,0,0,1-1,.66l-1.67.36ZM42.44,115.42l-1.67.37a1.21,1.21,0,0,0-.93,1.45L57.27,197a1.18,1.18,0,0,0,.53.76,1.24,1.24,0,0,0,.9.17h0l1.67-.37a1.21,1.21,0,0,0,.93-1.45L43.88,116.35a1.18,1.18,0,0,0-.53-.76,1.2,1.2,0,0,0-.9-.17Z" transform="translate(12.34 5.92)"/><rect class="cls-7" x="10.46" y="-0.43" width="45.27" height="138.96" rx="20.87" transform="translate(-1.43 14.41) rotate(-12.13)"/><path class="cls-6" d="M45.92,137.65a21.18,21.18,0,0,1-25-16.26L.48,26.34A21.21,21.21,0,0,1,16.71,1.21L20.16.47A21.18,21.18,0,0,1,45.29,16.71l20.43,95.05a21.21,21.21,0,0,1-16.24,25.12h0l-3.45.75ZM20.39,1l-.11,0-3.45.74A20.66,20.66,0,0,0,1,26.22l20.43,95.05a20.66,20.66,0,0,0,24.45,15.8l3.45-.74a20.64,20.64,0,0,0,15.8-24.45l-20.42-95A20.63,20.63,0,0,0,20.39,1Z" transform="translate(12.34 5.92)"/><rect class="cls-8" x="11.74" y="1.62" width="41.18" height="135.19" rx="18.99" transform="translate(-1.48 14.26) rotate(-12.13)"/><path class="cls-6" d="M44.92,135.93a19.29,19.29,0,0,1-22.79-14.81L1.7,26.08A19.3,19.3,0,0,1,16.49,3.19l3.15-.67.1,0A19.29,19.29,0,0,1,42.52,17.3L63,112.35a19.29,19.29,0,0,1-14.79,22.89h0l-3.14.67ZM48,134.68l.06.28-.06-.28A18.72,18.72,0,0,0,62.4,112.47L42,17.42A18.73,18.73,0,0,0,19.86,3.05l-.1,0-3.15.68A18.76,18.76,0,0,0,2.26,26l20.43,95A18.75,18.75,0,0,0,44.8,135.38l.1,0Z" transform="translate(12.34 5.92)"/><g class="cls-9"><path class="cls-10" d="M46.45,22.78l17.39,81.59C69.12,124,59.78,134.3,49,136.66c0,0-5.06.77-5.51.74.39-.51,1-1.59,1.33-2.13s.76-1.25,1.1-1.89c.15-.26.29-.54.42-.81s.28-.56.41-.84c.37-.81.71-1.63,1-2.44.12-.32.23-.63.33-.95,0-.07,0-.13.07-.19l.15-.46.15-.48a43.45,43.45,0,0,0,1.43-6.77c0-.22.05-.44.08-.65a1.94,1.94,0,0,0,0-.24c.06-.5.11-1,.15-1.46V118a39.84,39.84,0,0,0-.85-11.62L31.7,25.92s-1.59-6.37-2.92-10.5c-.1-.3-.2-.59-.29-.87s-.22-.62-.32-.89l-.2-.52c-.21-.49-.41-1-.62-1.42-.09-.19-.17-.37-.26-.55s-.17-.36-.25-.54Q25.94,8.77,25,7.3c-.35-.59-.7-1.14-1-1.64a29.88,29.88,0,0,0-2.37-3.1,14.7,14.7,0,0,0-1.48-1.5C33.46-1.53,43,6.8,46.45,22.78Z" transform="translate(12.34 5.92)"/></g><g class="cls-11"><g class="cls-15"><g class="cls-13"><rect class="cls-7" x="-0.02" y="1.28" width="12.84" height="12.84" rx="0.73" transform="matrix(0.54, -0.84, 0.84, 0.54, 8.81, 14.82)"/><rect class="cls-7" x="23.32" y="-3.74" width="12.84" height="12.84" rx="0.73" transform="translate(23.69 32.12) rotate(-57.13)"/><rect class="cls-7" x="14.37" y="10.11" width="12.84" height="12.84" rx="0.73" transform="translate(7.97 30.94) rotate(-57.13)"/><rect class="cls-7" x="4.91" y="24.21" width="12.84" height="12.84" rx="0.73" transform="translate(-8.2 29.44) rotate(-57.13)"/><rect class="cls-7" x="28.25" y="19.2" width="12.84" height="12.84" rx="0.73" transform="translate(6.68 46.75) rotate(-57.13)"/><rect class="cls-7" x="19.3" y="33.04" width="12.84" height="12.84" rx="0.73" transform="translate(-9.04 45.57) rotate(-57.13)"/><rect class="cls-7" x="9.85" y="47.19" width="12.84" height="12.84" rx="0.73" transform="translate(-25.24 44.1) rotate(-57.13)"/><rect class="cls-7" x="33.19" y="42.17" width="12.84" height="12.84" rx="0.73" transform="translate(-10.36 61.4) rotate(-57.13)"/><rect class="cls-7" x="24.24" y="56.02" width="12.84" height="12.84" rx="0.73" transform="translate(-26.08 60.22) rotate(-57.13)"/><rect class="cls-7" x="14.78" y="70.12" width="12.84" height="12.84" rx="0.73" transform="translate(-42.25 58.73) rotate(-57.13)"/><rect class="cls-7" x="38.12" y="65.11" width="12.84" height="12.84" rx="0.73" transform="matrix(0.54, -0.84, 0.84, 0.54, -27.37, 76.03)"/><rect class="cls-7" x="29.17" y="78.95" width="12.84" height="12.84" rx="0.73" transform="translate(-43.09 74.85) rotate(-57.13)"/><rect class="cls-7" x="19.64" y="92.75" width="12.84" height="12.84" rx="0.73" transform="translate(-59.04 73.16) rotate(-57.13)"/><rect class="cls-7" x="42.98" y="87.74" width="12.84" height="12.84" rx="0.73" transform="translate(-44.15 90.47) rotate(-57.13)"/><rect class="cls-7" x="34.03" y="101.58" width="12.84" height="12.84" rx="0.73" transform="translate(-59.87 89.28) rotate(-57.13)"/><rect class="cls-7" x="24.57" y="115.69" width="12.84" height="12.84" rx="0.73" transform="translate(-76.05 87.79) rotate(-57.13)"/><rect class="cls-7" x="47.91" y="110.67" width="12.84" height="12.84" rx="0.73" transform="translate(-61.16 105.09) rotate(-57.13)"/><rect class="cls-7" x="38.96" y="124.52" width="12.84" height="12.84" rx="0.73" transform="translate(-76.88 103.91) rotate(-57.13)"/><rect class="cls-7" x="37" y="5.24" width="12.84" height="12.84" rx="0.73" transform="translate(22.4 47.72) rotate(-57.13)"/><rect class="cls-7" x="41.93" y="28.18" width="12.84" height="12.84" rx="0.73" transform="translate(5.39 62.35) rotate(-57.13)"/><rect class="cls-7" x="46.87" y="51.15" width="12.84" height="12.84" rx="0.73" transform="translate(-11.65 77.01) rotate(-57.13)"/><rect class="cls-7" x="51.8" y="74.09" width="12.84" height="12.84" rx="0.73" transform="translate(-28.65 91.63) rotate(-57.13)"/><rect class="cls-7" x="56.66" y="96.72" width="12.84" height="12.84" rx="0.73" transform="translate(-45.44 106.07) rotate(-57.13)"/><rect class="cls-7" x="61.59" y="119.65" width="12.84" height="12.84" rx="0.73" transform="translate(-62.45 120.69) rotate(-57.13)"/><rect class="cls-7" x="-10.16" y="15.38" width="12.84" height="12.84" rx="0.73" transform="translate(-7.68 12.74) rotate(-57.13)"/><rect class="cls-7" x="-5.24" y="38.31" width="12.84" height="12.84" rx="0.73" transform="translate(-24.69 27.37) rotate(-57.13)"/><rect class="cls-7" x="-0.3" y="61.29" width="12.84" height="12.84" rx="0.73" transform="translate(-41.73 42.02) rotate(-57.13)"/><rect class="cls-7" x="4.63" y="84.23" width="12.84" height="12.84" rx="0.73" transform="translate(-58.74 56.65) rotate(-57.13)"/><rect class="cls-7" x="9.5" y="106.86" width="12.84" height="12.84" rx="0.73" transform="translate(-75.52 71.09) rotate(-57.13)"/><rect class="cls-7" x="14.43" y="129.79" width="12.84" height="12.84" rx="0.73" transform="translate(-92.53 85.71) rotate(-57.13)"/></g></g></g><g class="cls-11"><path class="cls-7" d="M29.26,15.37l-6.12,9.46a.79.79,0,0,1-1.09.23l-.16-.1,6-9.3a.8.8,0,0,0-.23-1.1l-9.3-6,.1-.16a.78.78,0,0,1,1.09-.24L29,14.27A.8.8,0,0,1,29.26,15.37Z" transform="translate(12.34 5.92)"/></g><g class="cls-11"><path class="cls-7" d="M34.77,6.84,32.1,11A.79.79,0,0,1,31,11.2l-.16-.11L34,6.24Z" transform="translate(12.34 5.92)"/></g><g class="cls-11"><path class="cls-7" d="M14.89,6.45,8.77,15.91a.79.79,0,0,1-1.09.24L7.52,16l6-9.3a.79.79,0,0,0-.24-1.09l-.5-.32,1-.53.87.56A.79.79,0,0,1,14.89,6.45Z" transform="translate(12.34 5.92)"/></g><g class="cls-11"><path class="cls-7" d="M19.67,29.36l-6.11,9.46a.79.79,0,0,1-1.09.24L12.31,39l6-9.29a.79.79,0,0,0-.23-1.1l-9.3-6,.11-.16A.77.77,0,0,1,10,22.16l9.47,6.11A.79.79,0,0,1,19.67,29.36Z" transform="translate(12.34 5.92)"/></g><g class="cls-11"><path class="cls-7" d="M43.12,24.32,37,33.78a.79.79,0,0,1-1.09.24l-.16-.11,6-9.29a.8.8,0,0,0-.23-1.1l-9.3-6,.1-.16a.78.78,0,0,1,1.09-.23l9.47,6.11A.79.79,0,0,1,43.12,24.32Z" transform="translate(12.34 5.92)"/></g><g class="cls-11"><path class="cls-7" d="M34.17,38.22l-6.11,9.46a.79.79,0,0,1-1.09.23l-.16-.1,6-9.3a.79.79,0,0,0-.24-1.09l-9.3-6,.11-.16A.78.78,0,0,1,24.48,31l9.46,6.12A.79.79,0,0,1,34.17,38.22Z" transform="translate(12.34 5.92)"/></g><g class="cls-11"><path class="cls-7" d="M24.69,52.37l-6.11,9.46a.79.79,0,0,1-1.09.24L17.33,62l6-9.29a.8.8,0,0,0-.24-1.1l-9.3-6,.11-.17A.79.79,0,0,1,15,45.17l9.46,6.11A.78.78,0,0,1,24.69,52.37Z" transform="translate(12.34 5.92)"/></g><g class="cls-11"><path class="cls-7" d="M39.1,61.15,33,70.61a.79.79,0,0,1-1.09.23l-.16-.1,6-9.3a.78.78,0,0,0-.23-1.09l-9.3-6,.11-.16a.78.78,0,0,1,1.08-.24l9.47,6.12A.79.79,0,0,1,39.1,61.15Z" transform="translate(12.34 5.92)"/></g><g class="cls-11"><path class="cls-7" d="M29.61,75.25,23.5,84.71a.79.79,0,0,1-1.09.23l-.16-.1,6-9.3A.79.79,0,0,0,28,74.45l-9.3-6,.1-.16A.78.78,0,0,1,19.91,68l9.47,6.11A.8.8,0,0,1,29.61,75.25Z" transform="translate(12.34 5.92)"/></g><g class="cls-11"><path class="cls-7" d="M53,70.22l-6.12,9.46a.79.79,0,0,1-1.09.24l-.16-.11,6-9.3a.79.79,0,0,0-.24-1.09l-9.29-6,.1-.16A.78.78,0,0,1,43.29,63l9.46,6.11A.79.79,0,0,1,53,70.22Z" transform="translate(12.34 5.92)"/></g><g class="cls-11"><path class="cls-7" d="M44.1,84.19,38,93.65a.79.79,0,0,1-1.09.23l-.16-.1,6-9.3a.79.79,0,0,0-.24-1.09l-9.3-6,.11-.16A.78.78,0,0,1,34.4,77l9.46,6.12A.79.79,0,0,1,44.1,84.19Z" transform="translate(12.34 5.92)"/></g><g class="cls-11"><path class="cls-7" d="M34.5,98l-6.12,9.46a.79.79,0,0,1-1.09.23l-.16-.1,6-9.3a.79.79,0,0,0-.23-1.09l-9.3-6,.1-.16a.78.78,0,0,1,1.09-.24l9.46,6.12A.79.79,0,0,1,34.5,98Z" transform="translate(12.34 5.92)"/></g><g class="cls-11"><path class="cls-7" d="M19.51,89.37l-2.79,4.34-.28-1.37,1.72-2.68a.79.79,0,0,0-.24-1.09L15,86.76l-.29-1.35,4.53,2.87A.79.79,0,0,1,19.51,89.37Z" transform="translate(12.34 5.92)"/></g><g class="cls-11"><path class="cls-7" d="M14.59,66.47,11.8,70.81l-.28-1.37,1.71-2.68A.79.79,0,0,0,13,65.67l-2.88-1.81-.3-1.35,4.54,2.87A.79.79,0,0,1,14.59,66.47Z" transform="translate(12.34 5.92)"/></g><g class="cls-11"><path class="cls-7" d="M9.66,43.54,6.87,47.88l-.28-1.37,1.72-2.68a.79.79,0,0,0-.24-1.09L5.19,40.93,4.9,39.57l4.53,2.88A.79.79,0,0,1,9.66,43.54Z" transform="translate(12.34 5.92)"/></g><g class="cls-11"><path class="cls-7" d="M4.71,20.52,1.93,24.86l-.29-1.37,1.72-2.68a.79.79,0,0,0-.24-1.09l-.89-.58.15-1,2.1,1.32A.78.78,0,0,1,4.71,20.52Z" transform="translate(12.34 5.92)"/></g><g class="cls-11"><path class="cls-7" d="M24.39,112.07,21.6,116.4,21.32,115,23,112.36a.79.79,0,0,0-.23-1.09l-2.88-1.81-.3-1.36L24.16,111A.79.79,0,0,1,24.39,112.07Z" transform="translate(12.34 5.92)"/></g><g class="cls-11"><path class="cls-7" d="M49,106.73l-6.11,9.46a.79.79,0,0,1-1.09.24l-.16-.11,6-9.29a.8.8,0,0,0-.24-1.1l-9.3-6,.11-.16a.79.79,0,0,1,1.09-.23l9.46,6.11A.79.79,0,0,1,49,106.73Z" transform="translate(12.34 5.92)"/></g><g class="cls-11"><path class="cls-7" d="M53.89,129.7l-2.33,3.51L50,134l2.52-4a.8.8,0,0,0-.23-1.1l-9.3-6,.1-.17a.79.79,0,0,1,1.09-.23l9.47,6.11A.79.79,0,0,1,53.89,129.7Z" transform="translate(12.34 5.92)"/></g><g class="cls-11"><path class="cls-7" d="M57.87,93l-6.11,9.46a.79.79,0,0,1-1.09.24l-.16-.11,6-9.29a.8.8,0,0,0-.24-1.1l-9.3-6,.11-.16a.79.79,0,0,1,1.09-.23l9.46,6.11A.78.78,0,0,1,57.87,93Z" transform="translate(12.34 5.92)"/></g><g class="cls-11"><path class="cls-7" d="M39.4,120.78l-6.12,9.46a.79.79,0,0,1-1.09.24l-.16-.11,6-9.29a.8.8,0,0,0-.23-1.1l-9.3-6,.1-.17a.79.79,0,0,1,1.09-.23l9.46,6.11A.79.79,0,0,1,39.4,120.78Z" transform="translate(12.34 5.92)"/></g><g class="cls-11"><path class="cls-7" d="M62.77,115.76l-6.11,9.46a.78.78,0,0,1-1.09.23l-.16-.1,6-9.3a.79.79,0,0,0-.24-1.09l-9.3-6,.11-.16a.78.78,0,0,1,1.09-.23l9.46,6.11A.79.79,0,0,1,62.77,115.76Z" transform="translate(12.34 5.92)"/></g><g class="cls-11"><path class="cls-7" d="M48.07,47.35,42,56.81a.77.77,0,0,1-1.08.23l-.17-.1,6-9.3a.79.79,0,0,0-.23-1.09l-9.3-6,.1-.16a.78.78,0,0,1,1.09-.23l9.47,6.11A.79.79,0,0,1,48.07,47.35Z" transform="translate(12.34 5.92)"/></g></g></g></g></svg>